%TF.GenerationSoftware,KiCad,Pcbnew,(5.1.6)-1*%
%TF.CreationDate,2020-10-15T17:46:37+08:00*%
%TF.ProjectId,Music_Player,4d757369-635f-4506-9c61-7965722e6b69,rev?*%
%TF.SameCoordinates,Original*%
%TF.FileFunction,Legend,Top*%
%TF.FilePolarity,Positive*%
%FSLAX46Y46*%
G04 Gerber Fmt 4.6, Leading zero omitted, Abs format (unit mm)*
G04 Created by KiCad (PCBNEW (5.1.6)-1) date 2020-10-15 17:46:37*
%MOMM*%
%LPD*%
G01*
G04 APERTURE LIST*
%ADD10C,0.120000*%
%ADD11C,0.100000*%
%ADD12C,0.150000*%
G04 APERTURE END LIST*
D10*
%TO.C,Y1*%
X21000000Y-19550000D02*
X20750000Y-19550000D01*
X20750000Y-19550000D02*
X20750000Y-19050000D01*
X20750000Y-19050000D02*
X21950000Y-19050000D01*
X21000000Y-19550000D02*
X21950000Y-19550000D01*
X21950000Y-19550000D02*
X21950000Y-19050000D01*
%TO.C,U5*%
X21190000Y-16410000D02*
X22450000Y-16410000D01*
X28010000Y-16410000D02*
X26750000Y-16410000D01*
X21190000Y-12650000D02*
X21190000Y-16410000D01*
X28010000Y-10400000D02*
X28010000Y-16410000D01*
%TO.C,U4*%
X16410000Y-23710000D02*
X16410000Y-22450000D01*
X16410000Y-16890000D02*
X16410000Y-18150000D01*
X12650000Y-23710000D02*
X16410000Y-23710000D01*
X10400000Y-16890000D02*
X16410000Y-16890000D01*
%TO.C,U3*%
X16500000Y-14510000D02*
X18300000Y-14510000D01*
X18300000Y-11290000D02*
X15350000Y-11290000D01*
%TO.C,U2*%
X32210000Y-10270000D02*
X30560000Y-10270000D01*
X30560000Y-10270000D02*
X30560000Y-20550000D01*
X30560000Y-20550000D02*
X35860000Y-20550000D01*
X35860000Y-20550000D02*
X35860000Y-10270000D01*
X35860000Y-10270000D02*
X34210000Y-10270000D01*
X34210000Y-10270000D02*
G75*
G02*
X32210000Y-10270000I-1000000J0D01*
G01*
%TO.C,L1*%
X10250000Y-15300000D02*
X13800000Y-15300000D01*
X13800000Y-15300000D02*
X13850000Y-15300000D01*
X13850000Y-15300000D02*
X13850000Y-11150000D01*
X13850000Y-11150000D02*
X13850000Y-11100000D01*
X13850000Y-11100000D02*
X10150000Y-11100000D01*
X10150000Y-11100000D02*
X10150000Y-15300000D01*
X10150000Y-15300000D02*
X10250000Y-15300000D01*
%TO.C,J7*%
X31270000Y-23930000D02*
X33930000Y-23930000D01*
X31270000Y-23810000D02*
X31270000Y-23930000D01*
X33930000Y-23810000D02*
X33930000Y-23930000D01*
X33930000Y-21270000D02*
X33930000Y-22600000D01*
X32600000Y-21270000D02*
X33930000Y-21270000D01*
%TO.C,J6*%
X34870000Y-30130000D02*
X37530000Y-30130000D01*
X34870000Y-30010000D02*
X34870000Y-30130000D01*
X37530000Y-30010000D02*
X37530000Y-30130000D01*
X37530000Y-27470000D02*
X37530000Y-28800000D01*
X36200000Y-27470000D02*
X37530000Y-27470000D01*
%TO.C,J5*%
X21770000Y-33330000D02*
X24430000Y-33330000D01*
X21770000Y-33210000D02*
X21770000Y-33330000D01*
X24430000Y-33210000D02*
X24430000Y-33330000D01*
X24430000Y-30670000D02*
X24430000Y-32000000D01*
X23100000Y-30670000D02*
X24430000Y-30670000D01*
%TO.C,J4*%
X13070000Y-33330000D02*
X13070000Y-30670000D01*
X13070000Y-33330000D02*
X20750000Y-33330000D01*
X20750000Y-33330000D02*
X20750000Y-30670000D01*
X13070000Y-30670000D02*
X20750000Y-30670000D01*
X10470000Y-30670000D02*
X11800000Y-30670000D01*
X10470000Y-32000000D02*
X10470000Y-30670000D01*
%TO.C,J3*%
X34970000Y-23870000D02*
X37630000Y-23870000D01*
X34970000Y-23870000D02*
X34970000Y-26470000D01*
X34970000Y-26470000D02*
X37630000Y-26470000D01*
X37630000Y-23870000D02*
X37630000Y-26470000D01*
X37630000Y-21270000D02*
X37630000Y-22600000D01*
X36300000Y-21270000D02*
X37630000Y-21270000D01*
%TO.C,J2*%
X31270000Y-27570000D02*
X33930000Y-27570000D01*
X31270000Y-27570000D02*
X31270000Y-30170000D01*
X31270000Y-30170000D02*
X33930000Y-30170000D01*
X33930000Y-27570000D02*
X33930000Y-30170000D01*
X33930000Y-24970000D02*
X33930000Y-26300000D01*
X32600000Y-24970000D02*
X33930000Y-24970000D01*
%TO.C,J1*%
X25170000Y-22030000D02*
X25170000Y-19370000D01*
X25170000Y-22030000D02*
X27770000Y-22030000D01*
X27770000Y-22030000D02*
X27770000Y-19370000D01*
X25170000Y-19370000D02*
X27770000Y-19370000D01*
X22570000Y-19370000D02*
X23900000Y-19370000D01*
X22570000Y-20700000D02*
X22570000Y-19370000D01*
D11*
%TO.C,D3*%
X20550000Y-16790000D02*
G75*
G03*
X20550000Y-16790000I-50000J0D01*
G01*
%TO.C,D2*%
X19550000Y-16790000D02*
G75*
G03*
X19550000Y-16790000I-50000J0D01*
G01*
D10*
%TO.C,BT1*%
X10165000Y-24640000D02*
X24610000Y-24640000D01*
X26730000Y-24640000D02*
X30485000Y-24640000D01*
X30485000Y-24640000D02*
X30485000Y-28910000D01*
X10165000Y-24640000D02*
X10165000Y-28910000D01*
X10165000Y-28910000D02*
X13890000Y-28910000D01*
X17110000Y-28910000D02*
X30485000Y-28910000D01*
D12*
X12728571Y-28107142D02*
X13871428Y-28107142D01*
X13300000Y-28678571D02*
X13300000Y-27535714D01*
%TD*%
M02*
