%TF.GenerationSoftware,KiCad,Pcbnew,(5.1.6)-1*%
%TF.CreationDate,2020-10-15T17:46:37+08:00*%
%TF.ProjectId,Music_Player,4d757369-635f-4506-9c61-7965722e6b69,rev?*%
%TF.SameCoordinates,Original*%
%TF.FileFunction,Paste,Top*%
%TF.FilePolarity,Positive*%
%FSLAX46Y46*%
G04 Gerber Fmt 4.6, Leading zero omitted, Abs format (unit mm)*
G04 Created by KiCad (PCBNEW (5.1.6)-1) date 2020-10-15 17:46:37*
%MOMM*%
%LPD*%
G01*
G04 APERTURE LIST*
%ADD10R,1.500000X2.000000*%
%ADD11R,3.800000X2.000000*%
%ADD12R,2.000000X1.500000*%
%ADD13R,2.000000X3.800000*%
%ADD14R,1.560000X0.650000*%
%ADD15R,3.500000X1.600000*%
G04 APERTURE END LIST*
D10*
%TO.C,U5*%
X26900000Y-11350000D03*
X22300000Y-11350000D03*
X24600000Y-11350000D03*
D11*
X24600000Y-17650000D03*
%TD*%
D12*
%TO.C,U4*%
X11350000Y-18000000D03*
X11350000Y-22600000D03*
X11350000Y-20300000D03*
D13*
X17650000Y-20300000D03*
%TD*%
D14*
%TO.C,U3*%
X18750000Y-12900000D03*
X18750000Y-11950000D03*
X18750000Y-13850000D03*
X16050000Y-13850000D03*
X16050000Y-12900000D03*
X16050000Y-11950000D03*
%TD*%
%TO.C,R6*%
G36*
G01*
X15810000Y-15027500D02*
X15810000Y-15372500D01*
G75*
G02*
X15662500Y-15520000I-147500J0D01*
G01*
X15367500Y-15520000D01*
G75*
G02*
X15220000Y-15372500I0J147500D01*
G01*
X15220000Y-15027500D01*
G75*
G02*
X15367500Y-14880000I147500J0D01*
G01*
X15662500Y-14880000D01*
G75*
G02*
X15810000Y-15027500I0J-147500D01*
G01*
G37*
G36*
G01*
X16780000Y-15027500D02*
X16780000Y-15372500D01*
G75*
G02*
X16632500Y-15520000I-147500J0D01*
G01*
X16337500Y-15520000D01*
G75*
G02*
X16190000Y-15372500I0J147500D01*
G01*
X16190000Y-15027500D01*
G75*
G02*
X16337500Y-14880000I147500J0D01*
G01*
X16632500Y-14880000D01*
G75*
G02*
X16780000Y-15027500I0J-147500D01*
G01*
G37*
%TD*%
%TO.C,R5*%
G36*
G01*
X16190000Y-16372500D02*
X16190000Y-16027500D01*
G75*
G02*
X16337500Y-15880000I147500J0D01*
G01*
X16632500Y-15880000D01*
G75*
G02*
X16780000Y-16027500I0J-147500D01*
G01*
X16780000Y-16372500D01*
G75*
G02*
X16632500Y-16520000I-147500J0D01*
G01*
X16337500Y-16520000D01*
G75*
G02*
X16190000Y-16372500I0J147500D01*
G01*
G37*
G36*
G01*
X15220000Y-16372500D02*
X15220000Y-16027500D01*
G75*
G02*
X15367500Y-15880000I147500J0D01*
G01*
X15662500Y-15880000D01*
G75*
G02*
X15810000Y-16027500I0J-147500D01*
G01*
X15810000Y-16372500D01*
G75*
G02*
X15662500Y-16520000I-147500J0D01*
G01*
X15367500Y-16520000D01*
G75*
G02*
X15220000Y-16372500I0J147500D01*
G01*
G37*
%TD*%
D15*
%TO.C,L1*%
X12000000Y-14400000D03*
X12000000Y-12000000D03*
%TD*%
%TO.C,D3*%
G36*
G01*
X20672500Y-15510000D02*
X20327500Y-15510000D01*
G75*
G02*
X20180000Y-15362500I0J147500D01*
G01*
X20180000Y-15067500D01*
G75*
G02*
X20327500Y-14920000I147500J0D01*
G01*
X20672500Y-14920000D01*
G75*
G02*
X20820000Y-15067500I0J-147500D01*
G01*
X20820000Y-15362500D01*
G75*
G02*
X20672500Y-15510000I-147500J0D01*
G01*
G37*
G36*
G01*
X20672500Y-16480000D02*
X20327500Y-16480000D01*
G75*
G02*
X20180000Y-16332500I0J147500D01*
G01*
X20180000Y-16037500D01*
G75*
G02*
X20327500Y-15890000I147500J0D01*
G01*
X20672500Y-15890000D01*
G75*
G02*
X20820000Y-16037500I0J-147500D01*
G01*
X20820000Y-16332500D01*
G75*
G02*
X20672500Y-16480000I-147500J0D01*
G01*
G37*
%TD*%
%TO.C,D2*%
G36*
G01*
X19672500Y-15510000D02*
X19327500Y-15510000D01*
G75*
G02*
X19180000Y-15362500I0J147500D01*
G01*
X19180000Y-15067500D01*
G75*
G02*
X19327500Y-14920000I147500J0D01*
G01*
X19672500Y-14920000D01*
G75*
G02*
X19820000Y-15067500I0J-147500D01*
G01*
X19820000Y-15362500D01*
G75*
G02*
X19672500Y-15510000I-147500J0D01*
G01*
G37*
G36*
G01*
X19672500Y-16480000D02*
X19327500Y-16480000D01*
G75*
G02*
X19180000Y-16332500I0J147500D01*
G01*
X19180000Y-16037500D01*
G75*
G02*
X19327500Y-15890000I147500J0D01*
G01*
X19672500Y-15890000D01*
G75*
G02*
X19820000Y-16037500I0J-147500D01*
G01*
X19820000Y-16332500D01*
G75*
G02*
X19672500Y-16480000I-147500J0D01*
G01*
G37*
%TD*%
%TO.C,C8*%
G36*
G01*
X26190000Y-31872500D02*
X26190000Y-31527500D01*
G75*
G02*
X26337500Y-31380000I147500J0D01*
G01*
X26632500Y-31380000D01*
G75*
G02*
X26780000Y-31527500I0J-147500D01*
G01*
X26780000Y-31872500D01*
G75*
G02*
X26632500Y-32020000I-147500J0D01*
G01*
X26337500Y-32020000D01*
G75*
G02*
X26190000Y-31872500I0J147500D01*
G01*
G37*
G36*
G01*
X25220000Y-31872500D02*
X25220000Y-31527500D01*
G75*
G02*
X25367500Y-31380000I147500J0D01*
G01*
X25662500Y-31380000D01*
G75*
G02*
X25810000Y-31527500I0J-147500D01*
G01*
X25810000Y-31872500D01*
G75*
G02*
X25662500Y-32020000I-147500J0D01*
G01*
X25367500Y-32020000D01*
G75*
G02*
X25220000Y-31872500I0J147500D01*
G01*
G37*
%TD*%
%TO.C,C7*%
G36*
G01*
X26090000Y-30872500D02*
X26090000Y-30527500D01*
G75*
G02*
X26237500Y-30380000I147500J0D01*
G01*
X26532500Y-30380000D01*
G75*
G02*
X26680000Y-30527500I0J-147500D01*
G01*
X26680000Y-30872500D01*
G75*
G02*
X26532500Y-31020000I-147500J0D01*
G01*
X26237500Y-31020000D01*
G75*
G02*
X26090000Y-30872500I0J147500D01*
G01*
G37*
G36*
G01*
X25120000Y-30872500D02*
X25120000Y-30527500D01*
G75*
G02*
X25267500Y-30380000I147500J0D01*
G01*
X25562500Y-30380000D01*
G75*
G02*
X25710000Y-30527500I0J-147500D01*
G01*
X25710000Y-30872500D01*
G75*
G02*
X25562500Y-31020000I-147500J0D01*
G01*
X25267500Y-31020000D01*
G75*
G02*
X25120000Y-30872500I0J147500D01*
G01*
G37*
%TD*%
%TO.C,C4*%
G36*
G01*
X18327500Y-15875000D02*
X18672500Y-15875000D01*
G75*
G02*
X18820000Y-16022500I0J-147500D01*
G01*
X18820000Y-16317500D01*
G75*
G02*
X18672500Y-16465000I-147500J0D01*
G01*
X18327500Y-16465000D01*
G75*
G02*
X18180000Y-16317500I0J147500D01*
G01*
X18180000Y-16022500D01*
G75*
G02*
X18327500Y-15875000I147500J0D01*
G01*
G37*
G36*
G01*
X18327500Y-14905000D02*
X18672500Y-14905000D01*
G75*
G02*
X18820000Y-15052500I0J-147500D01*
G01*
X18820000Y-15347500D01*
G75*
G02*
X18672500Y-15495000I-147500J0D01*
G01*
X18327500Y-15495000D01*
G75*
G02*
X18180000Y-15347500I0J147500D01*
G01*
X18180000Y-15052500D01*
G75*
G02*
X18327500Y-14905000I147500J0D01*
G01*
G37*
%TD*%
%TO.C,C3*%
G36*
G01*
X17327500Y-15890000D02*
X17672500Y-15890000D01*
G75*
G02*
X17820000Y-16037500I0J-147500D01*
G01*
X17820000Y-16332500D01*
G75*
G02*
X17672500Y-16480000I-147500J0D01*
G01*
X17327500Y-16480000D01*
G75*
G02*
X17180000Y-16332500I0J147500D01*
G01*
X17180000Y-16037500D01*
G75*
G02*
X17327500Y-15890000I147500J0D01*
G01*
G37*
G36*
G01*
X17327500Y-14920000D02*
X17672500Y-14920000D01*
G75*
G02*
X17820000Y-15067500I0J-147500D01*
G01*
X17820000Y-15362500D01*
G75*
G02*
X17672500Y-15510000I-147500J0D01*
G01*
X17327500Y-15510000D01*
G75*
G02*
X17180000Y-15362500I0J147500D01*
G01*
X17180000Y-15067500D01*
G75*
G02*
X17327500Y-14920000I147500J0D01*
G01*
G37*
%TD*%
%TO.C,C2*%
G36*
G01*
X14572500Y-11810000D02*
X14227500Y-11810000D01*
G75*
G02*
X14080000Y-11662500I0J147500D01*
G01*
X14080000Y-11367500D01*
G75*
G02*
X14227500Y-11220000I147500J0D01*
G01*
X14572500Y-11220000D01*
G75*
G02*
X14720000Y-11367500I0J-147500D01*
G01*
X14720000Y-11662500D01*
G75*
G02*
X14572500Y-11810000I-147500J0D01*
G01*
G37*
G36*
G01*
X14572500Y-12780000D02*
X14227500Y-12780000D01*
G75*
G02*
X14080000Y-12632500I0J147500D01*
G01*
X14080000Y-12337500D01*
G75*
G02*
X14227500Y-12190000I147500J0D01*
G01*
X14572500Y-12190000D01*
G75*
G02*
X14720000Y-12337500I0J-147500D01*
G01*
X14720000Y-12632500D01*
G75*
G02*
X14572500Y-12780000I-147500J0D01*
G01*
G37*
%TD*%
M02*
