M48
; DRILL file {KiCad (5.1.6)-1} date 10/15/20 17:46:39
; FORMAT={-:-/ absolute / inch / decimal}
; #@! TF.CreationDate,2020-10-15T17:46:39+08:00
; #@! TF.GenerationSoftware,Kicad,Pcbnew,(5.1.6)-1
; #@! TF.FileFunction,Plated,1,4,PTH
FMAT,2
INCH
T1C0.0110
T2C0.0157
T3C0.0315
T4C0.0394
T5C0.0429
T6C0.0835
%
G90
G05
T1
X0.8268Y-0.7598
X0.8543Y-0.7598
T2
X0.4961Y-0.622
X0.6063Y-0.8425
X0.6811Y-0.4606
X0.6811Y-0.6772
X0.6839Y-0.5683
X0.7244Y-1.0197
X0.7835Y-0.5394
X0.811Y-0.4567
X0.8307Y-0.6526
X0.8386Y-0.5079
X0.8504Y-1.1378
X0.8723Y-0.5338
X0.9055Y-1.0276
X0.9569Y-0.9293
X0.9803Y-0.5394
X1.0906Y-0.5079
X1.2992Y-0.6693
X1.3268Y-0.6102
X1.3465Y-0.4606
X1.3976Y-0.7008
T3
X1.1575Y-0.4567
X1.1575Y-0.5567
X1.1575Y-0.6567
X1.1575Y-0.7567
X1.4575Y-0.4567
X1.4575Y-0.5567
X1.4575Y-0.6567
X1.4575Y-0.7567
T4
X1.4291Y-0.8898
X1.4291Y-0.9898
X0.9409Y-0.815
X1.0409Y-0.815
X0.4646Y-1.2598
X0.5646Y-1.2598
X0.6646Y-1.2598
X0.7646Y-1.2598
X1.4252Y-1.1339
X1.2835Y-1.0354
X1.2835Y-1.1354
X0.9094Y-1.2598
X1.2835Y-0.8898
T5
X1.0106Y-0.9783
T6
X0.6102Y-1.1299
T0
M30
