%TF.GenerationSoftware,KiCad,Pcbnew,(5.1.6)-1*%
%TF.CreationDate,2020-10-15T17:46:37+08:00*%
%TF.ProjectId,Music_Player,4d757369-635f-4506-9c61-7965722e6b69,rev?*%
%TF.SameCoordinates,Original*%
%TF.FileFunction,Paste,Bot*%
%TF.FilePolarity,Positive*%
%FSLAX46Y46*%
G04 Gerber Fmt 4.6, Leading zero omitted, Abs format (unit mm)*
G04 Created by KiCad (PCBNEW (5.1.6)-1) date 2020-10-15 17:46:37*
%MOMM*%
%LPD*%
G01*
G04 APERTURE LIST*
%ADD10R,0.650000X1.560000*%
%ADD11R,0.900000X0.800000*%
G04 APERTURE END LIST*
D10*
%TO.C,U6*%
X12000000Y-20850000D03*
X11050000Y-20850000D03*
X12950000Y-20850000D03*
X12950000Y-18150000D03*
X12000000Y-18150000D03*
X11050000Y-18150000D03*
%TD*%
D11*
%TO.C,U1*%
X20500000Y-28300000D03*
X18500000Y-27350000D03*
X18500000Y-29250000D03*
%TD*%
%TO.C,R4*%
G36*
G01*
X35105000Y-15372500D02*
X35105000Y-15027500D01*
G75*
G02*
X35252500Y-14880000I147500J0D01*
G01*
X35547500Y-14880000D01*
G75*
G02*
X35695000Y-15027500I0J-147500D01*
G01*
X35695000Y-15372500D01*
G75*
G02*
X35547500Y-15520000I-147500J0D01*
G01*
X35252500Y-15520000D01*
G75*
G02*
X35105000Y-15372500I0J147500D01*
G01*
G37*
G36*
G01*
X34135000Y-15372500D02*
X34135000Y-15027500D01*
G75*
G02*
X34282500Y-14880000I147500J0D01*
G01*
X34577500Y-14880000D01*
G75*
G02*
X34725000Y-15027500I0J-147500D01*
G01*
X34725000Y-15372500D01*
G75*
G02*
X34577500Y-15520000I-147500J0D01*
G01*
X34282500Y-15520000D01*
G75*
G02*
X34135000Y-15372500I0J147500D01*
G01*
G37*
%TD*%
%TO.C,R3*%
G36*
G01*
X34710000Y-14027500D02*
X34710000Y-14372500D01*
G75*
G02*
X34562500Y-14520000I-147500J0D01*
G01*
X34267500Y-14520000D01*
G75*
G02*
X34120000Y-14372500I0J147500D01*
G01*
X34120000Y-14027500D01*
G75*
G02*
X34267500Y-13880000I147500J0D01*
G01*
X34562500Y-13880000D01*
G75*
G02*
X34710000Y-14027500I0J-147500D01*
G01*
G37*
G36*
G01*
X35680000Y-14027500D02*
X35680000Y-14372500D01*
G75*
G02*
X35532500Y-14520000I-147500J0D01*
G01*
X35237500Y-14520000D01*
G75*
G02*
X35090000Y-14372500I0J147500D01*
G01*
X35090000Y-14027500D01*
G75*
G02*
X35237500Y-13880000I147500J0D01*
G01*
X35532500Y-13880000D01*
G75*
G02*
X35680000Y-14027500I0J-147500D01*
G01*
G37*
%TD*%
%TO.C,R2*%
G36*
G01*
X35090000Y-19372500D02*
X35090000Y-19027500D01*
G75*
G02*
X35237500Y-18880000I147500J0D01*
G01*
X35532500Y-18880000D01*
G75*
G02*
X35680000Y-19027500I0J-147500D01*
G01*
X35680000Y-19372500D01*
G75*
G02*
X35532500Y-19520000I-147500J0D01*
G01*
X35237500Y-19520000D01*
G75*
G02*
X35090000Y-19372500I0J147500D01*
G01*
G37*
G36*
G01*
X34120000Y-19372500D02*
X34120000Y-19027500D01*
G75*
G02*
X34267500Y-18880000I147500J0D01*
G01*
X34562500Y-18880000D01*
G75*
G02*
X34710000Y-19027500I0J-147500D01*
G01*
X34710000Y-19372500D01*
G75*
G02*
X34562500Y-19520000I-147500J0D01*
G01*
X34267500Y-19520000D01*
G75*
G02*
X34120000Y-19372500I0J147500D01*
G01*
G37*
%TD*%
%TO.C,R1*%
G36*
G01*
X34975000Y-16872500D02*
X34975000Y-16527500D01*
G75*
G02*
X35122500Y-16380000I147500J0D01*
G01*
X35417500Y-16380000D01*
G75*
G02*
X35565000Y-16527500I0J-147500D01*
G01*
X35565000Y-16872500D01*
G75*
G02*
X35417500Y-17020000I-147500J0D01*
G01*
X35122500Y-17020000D01*
G75*
G02*
X34975000Y-16872500I0J147500D01*
G01*
G37*
G36*
G01*
X34005000Y-16872500D02*
X34005000Y-16527500D01*
G75*
G02*
X34152500Y-16380000I147500J0D01*
G01*
X34447500Y-16380000D01*
G75*
G02*
X34595000Y-16527500I0J-147500D01*
G01*
X34595000Y-16872500D01*
G75*
G02*
X34447500Y-17020000I-147500J0D01*
G01*
X34152500Y-17020000D01*
G75*
G02*
X34005000Y-16872500I0J147500D01*
G01*
G37*
%TD*%
%TO.C,Q2*%
X23800000Y-24800000D03*
X21800000Y-23850000D03*
X21800000Y-25750000D03*
%TD*%
%TO.C,Q1*%
X27300000Y-28200000D03*
X25300000Y-27250000D03*
X25300000Y-29150000D03*
%TD*%
%TO.C,D8*%
G36*
G01*
X20890000Y-21672500D02*
X20890000Y-21327500D01*
G75*
G02*
X21037500Y-21180000I147500J0D01*
G01*
X21332500Y-21180000D01*
G75*
G02*
X21480000Y-21327500I0J-147500D01*
G01*
X21480000Y-21672500D01*
G75*
G02*
X21332500Y-21820000I-147500J0D01*
G01*
X21037500Y-21820000D01*
G75*
G02*
X20890000Y-21672500I0J147500D01*
G01*
G37*
G36*
G01*
X19920000Y-21672500D02*
X19920000Y-21327500D01*
G75*
G02*
X20067500Y-21180000I147500J0D01*
G01*
X20362500Y-21180000D01*
G75*
G02*
X20510000Y-21327500I0J-147500D01*
G01*
X20510000Y-21672500D01*
G75*
G02*
X20362500Y-21820000I-147500J0D01*
G01*
X20067500Y-21820000D01*
G75*
G02*
X19920000Y-21672500I0J147500D01*
G01*
G37*
%TD*%
%TO.C,D7*%
G36*
G01*
X20510000Y-20327500D02*
X20510000Y-20672500D01*
G75*
G02*
X20362500Y-20820000I-147500J0D01*
G01*
X20067500Y-20820000D01*
G75*
G02*
X19920000Y-20672500I0J147500D01*
G01*
X19920000Y-20327500D01*
G75*
G02*
X20067500Y-20180000I147500J0D01*
G01*
X20362500Y-20180000D01*
G75*
G02*
X20510000Y-20327500I0J-147500D01*
G01*
G37*
G36*
G01*
X21480000Y-20327500D02*
X21480000Y-20672500D01*
G75*
G02*
X21332500Y-20820000I-147500J0D01*
G01*
X21037500Y-20820000D01*
G75*
G02*
X20890000Y-20672500I0J147500D01*
G01*
X20890000Y-20327500D01*
G75*
G02*
X21037500Y-20180000I147500J0D01*
G01*
X21332500Y-20180000D01*
G75*
G02*
X21480000Y-20327500I0J-147500D01*
G01*
G37*
%TD*%
%TO.C,D1*%
G36*
G01*
X34675000Y-10772500D02*
X34675000Y-10427500D01*
G75*
G02*
X34822500Y-10280000I147500J0D01*
G01*
X35117500Y-10280000D01*
G75*
G02*
X35265000Y-10427500I0J-147500D01*
G01*
X35265000Y-10772500D01*
G75*
G02*
X35117500Y-10920000I-147500J0D01*
G01*
X34822500Y-10920000D01*
G75*
G02*
X34675000Y-10772500I0J147500D01*
G01*
G37*
G36*
G01*
X33705000Y-10772500D02*
X33705000Y-10427500D01*
G75*
G02*
X33852500Y-10280000I147500J0D01*
G01*
X34147500Y-10280000D01*
G75*
G02*
X34295000Y-10427500I0J-147500D01*
G01*
X34295000Y-10772500D01*
G75*
G02*
X34147500Y-10920000I-147500J0D01*
G01*
X33852500Y-10920000D01*
G75*
G02*
X33705000Y-10772500I0J147500D01*
G01*
G37*
%TD*%
%TO.C,C11*%
G36*
G01*
X11825000Y-11725000D02*
X10575000Y-11725000D01*
G75*
G02*
X10325000Y-11475000I0J250000D01*
G01*
X10325000Y-10550000D01*
G75*
G02*
X10575000Y-10300000I250000J0D01*
G01*
X11825000Y-10300000D01*
G75*
G02*
X12075000Y-10550000I0J-250000D01*
G01*
X12075000Y-11475000D01*
G75*
G02*
X11825000Y-11725000I-250000J0D01*
G01*
G37*
G36*
G01*
X11825000Y-14700000D02*
X10575000Y-14700000D01*
G75*
G02*
X10325000Y-14450000I0J250000D01*
G01*
X10325000Y-13525000D01*
G75*
G02*
X10575000Y-13275000I250000J0D01*
G01*
X11825000Y-13275000D01*
G75*
G02*
X12075000Y-13525000I0J-250000D01*
G01*
X12075000Y-14450000D01*
G75*
G02*
X11825000Y-14700000I-250000J0D01*
G01*
G37*
%TD*%
%TO.C,C10*%
G36*
G01*
X22705000Y-11772500D02*
X22705000Y-11427500D01*
G75*
G02*
X22852500Y-11280000I147500J0D01*
G01*
X23147500Y-11280000D01*
G75*
G02*
X23295000Y-11427500I0J-147500D01*
G01*
X23295000Y-11772500D01*
G75*
G02*
X23147500Y-11920000I-147500J0D01*
G01*
X22852500Y-11920000D01*
G75*
G02*
X22705000Y-11772500I0J147500D01*
G01*
G37*
G36*
G01*
X21735000Y-11772500D02*
X21735000Y-11427500D01*
G75*
G02*
X21882500Y-11280000I147500J0D01*
G01*
X22177500Y-11280000D01*
G75*
G02*
X22325000Y-11427500I0J-147500D01*
G01*
X22325000Y-11772500D01*
G75*
G02*
X22177500Y-11920000I-147500J0D01*
G01*
X21882500Y-11920000D01*
G75*
G02*
X21735000Y-11772500I0J147500D01*
G01*
G37*
%TD*%
%TO.C,C9*%
G36*
G01*
X22675000Y-10772500D02*
X22675000Y-10427500D01*
G75*
G02*
X22822500Y-10280000I147500J0D01*
G01*
X23117500Y-10280000D01*
G75*
G02*
X23265000Y-10427500I0J-147500D01*
G01*
X23265000Y-10772500D01*
G75*
G02*
X23117500Y-10920000I-147500J0D01*
G01*
X22822500Y-10920000D01*
G75*
G02*
X22675000Y-10772500I0J147500D01*
G01*
G37*
G36*
G01*
X21705000Y-10772500D02*
X21705000Y-10427500D01*
G75*
G02*
X21852500Y-10280000I147500J0D01*
G01*
X22147500Y-10280000D01*
G75*
G02*
X22295000Y-10427500I0J-147500D01*
G01*
X22295000Y-10772500D01*
G75*
G02*
X22147500Y-10920000I-147500J0D01*
G01*
X21852500Y-10920000D01*
G75*
G02*
X21705000Y-10772500I0J147500D01*
G01*
G37*
%TD*%
%TO.C,C6*%
G36*
G01*
X22690000Y-16072500D02*
X22690000Y-15727500D01*
G75*
G02*
X22837500Y-15580000I147500J0D01*
G01*
X23132500Y-15580000D01*
G75*
G02*
X23280000Y-15727500I0J-147500D01*
G01*
X23280000Y-16072500D01*
G75*
G02*
X23132500Y-16220000I-147500J0D01*
G01*
X22837500Y-16220000D01*
G75*
G02*
X22690000Y-16072500I0J147500D01*
G01*
G37*
G36*
G01*
X21720000Y-16072500D02*
X21720000Y-15727500D01*
G75*
G02*
X21867500Y-15580000I147500J0D01*
G01*
X22162500Y-15580000D01*
G75*
G02*
X22310000Y-15727500I0J-147500D01*
G01*
X22310000Y-16072500D01*
G75*
G02*
X22162500Y-16220000I-147500J0D01*
G01*
X21867500Y-16220000D01*
G75*
G02*
X21720000Y-16072500I0J147500D01*
G01*
G37*
%TD*%
%TO.C,C5*%
G36*
G01*
X22690000Y-15072500D02*
X22690000Y-14727500D01*
G75*
G02*
X22837500Y-14580000I147500J0D01*
G01*
X23132500Y-14580000D01*
G75*
G02*
X23280000Y-14727500I0J-147500D01*
G01*
X23280000Y-15072500D01*
G75*
G02*
X23132500Y-15220000I-147500J0D01*
G01*
X22837500Y-15220000D01*
G75*
G02*
X22690000Y-15072500I0J147500D01*
G01*
G37*
G36*
G01*
X21720000Y-15072500D02*
X21720000Y-14727500D01*
G75*
G02*
X21867500Y-14580000I147500J0D01*
G01*
X22162500Y-14580000D01*
G75*
G02*
X22310000Y-14727500I0J-147500D01*
G01*
X22310000Y-15072500D01*
G75*
G02*
X22162500Y-15220000I-147500J0D01*
G01*
X21867500Y-15220000D01*
G75*
G02*
X21720000Y-15072500I0J147500D01*
G01*
G37*
%TD*%
%TO.C,C1*%
G36*
G01*
X23772500Y-27710000D02*
X23427500Y-27710000D01*
G75*
G02*
X23280000Y-27562500I0J147500D01*
G01*
X23280000Y-27267500D01*
G75*
G02*
X23427500Y-27120000I147500J0D01*
G01*
X23772500Y-27120000D01*
G75*
G02*
X23920000Y-27267500I0J-147500D01*
G01*
X23920000Y-27562500D01*
G75*
G02*
X23772500Y-27710000I-147500J0D01*
G01*
G37*
G36*
G01*
X23772500Y-28680000D02*
X23427500Y-28680000D01*
G75*
G02*
X23280000Y-28532500I0J147500D01*
G01*
X23280000Y-28237500D01*
G75*
G02*
X23427500Y-28090000I147500J0D01*
G01*
X23772500Y-28090000D01*
G75*
G02*
X23920000Y-28237500I0J-147500D01*
G01*
X23920000Y-28532500D01*
G75*
G02*
X23772500Y-28680000I-147500J0D01*
G01*
G37*
%TD*%
M02*
