%TF.GenerationSoftware,KiCad,Pcbnew,(5.1.6)-1*%
%TF.CreationDate,2020-10-15T17:46:37+08:00*%
%TF.ProjectId,Music_Player,4d757369-635f-4506-9c61-7965722e6b69,rev?*%
%TF.SameCoordinates,Original*%
%TF.FileFunction,Copper,L2,Inr*%
%TF.FilePolarity,Positive*%
%FSLAX46Y46*%
G04 Gerber Fmt 4.6, Leading zero omitted, Abs format (unit mm)*
G04 Created by KiCad (PCBNEW (5.1.6)-1) date 2020-10-15 17:46:37*
%MOMM*%
%LPD*%
G01*
G04 APERTURE LIST*
%TA.AperFunction,ViaPad*%
%ADD10C,0.320000*%
%TD*%
%TA.AperFunction,ViaPad*%
%ADD11O,1.600000X1.600000*%
%TD*%
%TA.AperFunction,ViaPad*%
%ADD12R,1.600000X1.600000*%
%TD*%
%TA.AperFunction,ViaPad*%
%ADD13R,1.700000X1.700000*%
%TD*%
%TA.AperFunction,ViaPad*%
%ADD14O,1.700000X1.700000*%
%TD*%
%TA.AperFunction,ViaPad*%
%ADD15C,1.600000*%
%TD*%
%TA.AperFunction,ViaPad*%
%ADD16R,2.700000X2.700000*%
%TD*%
%TA.AperFunction,ViaPad*%
%ADD17C,0.800000*%
%TD*%
%TA.AperFunction,Conductor*%
%ADD18C,0.254000*%
%TD*%
G04 APERTURE END LIST*
D10*
%TO.N,Net-(U2-Pad2)*%
%TO.C,Y1*%
X21700000Y-19300000D03*
%TO.N,Net-(U2-Pad1)*%
X21000000Y-19300000D03*
%TD*%
D11*
%TO.N,+3V3*%
%TO.C,U2*%
X37020000Y-11600000D03*
%TO.N,GND*%
X29400000Y-19220000D03*
%TO.N,/RTC_OUT*%
X37020000Y-14140000D03*
%TO.N,Net-(BT1-Pad1)*%
X29400000Y-16680000D03*
%TO.N,Net-(J1-Pad2)*%
X37020000Y-16680000D03*
%TO.N,Net-(U2-Pad2)*%
X29400000Y-14140000D03*
%TO.N,Net-(J1-Pad1)*%
X37020000Y-19220000D03*
D12*
%TO.N,Net-(U2-Pad1)*%
X29400000Y-11600000D03*
%TD*%
D13*
%TO.N,/RTC_OUT*%
%TO.C,J7*%
X32600000Y-22600000D03*
%TD*%
%TO.N,+3V3*%
%TO.C,J6*%
X36200000Y-28800000D03*
%TD*%
%TO.N,CVDD*%
%TO.C,J5*%
X23100000Y-32000000D03*
%TD*%
D14*
%TO.N,/BAT_D1*%
%TO.C,J4*%
X19420000Y-32000000D03*
%TO.N,/BAT_D2*%
X16880000Y-32000000D03*
%TO.N,/BAT_D3*%
X14340000Y-32000000D03*
D13*
%TO.N,/BAT_D4*%
X11800000Y-32000000D03*
%TD*%
D14*
%TO.N,GND*%
%TO.C,J3*%
X36300000Y-25140000D03*
D13*
%TO.N,VBUS*%
X36300000Y-22600000D03*
%TD*%
D14*
%TO.N,GND*%
%TO.C,J2*%
X32600000Y-28840000D03*
D13*
%TO.N,/bat_+*%
X32600000Y-26300000D03*
%TD*%
D14*
%TO.N,Net-(J1-Pad2)*%
%TO.C,J1*%
X26440000Y-20700000D03*
D13*
%TO.N,Net-(J1-Pad1)*%
X23900000Y-20700000D03*
%TD*%
D15*
%TO.N,GND*%
%TO.C,BT1*%
X25670000Y-24850000D03*
D16*
%TO.N,Net-(BT1-Pad1)*%
X15500000Y-28700000D03*
%TD*%
D17*
%TO.N,GND*%
X17371185Y-14434078D03*
X27700000Y-12900000D03*
X18400000Y-25900000D03*
%TO.N,+3V3*%
X24900000Y-13700000D03*
%TO.N,CVDD*%
X15400000Y-21400000D03*
%TO.N,/BAT_PWR*%
X23000000Y-26100000D03*
X20600000Y-11600004D03*
X19900000Y-13700000D03*
%TO.N,Net-(D1-Pad2)*%
X33700000Y-15500000D03*
X34200000Y-11700000D03*
%TO.N,+5V*%
X21100000Y-16575000D03*
%TO.N,Net-(L1-Pad2)*%
X12600000Y-15800000D03*
X17300000Y-11699996D03*
%TO.N,/BAT+*%
X21600000Y-28900000D03*
X24305154Y-23605154D03*
%TO.N,Net-(C3-Pad2)*%
X21300000Y-12900000D03*
X17300000Y-17200000D03*
%TO.N,Net-(C5-Pad1)*%
X22157500Y-13557500D03*
%TO.N,Net-(J1-Pad2)*%
X33000000Y-17000000D03*
X35500000Y-17800000D03*
%TD*%
D18*
%TO.N,GND*%
G36*
X20109744Y-10682799D02*
G01*
X19940226Y-10796067D01*
X19796063Y-10940230D01*
X19682795Y-11109748D01*
X19604774Y-11298106D01*
X19565000Y-11498065D01*
X19565000Y-11701943D01*
X19604774Y-11901902D01*
X19682795Y-12090260D01*
X19796063Y-12259778D01*
X19940226Y-12403941D01*
X20109744Y-12517209D01*
X20298102Y-12595230D01*
X20305365Y-12596675D01*
X20304774Y-12598102D01*
X20277340Y-12736023D01*
X20201898Y-12704774D01*
X20001939Y-12665000D01*
X19798061Y-12665000D01*
X19598102Y-12704774D01*
X19409744Y-12782795D01*
X19240226Y-12896063D01*
X19096063Y-13040226D01*
X18982795Y-13209744D01*
X18904774Y-13398102D01*
X18865000Y-13598061D01*
X18865000Y-13801939D01*
X18904774Y-14001898D01*
X18982795Y-14190256D01*
X19096063Y-14359774D01*
X19240226Y-14503937D01*
X19409744Y-14617205D01*
X19598102Y-14695226D01*
X19798061Y-14735000D01*
X20001939Y-14735000D01*
X20201898Y-14695226D01*
X20390256Y-14617205D01*
X20559774Y-14503937D01*
X20703937Y-14359774D01*
X20817205Y-14190256D01*
X20895226Y-14001898D01*
X20922660Y-13863977D01*
X20998102Y-13895226D01*
X21193188Y-13934031D01*
X21240295Y-14047756D01*
X21353563Y-14217274D01*
X21497726Y-14361437D01*
X21667244Y-14474705D01*
X21855602Y-14552726D01*
X22055561Y-14592500D01*
X22259439Y-14592500D01*
X22459398Y-14552726D01*
X22647756Y-14474705D01*
X22817274Y-14361437D01*
X22961437Y-14217274D01*
X23074705Y-14047756D01*
X23152726Y-13859398D01*
X23192500Y-13659439D01*
X23192500Y-13598061D01*
X23865000Y-13598061D01*
X23865000Y-13801939D01*
X23904774Y-14001898D01*
X23982795Y-14190256D01*
X24096063Y-14359774D01*
X24240226Y-14503937D01*
X24409744Y-14617205D01*
X24598102Y-14695226D01*
X24798061Y-14735000D01*
X25001939Y-14735000D01*
X25201898Y-14695226D01*
X25390256Y-14617205D01*
X25559774Y-14503937D01*
X25703937Y-14359774D01*
X25817205Y-14190256D01*
X25895226Y-14001898D01*
X25935000Y-13801939D01*
X25935000Y-13598061D01*
X25895226Y-13398102D01*
X25817205Y-13209744D01*
X25703937Y-13040226D01*
X25559774Y-12896063D01*
X25390256Y-12782795D01*
X25201898Y-12704774D01*
X25001939Y-12665000D01*
X24798061Y-12665000D01*
X24598102Y-12704774D01*
X24409744Y-12782795D01*
X24240226Y-12896063D01*
X24096063Y-13040226D01*
X23982795Y-13209744D01*
X23904774Y-13398102D01*
X23865000Y-13598061D01*
X23192500Y-13598061D01*
X23192500Y-13455561D01*
X23152726Y-13255602D01*
X23074705Y-13067244D01*
X22961437Y-12897726D01*
X22817274Y-12753563D01*
X22647756Y-12640295D01*
X22459398Y-12562274D01*
X22264312Y-12523469D01*
X22217205Y-12409744D01*
X22103937Y-12240226D01*
X21959774Y-12096063D01*
X21790256Y-11982795D01*
X21601898Y-11904774D01*
X21594635Y-11903329D01*
X21595226Y-11901902D01*
X21635000Y-11701943D01*
X21635000Y-11498065D01*
X21595226Y-11298106D01*
X21517205Y-11109748D01*
X21403937Y-10940230D01*
X21259774Y-10796067D01*
X21090256Y-10682799D01*
X21035215Y-10660000D01*
X27978895Y-10660000D01*
X27974188Y-10675518D01*
X27961928Y-10800000D01*
X27961928Y-12400000D01*
X27974188Y-12524482D01*
X28010498Y-12644180D01*
X28069463Y-12754494D01*
X28148815Y-12851185D01*
X28245506Y-12930537D01*
X28355820Y-12989502D01*
X28475518Y-13025812D01*
X28483961Y-13026643D01*
X28285363Y-13225241D01*
X28128320Y-13460273D01*
X28020147Y-13721426D01*
X27965000Y-13998665D01*
X27965000Y-14281335D01*
X28020147Y-14558574D01*
X28128320Y-14819727D01*
X28285363Y-15054759D01*
X28485241Y-15254637D01*
X28717759Y-15410000D01*
X28485241Y-15565363D01*
X28285363Y-15765241D01*
X28128320Y-16000273D01*
X28020147Y-16261426D01*
X27965000Y-16538665D01*
X27965000Y-16821335D01*
X28020147Y-17098574D01*
X28128320Y-17359727D01*
X28285363Y-17594759D01*
X28485241Y-17794637D01*
X28720273Y-17951680D01*
X28730865Y-17956067D01*
X28544869Y-18067615D01*
X28336481Y-18256586D01*
X28168963Y-18482580D01*
X28048754Y-18736913D01*
X28008096Y-18870961D01*
X28130085Y-19093000D01*
X29273000Y-19093000D01*
X29273000Y-19073000D01*
X29527000Y-19073000D01*
X29527000Y-19093000D01*
X30669915Y-19093000D01*
X30791904Y-18870961D01*
X30751246Y-18736913D01*
X30631037Y-18482580D01*
X30463519Y-18256586D01*
X30255131Y-18067615D01*
X30069135Y-17956067D01*
X30079727Y-17951680D01*
X30314759Y-17794637D01*
X30514637Y-17594759D01*
X30671680Y-17359727D01*
X30779853Y-17098574D01*
X30819738Y-16898061D01*
X31965000Y-16898061D01*
X31965000Y-17101939D01*
X32004774Y-17301898D01*
X32082795Y-17490256D01*
X32196063Y-17659774D01*
X32340226Y-17803937D01*
X32509744Y-17917205D01*
X32698102Y-17995226D01*
X32898061Y-18035000D01*
X33101939Y-18035000D01*
X33301898Y-17995226D01*
X33490256Y-17917205D01*
X33659774Y-17803937D01*
X33803937Y-17659774D01*
X33917205Y-17490256D01*
X33995226Y-17301898D01*
X34035000Y-17101939D01*
X34035000Y-16898061D01*
X33995226Y-16698102D01*
X33918096Y-16511895D01*
X34001898Y-16495226D01*
X34190256Y-16417205D01*
X34359774Y-16303937D01*
X34503937Y-16159774D01*
X34617205Y-15990256D01*
X34695226Y-15801898D01*
X34735000Y-15601939D01*
X34735000Y-15398061D01*
X34695226Y-15198102D01*
X34617205Y-15009744D01*
X34503937Y-14840226D01*
X34359774Y-14696063D01*
X34190256Y-14582795D01*
X34001898Y-14504774D01*
X33801939Y-14465000D01*
X33598061Y-14465000D01*
X33398102Y-14504774D01*
X33209744Y-14582795D01*
X33040226Y-14696063D01*
X32896063Y-14840226D01*
X32782795Y-15009744D01*
X32704774Y-15198102D01*
X32665000Y-15398061D01*
X32665000Y-15601939D01*
X32704774Y-15801898D01*
X32781904Y-15988105D01*
X32698102Y-16004774D01*
X32509744Y-16082795D01*
X32340226Y-16196063D01*
X32196063Y-16340226D01*
X32082795Y-16509744D01*
X32004774Y-16698102D01*
X31965000Y-16898061D01*
X30819738Y-16898061D01*
X30835000Y-16821335D01*
X30835000Y-16538665D01*
X30779853Y-16261426D01*
X30671680Y-16000273D01*
X30514637Y-15765241D01*
X30314759Y-15565363D01*
X30082241Y-15410000D01*
X30314759Y-15254637D01*
X30514637Y-15054759D01*
X30671680Y-14819727D01*
X30779853Y-14558574D01*
X30835000Y-14281335D01*
X30835000Y-13998665D01*
X30779853Y-13721426D01*
X30671680Y-13460273D01*
X30514637Y-13225241D01*
X30316039Y-13026643D01*
X30324482Y-13025812D01*
X30444180Y-12989502D01*
X30554494Y-12930537D01*
X30651185Y-12851185D01*
X30730537Y-12754494D01*
X30789502Y-12644180D01*
X30825812Y-12524482D01*
X30838072Y-12400000D01*
X30838072Y-11598061D01*
X33165000Y-11598061D01*
X33165000Y-11801939D01*
X33204774Y-12001898D01*
X33282795Y-12190256D01*
X33396063Y-12359774D01*
X33540226Y-12503937D01*
X33709744Y-12617205D01*
X33898102Y-12695226D01*
X34098061Y-12735000D01*
X34301939Y-12735000D01*
X34501898Y-12695226D01*
X34690256Y-12617205D01*
X34859774Y-12503937D01*
X35003937Y-12359774D01*
X35117205Y-12190256D01*
X35195226Y-12001898D01*
X35235000Y-11801939D01*
X35235000Y-11598061D01*
X35195226Y-11398102D01*
X35117205Y-11209744D01*
X35003937Y-11040226D01*
X34859774Y-10896063D01*
X34690256Y-10782795D01*
X34501898Y-10704774D01*
X34301939Y-10665000D01*
X34098061Y-10665000D01*
X33898102Y-10704774D01*
X33709744Y-10782795D01*
X33540226Y-10896063D01*
X33396063Y-11040226D01*
X33282795Y-11209744D01*
X33204774Y-11398102D01*
X33165000Y-11598061D01*
X30838072Y-11598061D01*
X30838072Y-10800000D01*
X30825812Y-10675518D01*
X30821105Y-10660000D01*
X35930604Y-10660000D01*
X35905363Y-10685241D01*
X35748320Y-10920273D01*
X35640147Y-11181426D01*
X35585000Y-11458665D01*
X35585000Y-11741335D01*
X35640147Y-12018574D01*
X35748320Y-12279727D01*
X35905363Y-12514759D01*
X36105241Y-12714637D01*
X36337759Y-12870000D01*
X36105241Y-13025363D01*
X35905363Y-13225241D01*
X35748320Y-13460273D01*
X35640147Y-13721426D01*
X35585000Y-13998665D01*
X35585000Y-14281335D01*
X35640147Y-14558574D01*
X35748320Y-14819727D01*
X35905363Y-15054759D01*
X36105241Y-15254637D01*
X36337759Y-15410000D01*
X36105241Y-15565363D01*
X35905363Y-15765241D01*
X35748320Y-16000273D01*
X35640147Y-16261426D01*
X35585000Y-16538665D01*
X35585000Y-16765000D01*
X35398061Y-16765000D01*
X35198102Y-16804774D01*
X35009744Y-16882795D01*
X34840226Y-16996063D01*
X34696063Y-17140226D01*
X34582795Y-17309744D01*
X34504774Y-17498102D01*
X34465000Y-17698061D01*
X34465000Y-17901939D01*
X34504774Y-18101898D01*
X34582795Y-18290256D01*
X34696063Y-18459774D01*
X34840226Y-18603937D01*
X35009744Y-18717205D01*
X35198102Y-18795226D01*
X35398061Y-18835000D01*
X35601939Y-18835000D01*
X35634768Y-18828470D01*
X35585000Y-19078665D01*
X35585000Y-19361335D01*
X35640147Y-19638574D01*
X35748320Y-19899727D01*
X35905363Y-20134759D01*
X36105241Y-20334637D01*
X36340273Y-20491680D01*
X36601426Y-20599853D01*
X36878665Y-20655000D01*
X37161335Y-20655000D01*
X37438574Y-20599853D01*
X37640000Y-20516420D01*
X37640000Y-21346112D01*
X37601185Y-21298815D01*
X37504494Y-21219463D01*
X37394180Y-21160498D01*
X37274482Y-21124188D01*
X37150000Y-21111928D01*
X35450000Y-21111928D01*
X35325518Y-21124188D01*
X35205820Y-21160498D01*
X35095506Y-21219463D01*
X34998815Y-21298815D01*
X34919463Y-21395506D01*
X34860498Y-21505820D01*
X34824188Y-21625518D01*
X34811928Y-21750000D01*
X34811928Y-23450000D01*
X34824188Y-23574482D01*
X34860498Y-23694180D01*
X34919463Y-23804494D01*
X34998815Y-23901185D01*
X35095506Y-23980537D01*
X35205820Y-24039502D01*
X35286466Y-24063966D01*
X35202412Y-24139731D01*
X35028359Y-24373080D01*
X34903175Y-24635901D01*
X34858524Y-24783110D01*
X34979845Y-25013000D01*
X36173000Y-25013000D01*
X36173000Y-24993000D01*
X36427000Y-24993000D01*
X36427000Y-25013000D01*
X36447000Y-25013000D01*
X36447000Y-25267000D01*
X36427000Y-25267000D01*
X36427000Y-26460814D01*
X36656891Y-26581481D01*
X36931252Y-26484157D01*
X37181355Y-26335178D01*
X37397588Y-26140269D01*
X37571641Y-25906920D01*
X37640001Y-25763400D01*
X37640001Y-27707464D01*
X37639502Y-27705820D01*
X37580537Y-27595506D01*
X37501185Y-27498815D01*
X37404494Y-27419463D01*
X37294180Y-27360498D01*
X37174482Y-27324188D01*
X37050000Y-27311928D01*
X35350000Y-27311928D01*
X35225518Y-27324188D01*
X35105820Y-27360498D01*
X34995506Y-27419463D01*
X34898815Y-27498815D01*
X34819463Y-27595506D01*
X34760498Y-27705820D01*
X34724188Y-27825518D01*
X34711928Y-27950000D01*
X34711928Y-29650000D01*
X34724188Y-29774482D01*
X34760498Y-29894180D01*
X34819463Y-30004494D01*
X34898815Y-30101185D01*
X34995506Y-30180537D01*
X35105820Y-30239502D01*
X35225518Y-30275812D01*
X35350000Y-30288072D01*
X37050000Y-30288072D01*
X37174482Y-30275812D01*
X37294180Y-30239502D01*
X37404494Y-30180537D01*
X37501185Y-30101185D01*
X37580537Y-30004494D01*
X37639502Y-29894180D01*
X37640001Y-29892536D01*
X37640001Y-33140000D01*
X24515010Y-33140000D01*
X24539502Y-33094180D01*
X24575812Y-32974482D01*
X24588072Y-32850000D01*
X24588072Y-31150000D01*
X24575812Y-31025518D01*
X24539502Y-30905820D01*
X24480537Y-30795506D01*
X24401185Y-30698815D01*
X24304494Y-30619463D01*
X24194180Y-30560498D01*
X24074482Y-30524188D01*
X23950000Y-30511928D01*
X22250000Y-30511928D01*
X22125518Y-30524188D01*
X22005820Y-30560498D01*
X21895506Y-30619463D01*
X21798815Y-30698815D01*
X21719463Y-30795506D01*
X21660498Y-30905820D01*
X21624188Y-31025518D01*
X21611928Y-31150000D01*
X21611928Y-32850000D01*
X21624188Y-32974482D01*
X21660498Y-33094180D01*
X21684990Y-33140000D01*
X20380107Y-33140000D01*
X20573475Y-32946632D01*
X20735990Y-32703411D01*
X20847932Y-32433158D01*
X20905000Y-32146260D01*
X20905000Y-31853740D01*
X20847932Y-31566842D01*
X20735990Y-31296589D01*
X20573475Y-31053368D01*
X20366632Y-30846525D01*
X20123411Y-30684010D01*
X19853158Y-30572068D01*
X19566260Y-30515000D01*
X19273740Y-30515000D01*
X18986842Y-30572068D01*
X18716589Y-30684010D01*
X18473368Y-30846525D01*
X18266525Y-31053368D01*
X18150000Y-31227760D01*
X18033475Y-31053368D01*
X17826632Y-30846525D01*
X17583411Y-30684010D01*
X17313158Y-30572068D01*
X17234000Y-30556322D01*
X17301185Y-30501185D01*
X17380537Y-30404494D01*
X17439502Y-30294180D01*
X17475812Y-30174482D01*
X17488072Y-30050000D01*
X17488072Y-28798061D01*
X20565000Y-28798061D01*
X20565000Y-29001939D01*
X20604774Y-29201898D01*
X20682795Y-29390256D01*
X20796063Y-29559774D01*
X20940226Y-29703937D01*
X21109744Y-29817205D01*
X21298102Y-29895226D01*
X21498061Y-29935000D01*
X21701939Y-29935000D01*
X21901898Y-29895226D01*
X22090256Y-29817205D01*
X22259774Y-29703937D01*
X22403937Y-29559774D01*
X22517205Y-29390256D01*
X22595226Y-29201898D01*
X22596222Y-29196890D01*
X31158524Y-29196890D01*
X31203175Y-29344099D01*
X31328359Y-29606920D01*
X31502412Y-29840269D01*
X31718645Y-30035178D01*
X31968748Y-30184157D01*
X32243109Y-30281481D01*
X32473000Y-30160814D01*
X32473000Y-28967000D01*
X32727000Y-28967000D01*
X32727000Y-30160814D01*
X32956891Y-30281481D01*
X33231252Y-30184157D01*
X33481355Y-30035178D01*
X33697588Y-29840269D01*
X33871641Y-29606920D01*
X33996825Y-29344099D01*
X34041476Y-29196890D01*
X33920155Y-28967000D01*
X32727000Y-28967000D01*
X32473000Y-28967000D01*
X31279845Y-28967000D01*
X31158524Y-29196890D01*
X22596222Y-29196890D01*
X22635000Y-29001939D01*
X22635000Y-28798061D01*
X22595226Y-28598102D01*
X22517205Y-28409744D01*
X22403937Y-28240226D01*
X22259774Y-28096063D01*
X22090256Y-27982795D01*
X21901898Y-27904774D01*
X21701939Y-27865000D01*
X21498061Y-27865000D01*
X21298102Y-27904774D01*
X21109744Y-27982795D01*
X20940226Y-28096063D01*
X20796063Y-28240226D01*
X20682795Y-28409744D01*
X20604774Y-28598102D01*
X20565000Y-28798061D01*
X17488072Y-28798061D01*
X17488072Y-27350000D01*
X17475812Y-27225518D01*
X17439502Y-27105820D01*
X17380537Y-26995506D01*
X17301185Y-26898815D01*
X17204494Y-26819463D01*
X17094180Y-26760498D01*
X16974482Y-26724188D01*
X16850000Y-26711928D01*
X14150000Y-26711928D01*
X14025518Y-26724188D01*
X13905820Y-26760498D01*
X13795506Y-26819463D01*
X13698815Y-26898815D01*
X13619463Y-26995506D01*
X13560498Y-27105820D01*
X13524188Y-27225518D01*
X13511928Y-27350000D01*
X13511928Y-30050000D01*
X13524188Y-30174482D01*
X13560498Y-30294180D01*
X13619463Y-30404494D01*
X13698815Y-30501185D01*
X13795506Y-30580537D01*
X13835188Y-30601748D01*
X13636589Y-30684010D01*
X13393368Y-30846525D01*
X13261513Y-30978380D01*
X13239502Y-30905820D01*
X13180537Y-30795506D01*
X13101185Y-30698815D01*
X13004494Y-30619463D01*
X12894180Y-30560498D01*
X12774482Y-30524188D01*
X12650000Y-30511928D01*
X10950000Y-30511928D01*
X10825518Y-30524188D01*
X10705820Y-30560498D01*
X10660000Y-30584990D01*
X10660000Y-25998061D01*
X21965000Y-25998061D01*
X21965000Y-26201939D01*
X22004774Y-26401898D01*
X22082795Y-26590256D01*
X22196063Y-26759774D01*
X22340226Y-26903937D01*
X22509744Y-27017205D01*
X22698102Y-27095226D01*
X22898061Y-27135000D01*
X23101939Y-27135000D01*
X23301898Y-27095226D01*
X23490256Y-27017205D01*
X23659774Y-26903937D01*
X23803937Y-26759774D01*
X23917205Y-26590256D01*
X23995226Y-26401898D01*
X24035000Y-26201939D01*
X24035000Y-25998061D01*
X24004098Y-25842702D01*
X24856903Y-25842702D01*
X24928486Y-26086671D01*
X25183996Y-26207571D01*
X25458184Y-26276300D01*
X25740512Y-26290217D01*
X26020130Y-26248787D01*
X26286292Y-26153603D01*
X26411514Y-26086671D01*
X26483097Y-25842702D01*
X25670000Y-25029605D01*
X24856903Y-25842702D01*
X24004098Y-25842702D01*
X23995226Y-25798102D01*
X23917205Y-25609744D01*
X23803937Y-25440226D01*
X23659774Y-25296063D01*
X23490256Y-25182795D01*
X23301898Y-25104774D01*
X23101939Y-25065000D01*
X22898061Y-25065000D01*
X22698102Y-25104774D01*
X22509744Y-25182795D01*
X22340226Y-25296063D01*
X22196063Y-25440226D01*
X22082795Y-25609744D01*
X22004774Y-25798102D01*
X21965000Y-25998061D01*
X10660000Y-25998061D01*
X10660000Y-23503215D01*
X23270154Y-23503215D01*
X23270154Y-23707093D01*
X23309928Y-23907052D01*
X23387949Y-24095410D01*
X23501217Y-24264928D01*
X23645380Y-24409091D01*
X23814898Y-24522359D01*
X24003256Y-24600380D01*
X24203215Y-24640154D01*
X24243603Y-24640154D01*
X24229783Y-24920512D01*
X24271213Y-25200130D01*
X24366397Y-25466292D01*
X24433329Y-25591514D01*
X24677298Y-25663097D01*
X25490395Y-24850000D01*
X25849605Y-24850000D01*
X26662702Y-25663097D01*
X26906671Y-25591514D01*
X26973631Y-25450000D01*
X31111928Y-25450000D01*
X31111928Y-27150000D01*
X31124188Y-27274482D01*
X31160498Y-27394180D01*
X31219463Y-27504494D01*
X31298815Y-27601185D01*
X31395506Y-27680537D01*
X31505820Y-27739502D01*
X31586466Y-27763966D01*
X31502412Y-27839731D01*
X31328359Y-28073080D01*
X31203175Y-28335901D01*
X31158524Y-28483110D01*
X31279845Y-28713000D01*
X32473000Y-28713000D01*
X32473000Y-28693000D01*
X32727000Y-28693000D01*
X32727000Y-28713000D01*
X33920155Y-28713000D01*
X34041476Y-28483110D01*
X33996825Y-28335901D01*
X33871641Y-28073080D01*
X33697588Y-27839731D01*
X33613534Y-27763966D01*
X33694180Y-27739502D01*
X33804494Y-27680537D01*
X33901185Y-27601185D01*
X33980537Y-27504494D01*
X34039502Y-27394180D01*
X34075812Y-27274482D01*
X34088072Y-27150000D01*
X34088072Y-25496890D01*
X34858524Y-25496890D01*
X34903175Y-25644099D01*
X35028359Y-25906920D01*
X35202412Y-26140269D01*
X35418645Y-26335178D01*
X35668748Y-26484157D01*
X35943109Y-26581481D01*
X36173000Y-26460814D01*
X36173000Y-25267000D01*
X34979845Y-25267000D01*
X34858524Y-25496890D01*
X34088072Y-25496890D01*
X34088072Y-25450000D01*
X34075812Y-25325518D01*
X34039502Y-25205820D01*
X33980537Y-25095506D01*
X33901185Y-24998815D01*
X33804494Y-24919463D01*
X33694180Y-24860498D01*
X33574482Y-24824188D01*
X33450000Y-24811928D01*
X31750000Y-24811928D01*
X31625518Y-24824188D01*
X31505820Y-24860498D01*
X31395506Y-24919463D01*
X31298815Y-24998815D01*
X31219463Y-25095506D01*
X31160498Y-25205820D01*
X31124188Y-25325518D01*
X31111928Y-25450000D01*
X26973631Y-25450000D01*
X27027571Y-25336004D01*
X27096300Y-25061816D01*
X27110217Y-24779488D01*
X27068787Y-24499870D01*
X26973603Y-24233708D01*
X26906671Y-24108486D01*
X26662702Y-24036903D01*
X25849605Y-24850000D01*
X25490395Y-24850000D01*
X25476253Y-24835858D01*
X25655858Y-24656253D01*
X25670000Y-24670395D01*
X26483097Y-23857298D01*
X26411514Y-23613329D01*
X26156004Y-23492429D01*
X25881816Y-23423700D01*
X25599488Y-23409783D01*
X25329526Y-23449782D01*
X25300380Y-23303256D01*
X25222359Y-23114898D01*
X25109091Y-22945380D01*
X24964928Y-22801217D01*
X24795410Y-22687949D01*
X24607052Y-22609928D01*
X24407093Y-22570154D01*
X24203215Y-22570154D01*
X24003256Y-22609928D01*
X23814898Y-22687949D01*
X23645380Y-22801217D01*
X23501217Y-22945380D01*
X23387949Y-23114898D01*
X23309928Y-23303256D01*
X23270154Y-23503215D01*
X10660000Y-23503215D01*
X10660000Y-21298061D01*
X14365000Y-21298061D01*
X14365000Y-21501939D01*
X14404774Y-21701898D01*
X14482795Y-21890256D01*
X14596063Y-22059774D01*
X14740226Y-22203937D01*
X14909744Y-22317205D01*
X15098102Y-22395226D01*
X15298061Y-22435000D01*
X15501939Y-22435000D01*
X15701898Y-22395226D01*
X15890256Y-22317205D01*
X16059774Y-22203937D01*
X16203937Y-22059774D01*
X16317205Y-21890256D01*
X16395226Y-21701898D01*
X16435000Y-21501939D01*
X16435000Y-21298061D01*
X16395226Y-21098102D01*
X16317205Y-20909744D01*
X16203937Y-20740226D01*
X16059774Y-20596063D01*
X15890256Y-20482795D01*
X15701898Y-20404774D01*
X15501939Y-20365000D01*
X15298061Y-20365000D01*
X15098102Y-20404774D01*
X14909744Y-20482795D01*
X14740226Y-20596063D01*
X14596063Y-20740226D01*
X14482795Y-20909744D01*
X14404774Y-21098102D01*
X14365000Y-21298061D01*
X10660000Y-21298061D01*
X10660000Y-19221699D01*
X20205000Y-19221699D01*
X20205000Y-19378301D01*
X20235551Y-19531893D01*
X20295480Y-19676574D01*
X20382483Y-19806783D01*
X20493217Y-19917517D01*
X20623426Y-20004520D01*
X20768107Y-20064449D01*
X20921699Y-20095000D01*
X21078301Y-20095000D01*
X21231893Y-20064449D01*
X21350000Y-20015527D01*
X21468107Y-20064449D01*
X21621699Y-20095000D01*
X21778301Y-20095000D01*
X21931893Y-20064449D01*
X22076574Y-20004520D01*
X22206783Y-19917517D01*
X22274300Y-19850000D01*
X22411928Y-19850000D01*
X22411928Y-21550000D01*
X22424188Y-21674482D01*
X22460498Y-21794180D01*
X22519463Y-21904494D01*
X22598815Y-22001185D01*
X22695506Y-22080537D01*
X22805820Y-22139502D01*
X22925518Y-22175812D01*
X23050000Y-22188072D01*
X24750000Y-22188072D01*
X24874482Y-22175812D01*
X24994180Y-22139502D01*
X25104494Y-22080537D01*
X25201185Y-22001185D01*
X25280537Y-21904494D01*
X25339502Y-21794180D01*
X25361513Y-21721620D01*
X25493368Y-21853475D01*
X25736589Y-22015990D01*
X26006842Y-22127932D01*
X26293740Y-22185000D01*
X26586260Y-22185000D01*
X26873158Y-22127932D01*
X27143411Y-22015990D01*
X27386632Y-21853475D01*
X27490107Y-21750000D01*
X31111928Y-21750000D01*
X31111928Y-23450000D01*
X31124188Y-23574482D01*
X31160498Y-23694180D01*
X31219463Y-23804494D01*
X31298815Y-23901185D01*
X31395506Y-23980537D01*
X31505820Y-24039502D01*
X31625518Y-24075812D01*
X31750000Y-24088072D01*
X33450000Y-24088072D01*
X33574482Y-24075812D01*
X33694180Y-24039502D01*
X33804494Y-23980537D01*
X33901185Y-23901185D01*
X33980537Y-23804494D01*
X34039502Y-23694180D01*
X34075812Y-23574482D01*
X34088072Y-23450000D01*
X34088072Y-21750000D01*
X34075812Y-21625518D01*
X34039502Y-21505820D01*
X33980537Y-21395506D01*
X33901185Y-21298815D01*
X33804494Y-21219463D01*
X33694180Y-21160498D01*
X33574482Y-21124188D01*
X33450000Y-21111928D01*
X31750000Y-21111928D01*
X31625518Y-21124188D01*
X31505820Y-21160498D01*
X31395506Y-21219463D01*
X31298815Y-21298815D01*
X31219463Y-21395506D01*
X31160498Y-21505820D01*
X31124188Y-21625518D01*
X31111928Y-21750000D01*
X27490107Y-21750000D01*
X27593475Y-21646632D01*
X27755990Y-21403411D01*
X27867932Y-21133158D01*
X27925000Y-20846260D01*
X27925000Y-20553740D01*
X27867932Y-20266842D01*
X27755990Y-19996589D01*
X27593475Y-19753368D01*
X27409146Y-19569039D01*
X28008096Y-19569039D01*
X28048754Y-19703087D01*
X28168963Y-19957420D01*
X28336481Y-20183414D01*
X28544869Y-20372385D01*
X28786119Y-20517070D01*
X29050960Y-20611909D01*
X29273000Y-20490624D01*
X29273000Y-19347000D01*
X29527000Y-19347000D01*
X29527000Y-20490624D01*
X29749040Y-20611909D01*
X30013881Y-20517070D01*
X30255131Y-20372385D01*
X30463519Y-20183414D01*
X30631037Y-19957420D01*
X30751246Y-19703087D01*
X30791904Y-19569039D01*
X30669915Y-19347000D01*
X29527000Y-19347000D01*
X29273000Y-19347000D01*
X28130085Y-19347000D01*
X28008096Y-19569039D01*
X27409146Y-19569039D01*
X27386632Y-19546525D01*
X27143411Y-19384010D01*
X26873158Y-19272068D01*
X26586260Y-19215000D01*
X26293740Y-19215000D01*
X26006842Y-19272068D01*
X25736589Y-19384010D01*
X25493368Y-19546525D01*
X25361513Y-19678380D01*
X25339502Y-19605820D01*
X25280537Y-19495506D01*
X25201185Y-19398815D01*
X25104494Y-19319463D01*
X24994180Y-19260498D01*
X24874482Y-19224188D01*
X24750000Y-19211928D01*
X23050000Y-19211928D01*
X22925518Y-19224188D01*
X22805820Y-19260498D01*
X22695506Y-19319463D01*
X22598815Y-19398815D01*
X22519463Y-19495506D01*
X22460498Y-19605820D01*
X22424188Y-19725518D01*
X22411928Y-19850000D01*
X22274300Y-19850000D01*
X22317517Y-19806783D01*
X22404520Y-19676574D01*
X22464449Y-19531893D01*
X22495000Y-19378301D01*
X22495000Y-19221699D01*
X22464449Y-19068107D01*
X22404520Y-18923426D01*
X22317517Y-18793217D01*
X22206783Y-18682483D01*
X22076574Y-18595480D01*
X21931893Y-18535551D01*
X21778301Y-18505000D01*
X21621699Y-18505000D01*
X21468107Y-18535551D01*
X21350000Y-18584473D01*
X21231893Y-18535551D01*
X21078301Y-18505000D01*
X20921699Y-18505000D01*
X20768107Y-18535551D01*
X20623426Y-18595480D01*
X20493217Y-18682483D01*
X20382483Y-18793217D01*
X20295480Y-18923426D01*
X20235551Y-19068107D01*
X20205000Y-19221699D01*
X10660000Y-19221699D01*
X10660000Y-17098061D01*
X16265000Y-17098061D01*
X16265000Y-17301939D01*
X16304774Y-17501898D01*
X16382795Y-17690256D01*
X16496063Y-17859774D01*
X16640226Y-18003937D01*
X16809744Y-18117205D01*
X16998102Y-18195226D01*
X17198061Y-18235000D01*
X17401939Y-18235000D01*
X17601898Y-18195226D01*
X17790256Y-18117205D01*
X17959774Y-18003937D01*
X18103937Y-17859774D01*
X18217205Y-17690256D01*
X18295226Y-17501898D01*
X18335000Y-17301939D01*
X18335000Y-17098061D01*
X18295226Y-16898102D01*
X18217205Y-16709744D01*
X18103937Y-16540226D01*
X18036772Y-16473061D01*
X20065000Y-16473061D01*
X20065000Y-16676939D01*
X20104774Y-16876898D01*
X20182795Y-17065256D01*
X20296063Y-17234774D01*
X20440226Y-17378937D01*
X20609744Y-17492205D01*
X20798102Y-17570226D01*
X20998061Y-17610000D01*
X21201939Y-17610000D01*
X21401898Y-17570226D01*
X21590256Y-17492205D01*
X21759774Y-17378937D01*
X21903937Y-17234774D01*
X22017205Y-17065256D01*
X22095226Y-16876898D01*
X22135000Y-16676939D01*
X22135000Y-16473061D01*
X22095226Y-16273102D01*
X22017205Y-16084744D01*
X21903937Y-15915226D01*
X21759774Y-15771063D01*
X21590256Y-15657795D01*
X21401898Y-15579774D01*
X21201939Y-15540000D01*
X20998061Y-15540000D01*
X20798102Y-15579774D01*
X20609744Y-15657795D01*
X20440226Y-15771063D01*
X20296063Y-15915226D01*
X20182795Y-16084744D01*
X20104774Y-16273102D01*
X20065000Y-16473061D01*
X18036772Y-16473061D01*
X17959774Y-16396063D01*
X17790256Y-16282795D01*
X17601898Y-16204774D01*
X17401939Y-16165000D01*
X17198061Y-16165000D01*
X16998102Y-16204774D01*
X16809744Y-16282795D01*
X16640226Y-16396063D01*
X16496063Y-16540226D01*
X16382795Y-16709744D01*
X16304774Y-16898102D01*
X16265000Y-17098061D01*
X10660000Y-17098061D01*
X10660000Y-15698061D01*
X11565000Y-15698061D01*
X11565000Y-15901939D01*
X11604774Y-16101898D01*
X11682795Y-16290256D01*
X11796063Y-16459774D01*
X11940226Y-16603937D01*
X12109744Y-16717205D01*
X12298102Y-16795226D01*
X12498061Y-16835000D01*
X12701939Y-16835000D01*
X12901898Y-16795226D01*
X13090256Y-16717205D01*
X13259774Y-16603937D01*
X13403937Y-16459774D01*
X13517205Y-16290256D01*
X13595226Y-16101898D01*
X13635000Y-15901939D01*
X13635000Y-15698061D01*
X13595226Y-15498102D01*
X13517205Y-15309744D01*
X13403937Y-15140226D01*
X13259774Y-14996063D01*
X13090256Y-14882795D01*
X12901898Y-14804774D01*
X12701939Y-14765000D01*
X12498061Y-14765000D01*
X12298102Y-14804774D01*
X12109744Y-14882795D01*
X11940226Y-14996063D01*
X11796063Y-15140226D01*
X11682795Y-15309744D01*
X11604774Y-15498102D01*
X11565000Y-15698061D01*
X10660000Y-15698061D01*
X10660000Y-11598057D01*
X16265000Y-11598057D01*
X16265000Y-11801935D01*
X16304774Y-12001894D01*
X16382795Y-12190252D01*
X16496063Y-12359770D01*
X16640226Y-12503933D01*
X16809744Y-12617201D01*
X16998102Y-12695222D01*
X17198061Y-12734996D01*
X17401939Y-12734996D01*
X17601898Y-12695222D01*
X17790256Y-12617201D01*
X17959774Y-12503933D01*
X18103937Y-12359770D01*
X18217205Y-12190252D01*
X18295226Y-12001894D01*
X18335000Y-11801935D01*
X18335000Y-11598057D01*
X18295226Y-11398098D01*
X18217205Y-11209740D01*
X18103937Y-11040222D01*
X17959774Y-10896059D01*
X17790256Y-10782791D01*
X17601898Y-10704770D01*
X17401939Y-10664996D01*
X17198061Y-10664996D01*
X16998102Y-10704770D01*
X16809744Y-10782791D01*
X16640226Y-10896059D01*
X16496063Y-11040222D01*
X16382795Y-11209740D01*
X16304774Y-11398098D01*
X16265000Y-11598057D01*
X10660000Y-11598057D01*
X10660000Y-10660000D01*
X20164785Y-10660000D01*
X20109744Y-10682799D01*
G37*
X20109744Y-10682799D02*
X19940226Y-10796067D01*
X19796063Y-10940230D01*
X19682795Y-11109748D01*
X19604774Y-11298106D01*
X19565000Y-11498065D01*
X19565000Y-11701943D01*
X19604774Y-11901902D01*
X19682795Y-12090260D01*
X19796063Y-12259778D01*
X19940226Y-12403941D01*
X20109744Y-12517209D01*
X20298102Y-12595230D01*
X20305365Y-12596675D01*
X20304774Y-12598102D01*
X20277340Y-12736023D01*
X20201898Y-12704774D01*
X20001939Y-12665000D01*
X19798061Y-12665000D01*
X19598102Y-12704774D01*
X19409744Y-12782795D01*
X19240226Y-12896063D01*
X19096063Y-13040226D01*
X18982795Y-13209744D01*
X18904774Y-13398102D01*
X18865000Y-13598061D01*
X18865000Y-13801939D01*
X18904774Y-14001898D01*
X18982795Y-14190256D01*
X19096063Y-14359774D01*
X19240226Y-14503937D01*
X19409744Y-14617205D01*
X19598102Y-14695226D01*
X19798061Y-14735000D01*
X20001939Y-14735000D01*
X20201898Y-14695226D01*
X20390256Y-14617205D01*
X20559774Y-14503937D01*
X20703937Y-14359774D01*
X20817205Y-14190256D01*
X20895226Y-14001898D01*
X20922660Y-13863977D01*
X20998102Y-13895226D01*
X21193188Y-13934031D01*
X21240295Y-14047756D01*
X21353563Y-14217274D01*
X21497726Y-14361437D01*
X21667244Y-14474705D01*
X21855602Y-14552726D01*
X22055561Y-14592500D01*
X22259439Y-14592500D01*
X22459398Y-14552726D01*
X22647756Y-14474705D01*
X22817274Y-14361437D01*
X22961437Y-14217274D01*
X23074705Y-14047756D01*
X23152726Y-13859398D01*
X23192500Y-13659439D01*
X23192500Y-13598061D01*
X23865000Y-13598061D01*
X23865000Y-13801939D01*
X23904774Y-14001898D01*
X23982795Y-14190256D01*
X24096063Y-14359774D01*
X24240226Y-14503937D01*
X24409744Y-14617205D01*
X24598102Y-14695226D01*
X24798061Y-14735000D01*
X25001939Y-14735000D01*
X25201898Y-14695226D01*
X25390256Y-14617205D01*
X25559774Y-14503937D01*
X25703937Y-14359774D01*
X25817205Y-14190256D01*
X25895226Y-14001898D01*
X25935000Y-13801939D01*
X25935000Y-13598061D01*
X25895226Y-13398102D01*
X25817205Y-13209744D01*
X25703937Y-13040226D01*
X25559774Y-12896063D01*
X25390256Y-12782795D01*
X25201898Y-12704774D01*
X25001939Y-12665000D01*
X24798061Y-12665000D01*
X24598102Y-12704774D01*
X24409744Y-12782795D01*
X24240226Y-12896063D01*
X24096063Y-13040226D01*
X23982795Y-13209744D01*
X23904774Y-13398102D01*
X23865000Y-13598061D01*
X23192500Y-13598061D01*
X23192500Y-13455561D01*
X23152726Y-13255602D01*
X23074705Y-13067244D01*
X22961437Y-12897726D01*
X22817274Y-12753563D01*
X22647756Y-12640295D01*
X22459398Y-12562274D01*
X22264312Y-12523469D01*
X22217205Y-12409744D01*
X22103937Y-12240226D01*
X21959774Y-12096063D01*
X21790256Y-11982795D01*
X21601898Y-11904774D01*
X21594635Y-11903329D01*
X21595226Y-11901902D01*
X21635000Y-11701943D01*
X21635000Y-11498065D01*
X21595226Y-11298106D01*
X21517205Y-11109748D01*
X21403937Y-10940230D01*
X21259774Y-10796067D01*
X21090256Y-10682799D01*
X21035215Y-10660000D01*
X27978895Y-10660000D01*
X27974188Y-10675518D01*
X27961928Y-10800000D01*
X27961928Y-12400000D01*
X27974188Y-12524482D01*
X28010498Y-12644180D01*
X28069463Y-12754494D01*
X28148815Y-12851185D01*
X28245506Y-12930537D01*
X28355820Y-12989502D01*
X28475518Y-13025812D01*
X28483961Y-13026643D01*
X28285363Y-13225241D01*
X28128320Y-13460273D01*
X28020147Y-13721426D01*
X27965000Y-13998665D01*
X27965000Y-14281335D01*
X28020147Y-14558574D01*
X28128320Y-14819727D01*
X28285363Y-15054759D01*
X28485241Y-15254637D01*
X28717759Y-15410000D01*
X28485241Y-15565363D01*
X28285363Y-15765241D01*
X28128320Y-16000273D01*
X28020147Y-16261426D01*
X27965000Y-16538665D01*
X27965000Y-16821335D01*
X28020147Y-17098574D01*
X28128320Y-17359727D01*
X28285363Y-17594759D01*
X28485241Y-17794637D01*
X28720273Y-17951680D01*
X28730865Y-17956067D01*
X28544869Y-18067615D01*
X28336481Y-18256586D01*
X28168963Y-18482580D01*
X28048754Y-18736913D01*
X28008096Y-18870961D01*
X28130085Y-19093000D01*
X29273000Y-19093000D01*
X29273000Y-19073000D01*
X29527000Y-19073000D01*
X29527000Y-19093000D01*
X30669915Y-19093000D01*
X30791904Y-18870961D01*
X30751246Y-18736913D01*
X30631037Y-18482580D01*
X30463519Y-18256586D01*
X30255131Y-18067615D01*
X30069135Y-17956067D01*
X30079727Y-17951680D01*
X30314759Y-17794637D01*
X30514637Y-17594759D01*
X30671680Y-17359727D01*
X30779853Y-17098574D01*
X30819738Y-16898061D01*
X31965000Y-16898061D01*
X31965000Y-17101939D01*
X32004774Y-17301898D01*
X32082795Y-17490256D01*
X32196063Y-17659774D01*
X32340226Y-17803937D01*
X32509744Y-17917205D01*
X32698102Y-17995226D01*
X32898061Y-18035000D01*
X33101939Y-18035000D01*
X33301898Y-17995226D01*
X33490256Y-17917205D01*
X33659774Y-17803937D01*
X33803937Y-17659774D01*
X33917205Y-17490256D01*
X33995226Y-17301898D01*
X34035000Y-17101939D01*
X34035000Y-16898061D01*
X33995226Y-16698102D01*
X33918096Y-16511895D01*
X34001898Y-16495226D01*
X34190256Y-16417205D01*
X34359774Y-16303937D01*
X34503937Y-16159774D01*
X34617205Y-15990256D01*
X34695226Y-15801898D01*
X34735000Y-15601939D01*
X34735000Y-15398061D01*
X34695226Y-15198102D01*
X34617205Y-15009744D01*
X34503937Y-14840226D01*
X34359774Y-14696063D01*
X34190256Y-14582795D01*
X34001898Y-14504774D01*
X33801939Y-14465000D01*
X33598061Y-14465000D01*
X33398102Y-14504774D01*
X33209744Y-14582795D01*
X33040226Y-14696063D01*
X32896063Y-14840226D01*
X32782795Y-15009744D01*
X32704774Y-15198102D01*
X32665000Y-15398061D01*
X32665000Y-15601939D01*
X32704774Y-15801898D01*
X32781904Y-15988105D01*
X32698102Y-16004774D01*
X32509744Y-16082795D01*
X32340226Y-16196063D01*
X32196063Y-16340226D01*
X32082795Y-16509744D01*
X32004774Y-16698102D01*
X31965000Y-16898061D01*
X30819738Y-16898061D01*
X30835000Y-16821335D01*
X30835000Y-16538665D01*
X30779853Y-16261426D01*
X30671680Y-16000273D01*
X30514637Y-15765241D01*
X30314759Y-15565363D01*
X30082241Y-15410000D01*
X30314759Y-15254637D01*
X30514637Y-15054759D01*
X30671680Y-14819727D01*
X30779853Y-14558574D01*
X30835000Y-14281335D01*
X30835000Y-13998665D01*
X30779853Y-13721426D01*
X30671680Y-13460273D01*
X30514637Y-13225241D01*
X30316039Y-13026643D01*
X30324482Y-13025812D01*
X30444180Y-12989502D01*
X30554494Y-12930537D01*
X30651185Y-12851185D01*
X30730537Y-12754494D01*
X30789502Y-12644180D01*
X30825812Y-12524482D01*
X30838072Y-12400000D01*
X30838072Y-11598061D01*
X33165000Y-11598061D01*
X33165000Y-11801939D01*
X33204774Y-12001898D01*
X33282795Y-12190256D01*
X33396063Y-12359774D01*
X33540226Y-12503937D01*
X33709744Y-12617205D01*
X33898102Y-12695226D01*
X34098061Y-12735000D01*
X34301939Y-12735000D01*
X34501898Y-12695226D01*
X34690256Y-12617205D01*
X34859774Y-12503937D01*
X35003937Y-12359774D01*
X35117205Y-12190256D01*
X35195226Y-12001898D01*
X35235000Y-11801939D01*
X35235000Y-11598061D01*
X35195226Y-11398102D01*
X35117205Y-11209744D01*
X35003937Y-11040226D01*
X34859774Y-10896063D01*
X34690256Y-10782795D01*
X34501898Y-10704774D01*
X34301939Y-10665000D01*
X34098061Y-10665000D01*
X33898102Y-10704774D01*
X33709744Y-10782795D01*
X33540226Y-10896063D01*
X33396063Y-11040226D01*
X33282795Y-11209744D01*
X33204774Y-11398102D01*
X33165000Y-11598061D01*
X30838072Y-11598061D01*
X30838072Y-10800000D01*
X30825812Y-10675518D01*
X30821105Y-10660000D01*
X35930604Y-10660000D01*
X35905363Y-10685241D01*
X35748320Y-10920273D01*
X35640147Y-11181426D01*
X35585000Y-11458665D01*
X35585000Y-11741335D01*
X35640147Y-12018574D01*
X35748320Y-12279727D01*
X35905363Y-12514759D01*
X36105241Y-12714637D01*
X36337759Y-12870000D01*
X36105241Y-13025363D01*
X35905363Y-13225241D01*
X35748320Y-13460273D01*
X35640147Y-13721426D01*
X35585000Y-13998665D01*
X35585000Y-14281335D01*
X35640147Y-14558574D01*
X35748320Y-14819727D01*
X35905363Y-15054759D01*
X36105241Y-15254637D01*
X36337759Y-15410000D01*
X36105241Y-15565363D01*
X35905363Y-15765241D01*
X35748320Y-16000273D01*
X35640147Y-16261426D01*
X35585000Y-16538665D01*
X35585000Y-16765000D01*
X35398061Y-16765000D01*
X35198102Y-16804774D01*
X35009744Y-16882795D01*
X34840226Y-16996063D01*
X34696063Y-17140226D01*
X34582795Y-17309744D01*
X34504774Y-17498102D01*
X34465000Y-17698061D01*
X34465000Y-17901939D01*
X34504774Y-18101898D01*
X34582795Y-18290256D01*
X34696063Y-18459774D01*
X34840226Y-18603937D01*
X35009744Y-18717205D01*
X35198102Y-18795226D01*
X35398061Y-18835000D01*
X35601939Y-18835000D01*
X35634768Y-18828470D01*
X35585000Y-19078665D01*
X35585000Y-19361335D01*
X35640147Y-19638574D01*
X35748320Y-19899727D01*
X35905363Y-20134759D01*
X36105241Y-20334637D01*
X36340273Y-20491680D01*
X36601426Y-20599853D01*
X36878665Y-20655000D01*
X37161335Y-20655000D01*
X37438574Y-20599853D01*
X37640000Y-20516420D01*
X37640000Y-21346112D01*
X37601185Y-21298815D01*
X37504494Y-21219463D01*
X37394180Y-21160498D01*
X37274482Y-21124188D01*
X37150000Y-21111928D01*
X35450000Y-21111928D01*
X35325518Y-21124188D01*
X35205820Y-21160498D01*
X35095506Y-21219463D01*
X34998815Y-21298815D01*
X34919463Y-21395506D01*
X34860498Y-21505820D01*
X34824188Y-21625518D01*
X34811928Y-21750000D01*
X34811928Y-23450000D01*
X34824188Y-23574482D01*
X34860498Y-23694180D01*
X34919463Y-23804494D01*
X34998815Y-23901185D01*
X35095506Y-23980537D01*
X35205820Y-24039502D01*
X35286466Y-24063966D01*
X35202412Y-24139731D01*
X35028359Y-24373080D01*
X34903175Y-24635901D01*
X34858524Y-24783110D01*
X34979845Y-25013000D01*
X36173000Y-25013000D01*
X36173000Y-24993000D01*
X36427000Y-24993000D01*
X36427000Y-25013000D01*
X36447000Y-25013000D01*
X36447000Y-25267000D01*
X36427000Y-25267000D01*
X36427000Y-26460814D01*
X36656891Y-26581481D01*
X36931252Y-26484157D01*
X37181355Y-26335178D01*
X37397588Y-26140269D01*
X37571641Y-25906920D01*
X37640001Y-25763400D01*
X37640001Y-27707464D01*
X37639502Y-27705820D01*
X37580537Y-27595506D01*
X37501185Y-27498815D01*
X37404494Y-27419463D01*
X37294180Y-27360498D01*
X37174482Y-27324188D01*
X37050000Y-27311928D01*
X35350000Y-27311928D01*
X35225518Y-27324188D01*
X35105820Y-27360498D01*
X34995506Y-27419463D01*
X34898815Y-27498815D01*
X34819463Y-27595506D01*
X34760498Y-27705820D01*
X34724188Y-27825518D01*
X34711928Y-27950000D01*
X34711928Y-29650000D01*
X34724188Y-29774482D01*
X34760498Y-29894180D01*
X34819463Y-30004494D01*
X34898815Y-30101185D01*
X34995506Y-30180537D01*
X35105820Y-30239502D01*
X35225518Y-30275812D01*
X35350000Y-30288072D01*
X37050000Y-30288072D01*
X37174482Y-30275812D01*
X37294180Y-30239502D01*
X37404494Y-30180537D01*
X37501185Y-30101185D01*
X37580537Y-30004494D01*
X37639502Y-29894180D01*
X37640001Y-29892536D01*
X37640001Y-33140000D01*
X24515010Y-33140000D01*
X24539502Y-33094180D01*
X24575812Y-32974482D01*
X24588072Y-32850000D01*
X24588072Y-31150000D01*
X24575812Y-31025518D01*
X24539502Y-30905820D01*
X24480537Y-30795506D01*
X24401185Y-30698815D01*
X24304494Y-30619463D01*
X24194180Y-30560498D01*
X24074482Y-30524188D01*
X23950000Y-30511928D01*
X22250000Y-30511928D01*
X22125518Y-30524188D01*
X22005820Y-30560498D01*
X21895506Y-30619463D01*
X21798815Y-30698815D01*
X21719463Y-30795506D01*
X21660498Y-30905820D01*
X21624188Y-31025518D01*
X21611928Y-31150000D01*
X21611928Y-32850000D01*
X21624188Y-32974482D01*
X21660498Y-33094180D01*
X21684990Y-33140000D01*
X20380107Y-33140000D01*
X20573475Y-32946632D01*
X20735990Y-32703411D01*
X20847932Y-32433158D01*
X20905000Y-32146260D01*
X20905000Y-31853740D01*
X20847932Y-31566842D01*
X20735990Y-31296589D01*
X20573475Y-31053368D01*
X20366632Y-30846525D01*
X20123411Y-30684010D01*
X19853158Y-30572068D01*
X19566260Y-30515000D01*
X19273740Y-30515000D01*
X18986842Y-30572068D01*
X18716589Y-30684010D01*
X18473368Y-30846525D01*
X18266525Y-31053368D01*
X18150000Y-31227760D01*
X18033475Y-31053368D01*
X17826632Y-30846525D01*
X17583411Y-30684010D01*
X17313158Y-30572068D01*
X17234000Y-30556322D01*
X17301185Y-30501185D01*
X17380537Y-30404494D01*
X17439502Y-30294180D01*
X17475812Y-30174482D01*
X17488072Y-30050000D01*
X17488072Y-28798061D01*
X20565000Y-28798061D01*
X20565000Y-29001939D01*
X20604774Y-29201898D01*
X20682795Y-29390256D01*
X20796063Y-29559774D01*
X20940226Y-29703937D01*
X21109744Y-29817205D01*
X21298102Y-29895226D01*
X21498061Y-29935000D01*
X21701939Y-29935000D01*
X21901898Y-29895226D01*
X22090256Y-29817205D01*
X22259774Y-29703937D01*
X22403937Y-29559774D01*
X22517205Y-29390256D01*
X22595226Y-29201898D01*
X22596222Y-29196890D01*
X31158524Y-29196890D01*
X31203175Y-29344099D01*
X31328359Y-29606920D01*
X31502412Y-29840269D01*
X31718645Y-30035178D01*
X31968748Y-30184157D01*
X32243109Y-30281481D01*
X32473000Y-30160814D01*
X32473000Y-28967000D01*
X32727000Y-28967000D01*
X32727000Y-30160814D01*
X32956891Y-30281481D01*
X33231252Y-30184157D01*
X33481355Y-30035178D01*
X33697588Y-29840269D01*
X33871641Y-29606920D01*
X33996825Y-29344099D01*
X34041476Y-29196890D01*
X33920155Y-28967000D01*
X32727000Y-28967000D01*
X32473000Y-28967000D01*
X31279845Y-28967000D01*
X31158524Y-29196890D01*
X22596222Y-29196890D01*
X22635000Y-29001939D01*
X22635000Y-28798061D01*
X22595226Y-28598102D01*
X22517205Y-28409744D01*
X22403937Y-28240226D01*
X22259774Y-28096063D01*
X22090256Y-27982795D01*
X21901898Y-27904774D01*
X21701939Y-27865000D01*
X21498061Y-27865000D01*
X21298102Y-27904774D01*
X21109744Y-27982795D01*
X20940226Y-28096063D01*
X20796063Y-28240226D01*
X20682795Y-28409744D01*
X20604774Y-28598102D01*
X20565000Y-28798061D01*
X17488072Y-28798061D01*
X17488072Y-27350000D01*
X17475812Y-27225518D01*
X17439502Y-27105820D01*
X17380537Y-26995506D01*
X17301185Y-26898815D01*
X17204494Y-26819463D01*
X17094180Y-26760498D01*
X16974482Y-26724188D01*
X16850000Y-26711928D01*
X14150000Y-26711928D01*
X14025518Y-26724188D01*
X13905820Y-26760498D01*
X13795506Y-26819463D01*
X13698815Y-26898815D01*
X13619463Y-26995506D01*
X13560498Y-27105820D01*
X13524188Y-27225518D01*
X13511928Y-27350000D01*
X13511928Y-30050000D01*
X13524188Y-30174482D01*
X13560498Y-30294180D01*
X13619463Y-30404494D01*
X13698815Y-30501185D01*
X13795506Y-30580537D01*
X13835188Y-30601748D01*
X13636589Y-30684010D01*
X13393368Y-30846525D01*
X13261513Y-30978380D01*
X13239502Y-30905820D01*
X13180537Y-30795506D01*
X13101185Y-30698815D01*
X13004494Y-30619463D01*
X12894180Y-30560498D01*
X12774482Y-30524188D01*
X12650000Y-30511928D01*
X10950000Y-30511928D01*
X10825518Y-30524188D01*
X10705820Y-30560498D01*
X10660000Y-30584990D01*
X10660000Y-25998061D01*
X21965000Y-25998061D01*
X21965000Y-26201939D01*
X22004774Y-26401898D01*
X22082795Y-26590256D01*
X22196063Y-26759774D01*
X22340226Y-26903937D01*
X22509744Y-27017205D01*
X22698102Y-27095226D01*
X22898061Y-27135000D01*
X23101939Y-27135000D01*
X23301898Y-27095226D01*
X23490256Y-27017205D01*
X23659774Y-26903937D01*
X23803937Y-26759774D01*
X23917205Y-26590256D01*
X23995226Y-26401898D01*
X24035000Y-26201939D01*
X24035000Y-25998061D01*
X24004098Y-25842702D01*
X24856903Y-25842702D01*
X24928486Y-26086671D01*
X25183996Y-26207571D01*
X25458184Y-26276300D01*
X25740512Y-26290217D01*
X26020130Y-26248787D01*
X26286292Y-26153603D01*
X26411514Y-26086671D01*
X26483097Y-25842702D01*
X25670000Y-25029605D01*
X24856903Y-25842702D01*
X24004098Y-25842702D01*
X23995226Y-25798102D01*
X23917205Y-25609744D01*
X23803937Y-25440226D01*
X23659774Y-25296063D01*
X23490256Y-25182795D01*
X23301898Y-25104774D01*
X23101939Y-25065000D01*
X22898061Y-25065000D01*
X22698102Y-25104774D01*
X22509744Y-25182795D01*
X22340226Y-25296063D01*
X22196063Y-25440226D01*
X22082795Y-25609744D01*
X22004774Y-25798102D01*
X21965000Y-25998061D01*
X10660000Y-25998061D01*
X10660000Y-23503215D01*
X23270154Y-23503215D01*
X23270154Y-23707093D01*
X23309928Y-23907052D01*
X23387949Y-24095410D01*
X23501217Y-24264928D01*
X23645380Y-24409091D01*
X23814898Y-24522359D01*
X24003256Y-24600380D01*
X24203215Y-24640154D01*
X24243603Y-24640154D01*
X24229783Y-24920512D01*
X24271213Y-25200130D01*
X24366397Y-25466292D01*
X24433329Y-25591514D01*
X24677298Y-25663097D01*
X25490395Y-24850000D01*
X25849605Y-24850000D01*
X26662702Y-25663097D01*
X26906671Y-25591514D01*
X26973631Y-25450000D01*
X31111928Y-25450000D01*
X31111928Y-27150000D01*
X31124188Y-27274482D01*
X31160498Y-27394180D01*
X31219463Y-27504494D01*
X31298815Y-27601185D01*
X31395506Y-27680537D01*
X31505820Y-27739502D01*
X31586466Y-27763966D01*
X31502412Y-27839731D01*
X31328359Y-28073080D01*
X31203175Y-28335901D01*
X31158524Y-28483110D01*
X31279845Y-28713000D01*
X32473000Y-28713000D01*
X32473000Y-28693000D01*
X32727000Y-28693000D01*
X32727000Y-28713000D01*
X33920155Y-28713000D01*
X34041476Y-28483110D01*
X33996825Y-28335901D01*
X33871641Y-28073080D01*
X33697588Y-27839731D01*
X33613534Y-27763966D01*
X33694180Y-27739502D01*
X33804494Y-27680537D01*
X33901185Y-27601185D01*
X33980537Y-27504494D01*
X34039502Y-27394180D01*
X34075812Y-27274482D01*
X34088072Y-27150000D01*
X34088072Y-25496890D01*
X34858524Y-25496890D01*
X34903175Y-25644099D01*
X35028359Y-25906920D01*
X35202412Y-26140269D01*
X35418645Y-26335178D01*
X35668748Y-26484157D01*
X35943109Y-26581481D01*
X36173000Y-26460814D01*
X36173000Y-25267000D01*
X34979845Y-25267000D01*
X34858524Y-25496890D01*
X34088072Y-25496890D01*
X34088072Y-25450000D01*
X34075812Y-25325518D01*
X34039502Y-25205820D01*
X33980537Y-25095506D01*
X33901185Y-24998815D01*
X33804494Y-24919463D01*
X33694180Y-24860498D01*
X33574482Y-24824188D01*
X33450000Y-24811928D01*
X31750000Y-24811928D01*
X31625518Y-24824188D01*
X31505820Y-24860498D01*
X31395506Y-24919463D01*
X31298815Y-24998815D01*
X31219463Y-25095506D01*
X31160498Y-25205820D01*
X31124188Y-25325518D01*
X31111928Y-25450000D01*
X26973631Y-25450000D01*
X27027571Y-25336004D01*
X27096300Y-25061816D01*
X27110217Y-24779488D01*
X27068787Y-24499870D01*
X26973603Y-24233708D01*
X26906671Y-24108486D01*
X26662702Y-24036903D01*
X25849605Y-24850000D01*
X25490395Y-24850000D01*
X25476253Y-24835858D01*
X25655858Y-24656253D01*
X25670000Y-24670395D01*
X26483097Y-23857298D01*
X26411514Y-23613329D01*
X26156004Y-23492429D01*
X25881816Y-23423700D01*
X25599488Y-23409783D01*
X25329526Y-23449782D01*
X25300380Y-23303256D01*
X25222359Y-23114898D01*
X25109091Y-22945380D01*
X24964928Y-22801217D01*
X24795410Y-22687949D01*
X24607052Y-22609928D01*
X24407093Y-22570154D01*
X24203215Y-22570154D01*
X24003256Y-22609928D01*
X23814898Y-22687949D01*
X23645380Y-22801217D01*
X23501217Y-22945380D01*
X23387949Y-23114898D01*
X23309928Y-23303256D01*
X23270154Y-23503215D01*
X10660000Y-23503215D01*
X10660000Y-21298061D01*
X14365000Y-21298061D01*
X14365000Y-21501939D01*
X14404774Y-21701898D01*
X14482795Y-21890256D01*
X14596063Y-22059774D01*
X14740226Y-22203937D01*
X14909744Y-22317205D01*
X15098102Y-22395226D01*
X15298061Y-22435000D01*
X15501939Y-22435000D01*
X15701898Y-22395226D01*
X15890256Y-22317205D01*
X16059774Y-22203937D01*
X16203937Y-22059774D01*
X16317205Y-21890256D01*
X16395226Y-21701898D01*
X16435000Y-21501939D01*
X16435000Y-21298061D01*
X16395226Y-21098102D01*
X16317205Y-20909744D01*
X16203937Y-20740226D01*
X16059774Y-20596063D01*
X15890256Y-20482795D01*
X15701898Y-20404774D01*
X15501939Y-20365000D01*
X15298061Y-20365000D01*
X15098102Y-20404774D01*
X14909744Y-20482795D01*
X14740226Y-20596063D01*
X14596063Y-20740226D01*
X14482795Y-20909744D01*
X14404774Y-21098102D01*
X14365000Y-21298061D01*
X10660000Y-21298061D01*
X10660000Y-19221699D01*
X20205000Y-19221699D01*
X20205000Y-19378301D01*
X20235551Y-19531893D01*
X20295480Y-19676574D01*
X20382483Y-19806783D01*
X20493217Y-19917517D01*
X20623426Y-20004520D01*
X20768107Y-20064449D01*
X20921699Y-20095000D01*
X21078301Y-20095000D01*
X21231893Y-20064449D01*
X21350000Y-20015527D01*
X21468107Y-20064449D01*
X21621699Y-20095000D01*
X21778301Y-20095000D01*
X21931893Y-20064449D01*
X22076574Y-20004520D01*
X22206783Y-19917517D01*
X22274300Y-19850000D01*
X22411928Y-19850000D01*
X22411928Y-21550000D01*
X22424188Y-21674482D01*
X22460498Y-21794180D01*
X22519463Y-21904494D01*
X22598815Y-22001185D01*
X22695506Y-22080537D01*
X22805820Y-22139502D01*
X22925518Y-22175812D01*
X23050000Y-22188072D01*
X24750000Y-22188072D01*
X24874482Y-22175812D01*
X24994180Y-22139502D01*
X25104494Y-22080537D01*
X25201185Y-22001185D01*
X25280537Y-21904494D01*
X25339502Y-21794180D01*
X25361513Y-21721620D01*
X25493368Y-21853475D01*
X25736589Y-22015990D01*
X26006842Y-22127932D01*
X26293740Y-22185000D01*
X26586260Y-22185000D01*
X26873158Y-22127932D01*
X27143411Y-22015990D01*
X27386632Y-21853475D01*
X27490107Y-21750000D01*
X31111928Y-21750000D01*
X31111928Y-23450000D01*
X31124188Y-23574482D01*
X31160498Y-23694180D01*
X31219463Y-23804494D01*
X31298815Y-23901185D01*
X31395506Y-23980537D01*
X31505820Y-24039502D01*
X31625518Y-24075812D01*
X31750000Y-24088072D01*
X33450000Y-24088072D01*
X33574482Y-24075812D01*
X33694180Y-24039502D01*
X33804494Y-23980537D01*
X33901185Y-23901185D01*
X33980537Y-23804494D01*
X34039502Y-23694180D01*
X34075812Y-23574482D01*
X34088072Y-23450000D01*
X34088072Y-21750000D01*
X34075812Y-21625518D01*
X34039502Y-21505820D01*
X33980537Y-21395506D01*
X33901185Y-21298815D01*
X33804494Y-21219463D01*
X33694180Y-21160498D01*
X33574482Y-21124188D01*
X33450000Y-21111928D01*
X31750000Y-21111928D01*
X31625518Y-21124188D01*
X31505820Y-21160498D01*
X31395506Y-21219463D01*
X31298815Y-21298815D01*
X31219463Y-21395506D01*
X31160498Y-21505820D01*
X31124188Y-21625518D01*
X31111928Y-21750000D01*
X27490107Y-21750000D01*
X27593475Y-21646632D01*
X27755990Y-21403411D01*
X27867932Y-21133158D01*
X27925000Y-20846260D01*
X27925000Y-20553740D01*
X27867932Y-20266842D01*
X27755990Y-19996589D01*
X27593475Y-19753368D01*
X27409146Y-19569039D01*
X28008096Y-19569039D01*
X28048754Y-19703087D01*
X28168963Y-19957420D01*
X28336481Y-20183414D01*
X28544869Y-20372385D01*
X28786119Y-20517070D01*
X29050960Y-20611909D01*
X29273000Y-20490624D01*
X29273000Y-19347000D01*
X29527000Y-19347000D01*
X29527000Y-20490624D01*
X29749040Y-20611909D01*
X30013881Y-20517070D01*
X30255131Y-20372385D01*
X30463519Y-20183414D01*
X30631037Y-19957420D01*
X30751246Y-19703087D01*
X30791904Y-19569039D01*
X30669915Y-19347000D01*
X29527000Y-19347000D01*
X29273000Y-19347000D01*
X28130085Y-19347000D01*
X28008096Y-19569039D01*
X27409146Y-19569039D01*
X27386632Y-19546525D01*
X27143411Y-19384010D01*
X26873158Y-19272068D01*
X26586260Y-19215000D01*
X26293740Y-19215000D01*
X26006842Y-19272068D01*
X25736589Y-19384010D01*
X25493368Y-19546525D01*
X25361513Y-19678380D01*
X25339502Y-19605820D01*
X25280537Y-19495506D01*
X25201185Y-19398815D01*
X25104494Y-19319463D01*
X24994180Y-19260498D01*
X24874482Y-19224188D01*
X24750000Y-19211928D01*
X23050000Y-19211928D01*
X22925518Y-19224188D01*
X22805820Y-19260498D01*
X22695506Y-19319463D01*
X22598815Y-19398815D01*
X22519463Y-19495506D01*
X22460498Y-19605820D01*
X22424188Y-19725518D01*
X22411928Y-19850000D01*
X22274300Y-19850000D01*
X22317517Y-19806783D01*
X22404520Y-19676574D01*
X22464449Y-19531893D01*
X22495000Y-19378301D01*
X22495000Y-19221699D01*
X22464449Y-19068107D01*
X22404520Y-18923426D01*
X22317517Y-18793217D01*
X22206783Y-18682483D01*
X22076574Y-18595480D01*
X21931893Y-18535551D01*
X21778301Y-18505000D01*
X21621699Y-18505000D01*
X21468107Y-18535551D01*
X21350000Y-18584473D01*
X21231893Y-18535551D01*
X21078301Y-18505000D01*
X20921699Y-18505000D01*
X20768107Y-18535551D01*
X20623426Y-18595480D01*
X20493217Y-18682483D01*
X20382483Y-18793217D01*
X20295480Y-18923426D01*
X20235551Y-19068107D01*
X20205000Y-19221699D01*
X10660000Y-19221699D01*
X10660000Y-17098061D01*
X16265000Y-17098061D01*
X16265000Y-17301939D01*
X16304774Y-17501898D01*
X16382795Y-17690256D01*
X16496063Y-17859774D01*
X16640226Y-18003937D01*
X16809744Y-18117205D01*
X16998102Y-18195226D01*
X17198061Y-18235000D01*
X17401939Y-18235000D01*
X17601898Y-18195226D01*
X17790256Y-18117205D01*
X17959774Y-18003937D01*
X18103937Y-17859774D01*
X18217205Y-17690256D01*
X18295226Y-17501898D01*
X18335000Y-17301939D01*
X18335000Y-17098061D01*
X18295226Y-16898102D01*
X18217205Y-16709744D01*
X18103937Y-16540226D01*
X18036772Y-16473061D01*
X20065000Y-16473061D01*
X20065000Y-16676939D01*
X20104774Y-16876898D01*
X20182795Y-17065256D01*
X20296063Y-17234774D01*
X20440226Y-17378937D01*
X20609744Y-17492205D01*
X20798102Y-17570226D01*
X20998061Y-17610000D01*
X21201939Y-17610000D01*
X21401898Y-17570226D01*
X21590256Y-17492205D01*
X21759774Y-17378937D01*
X21903937Y-17234774D01*
X22017205Y-17065256D01*
X22095226Y-16876898D01*
X22135000Y-16676939D01*
X22135000Y-16473061D01*
X22095226Y-16273102D01*
X22017205Y-16084744D01*
X21903937Y-15915226D01*
X21759774Y-15771063D01*
X21590256Y-15657795D01*
X21401898Y-15579774D01*
X21201939Y-15540000D01*
X20998061Y-15540000D01*
X20798102Y-15579774D01*
X20609744Y-15657795D01*
X20440226Y-15771063D01*
X20296063Y-15915226D01*
X20182795Y-16084744D01*
X20104774Y-16273102D01*
X20065000Y-16473061D01*
X18036772Y-16473061D01*
X17959774Y-16396063D01*
X17790256Y-16282795D01*
X17601898Y-16204774D01*
X17401939Y-16165000D01*
X17198061Y-16165000D01*
X16998102Y-16204774D01*
X16809744Y-16282795D01*
X16640226Y-16396063D01*
X16496063Y-16540226D01*
X16382795Y-16709744D01*
X16304774Y-16898102D01*
X16265000Y-17098061D01*
X10660000Y-17098061D01*
X10660000Y-15698061D01*
X11565000Y-15698061D01*
X11565000Y-15901939D01*
X11604774Y-16101898D01*
X11682795Y-16290256D01*
X11796063Y-16459774D01*
X11940226Y-16603937D01*
X12109744Y-16717205D01*
X12298102Y-16795226D01*
X12498061Y-16835000D01*
X12701939Y-16835000D01*
X12901898Y-16795226D01*
X13090256Y-16717205D01*
X13259774Y-16603937D01*
X13403937Y-16459774D01*
X13517205Y-16290256D01*
X13595226Y-16101898D01*
X13635000Y-15901939D01*
X13635000Y-15698061D01*
X13595226Y-15498102D01*
X13517205Y-15309744D01*
X13403937Y-15140226D01*
X13259774Y-14996063D01*
X13090256Y-14882795D01*
X12901898Y-14804774D01*
X12701939Y-14765000D01*
X12498061Y-14765000D01*
X12298102Y-14804774D01*
X12109744Y-14882795D01*
X11940226Y-14996063D01*
X11796063Y-15140226D01*
X11682795Y-15309744D01*
X11604774Y-15498102D01*
X11565000Y-15698061D01*
X10660000Y-15698061D01*
X10660000Y-11598057D01*
X16265000Y-11598057D01*
X16265000Y-11801935D01*
X16304774Y-12001894D01*
X16382795Y-12190252D01*
X16496063Y-12359770D01*
X16640226Y-12503933D01*
X16809744Y-12617201D01*
X16998102Y-12695222D01*
X17198061Y-12734996D01*
X17401939Y-12734996D01*
X17601898Y-12695222D01*
X17790256Y-12617201D01*
X17959774Y-12503933D01*
X18103937Y-12359770D01*
X18217205Y-12190252D01*
X18295226Y-12001894D01*
X18335000Y-11801935D01*
X18335000Y-11598057D01*
X18295226Y-11398098D01*
X18217205Y-11209740D01*
X18103937Y-11040222D01*
X17959774Y-10896059D01*
X17790256Y-10782791D01*
X17601898Y-10704770D01*
X17401939Y-10664996D01*
X17198061Y-10664996D01*
X16998102Y-10704770D01*
X16809744Y-10782791D01*
X16640226Y-10896059D01*
X16496063Y-11040222D01*
X16382795Y-11209740D01*
X16304774Y-11398098D01*
X16265000Y-11598057D01*
X10660000Y-11598057D01*
X10660000Y-10660000D01*
X20164785Y-10660000D01*
X20109744Y-10682799D01*
%TD*%
M02*
