%TF.GenerationSoftware,KiCad,Pcbnew,(5.1.6)-1*%
%TF.CreationDate,2020-10-15T17:46:37+08:00*%
%TF.ProjectId,Music_Player,4d757369-635f-4506-9c61-7965722e6b69,rev?*%
%TF.SameCoordinates,Original*%
%TF.FileFunction,Legend,Bot*%
%TF.FilePolarity,Positive*%
%FSLAX46Y46*%
G04 Gerber Fmt 4.6, Leading zero omitted, Abs format (unit mm)*
G04 Created by KiCad (PCBNEW (5.1.6)-1) date 2020-10-15 17:46:37*
%MOMM*%
%LPD*%
G01*
G04 APERTURE LIST*
%ADD10C,0.010000*%
%ADD11C,0.120000*%
%ADD12C,0.100000*%
G04 APERTURE END LIST*
D10*
%TO.C,G\u002A\u002A\u002A*%
G36*
X18230824Y-14500319D02*
G01*
X18204053Y-14518699D01*
X18184418Y-14543513D01*
X18181247Y-14550498D01*
X18178238Y-14578936D01*
X18186317Y-14609787D01*
X18203022Y-14635304D01*
X18210065Y-14641274D01*
X18236897Y-14651590D01*
X18269467Y-14653023D01*
X18299099Y-14645574D01*
X18306601Y-14641274D01*
X18325631Y-14619247D01*
X18336851Y-14589309D01*
X18337133Y-14580367D01*
X18299853Y-14580367D01*
X18287147Y-14604100D01*
X18286654Y-14604650D01*
X18266219Y-14618538D01*
X18244776Y-14615606D01*
X18231483Y-14606121D01*
X18217212Y-14584437D01*
X18217199Y-14562339D01*
X18229656Y-14544535D01*
X18252794Y-14535733D01*
X18258333Y-14535466D01*
X18283728Y-14541854D01*
X18298141Y-14558219D01*
X18299853Y-14580367D01*
X18337133Y-14580367D01*
X18337802Y-14559209D01*
X18335420Y-14550498D01*
X18318720Y-14524785D01*
X18293202Y-14504254D01*
X18265267Y-14493669D01*
X18258333Y-14493133D01*
X18230824Y-14500319D01*
G37*
X18230824Y-14500319D02*
X18204053Y-14518699D01*
X18184418Y-14543513D01*
X18181247Y-14550498D01*
X18178238Y-14578936D01*
X18186317Y-14609787D01*
X18203022Y-14635304D01*
X18210065Y-14641274D01*
X18236897Y-14651590D01*
X18269467Y-14653023D01*
X18299099Y-14645574D01*
X18306601Y-14641274D01*
X18325631Y-14619247D01*
X18336851Y-14589309D01*
X18337133Y-14580367D01*
X18299853Y-14580367D01*
X18287147Y-14604100D01*
X18286654Y-14604650D01*
X18266219Y-14618538D01*
X18244776Y-14615606D01*
X18231483Y-14606121D01*
X18217212Y-14584437D01*
X18217199Y-14562339D01*
X18229656Y-14544535D01*
X18252794Y-14535733D01*
X18258333Y-14535466D01*
X18283728Y-14541854D01*
X18298141Y-14558219D01*
X18299853Y-14580367D01*
X18337133Y-14580367D01*
X18337802Y-14559209D01*
X18335420Y-14550498D01*
X18318720Y-14524785D01*
X18293202Y-14504254D01*
X18265267Y-14493669D01*
X18258333Y-14493133D01*
X18230824Y-14500319D01*
G36*
X18419717Y-10619313D02*
G01*
X18415414Y-10628145D01*
X18407687Y-10649600D01*
X18397558Y-10680298D01*
X18386047Y-10716854D01*
X18374175Y-10755886D01*
X18362962Y-10794012D01*
X18353429Y-10827848D01*
X18346598Y-10854012D01*
X18343488Y-10869120D01*
X18343634Y-10871464D01*
X18352673Y-10874889D01*
X18374279Y-10882414D01*
X18404944Y-10892832D01*
X18431754Y-10901809D01*
X18637845Y-10978442D01*
X18843539Y-11070658D01*
X19046569Y-11177211D01*
X19244668Y-11296853D01*
X19435568Y-11428339D01*
X19553733Y-11518777D01*
X19597603Y-11555106D01*
X19648059Y-11599104D01*
X19702639Y-11648422D01*
X19758880Y-11700711D01*
X19814318Y-11753623D01*
X19866489Y-11804809D01*
X19912932Y-11851921D01*
X19951182Y-11892610D01*
X19977066Y-11922411D01*
X19996967Y-11945520D01*
X20013496Y-11962275D01*
X20023278Y-11969278D01*
X20023633Y-11969316D01*
X20032979Y-11964437D01*
X20053151Y-11950938D01*
X20081618Y-11930608D01*
X20115849Y-11905233D01*
X20135222Y-11890535D01*
X20238343Y-11811683D01*
X20205279Y-11771671D01*
X20142936Y-11700043D01*
X20069717Y-11622372D01*
X19988927Y-11541875D01*
X19903866Y-11461770D01*
X19817835Y-11385275D01*
X19752700Y-11330606D01*
X19726129Y-11308426D01*
X19705067Y-11289877D01*
X19692659Y-11277774D01*
X19690727Y-11275152D01*
X19694269Y-11265674D01*
X19706014Y-11246134D01*
X19723849Y-11219900D01*
X19735177Y-11204262D01*
X19755673Y-11175862D01*
X19771602Y-11152487D01*
X19776819Y-11143909D01*
X19717536Y-11143909D01*
X19714799Y-11155822D01*
X19703693Y-11175001D01*
X19687831Y-11197827D01*
X19651100Y-11248988D01*
X19625700Y-11230004D01*
X19609381Y-11218158D01*
X19582581Y-11199091D01*
X19548734Y-11175229D01*
X19511273Y-11149001D01*
X19502933Y-11143186D01*
X19460810Y-11114253D01*
X19417173Y-11084978D01*
X19377048Y-11058692D01*
X19345460Y-11038728D01*
X19344256Y-11037993D01*
X19316387Y-11020355D01*
X19295122Y-11005650D01*
X19283840Y-10996262D01*
X19282872Y-10994623D01*
X19287058Y-10984989D01*
X19298145Y-10965269D01*
X19313808Y-10939578D01*
X19315179Y-10937404D01*
X19347558Y-10886194D01*
X19524729Y-11005798D01*
X19573737Y-11038997D01*
X19618451Y-11069505D01*
X19656831Y-11095912D01*
X19686840Y-11116813D01*
X19706441Y-11130797D01*
X19713231Y-11136034D01*
X19717536Y-11143909D01*
X19776819Y-11143909D01*
X19780729Y-11137482D01*
X19782044Y-11134065D01*
X19775206Y-11127943D01*
X19755955Y-11113605D01*
X19725969Y-11092226D01*
X19686927Y-11064982D01*
X19640504Y-11033048D01*
X19588380Y-10997599D01*
X19558313Y-10977316D01*
X19334871Y-10826998D01*
X19289785Y-10898833D01*
X19270239Y-10929100D01*
X19253692Y-10953106D01*
X19242327Y-10967769D01*
X19238722Y-10970834D01*
X19228811Y-10966906D01*
X19209060Y-10956526D01*
X19187922Y-10944391D01*
X19153504Y-10925108D01*
X19106957Y-10900676D01*
X19051667Y-10872730D01*
X18991020Y-10842906D01*
X18928400Y-10812840D01*
X18867194Y-10784167D01*
X18810787Y-10758525D01*
X18762565Y-10737548D01*
X18744006Y-10729893D01*
X18698000Y-10711853D01*
X18648420Y-10693228D01*
X18597878Y-10674909D01*
X18548990Y-10657789D01*
X18504370Y-10642757D01*
X18466631Y-10630707D01*
X18438388Y-10622528D01*
X18422255Y-10619112D01*
X18419717Y-10619313D01*
G37*
X18419717Y-10619313D02*
X18415414Y-10628145D01*
X18407687Y-10649600D01*
X18397558Y-10680298D01*
X18386047Y-10716854D01*
X18374175Y-10755886D01*
X18362962Y-10794012D01*
X18353429Y-10827848D01*
X18346598Y-10854012D01*
X18343488Y-10869120D01*
X18343634Y-10871464D01*
X18352673Y-10874889D01*
X18374279Y-10882414D01*
X18404944Y-10892832D01*
X18431754Y-10901809D01*
X18637845Y-10978442D01*
X18843539Y-11070658D01*
X19046569Y-11177211D01*
X19244668Y-11296853D01*
X19435568Y-11428339D01*
X19553733Y-11518777D01*
X19597603Y-11555106D01*
X19648059Y-11599104D01*
X19702639Y-11648422D01*
X19758880Y-11700711D01*
X19814318Y-11753623D01*
X19866489Y-11804809D01*
X19912932Y-11851921D01*
X19951182Y-11892610D01*
X19977066Y-11922411D01*
X19996967Y-11945520D01*
X20013496Y-11962275D01*
X20023278Y-11969278D01*
X20023633Y-11969316D01*
X20032979Y-11964437D01*
X20053151Y-11950938D01*
X20081618Y-11930608D01*
X20115849Y-11905233D01*
X20135222Y-11890535D01*
X20238343Y-11811683D01*
X20205279Y-11771671D01*
X20142936Y-11700043D01*
X20069717Y-11622372D01*
X19988927Y-11541875D01*
X19903866Y-11461770D01*
X19817835Y-11385275D01*
X19752700Y-11330606D01*
X19726129Y-11308426D01*
X19705067Y-11289877D01*
X19692659Y-11277774D01*
X19690727Y-11275152D01*
X19694269Y-11265674D01*
X19706014Y-11246134D01*
X19723849Y-11219900D01*
X19735177Y-11204262D01*
X19755673Y-11175862D01*
X19771602Y-11152487D01*
X19776819Y-11143909D01*
X19717536Y-11143909D01*
X19714799Y-11155822D01*
X19703693Y-11175001D01*
X19687831Y-11197827D01*
X19651100Y-11248988D01*
X19625700Y-11230004D01*
X19609381Y-11218158D01*
X19582581Y-11199091D01*
X19548734Y-11175229D01*
X19511273Y-11149001D01*
X19502933Y-11143186D01*
X19460810Y-11114253D01*
X19417173Y-11084978D01*
X19377048Y-11058692D01*
X19345460Y-11038728D01*
X19344256Y-11037993D01*
X19316387Y-11020355D01*
X19295122Y-11005650D01*
X19283840Y-10996262D01*
X19282872Y-10994623D01*
X19287058Y-10984989D01*
X19298145Y-10965269D01*
X19313808Y-10939578D01*
X19315179Y-10937404D01*
X19347558Y-10886194D01*
X19524729Y-11005798D01*
X19573737Y-11038997D01*
X19618451Y-11069505D01*
X19656831Y-11095912D01*
X19686840Y-11116813D01*
X19706441Y-11130797D01*
X19713231Y-11136034D01*
X19717536Y-11143909D01*
X19776819Y-11143909D01*
X19780729Y-11137482D01*
X19782044Y-11134065D01*
X19775206Y-11127943D01*
X19755955Y-11113605D01*
X19725969Y-11092226D01*
X19686927Y-11064982D01*
X19640504Y-11033048D01*
X19588380Y-10997599D01*
X19558313Y-10977316D01*
X19334871Y-10826998D01*
X19289785Y-10898833D01*
X19270239Y-10929100D01*
X19253692Y-10953106D01*
X19242327Y-10967769D01*
X19238722Y-10970834D01*
X19228811Y-10966906D01*
X19209060Y-10956526D01*
X19187922Y-10944391D01*
X19153504Y-10925108D01*
X19106957Y-10900676D01*
X19051667Y-10872730D01*
X18991020Y-10842906D01*
X18928400Y-10812840D01*
X18867194Y-10784167D01*
X18810787Y-10758525D01*
X18762565Y-10737548D01*
X18744006Y-10729893D01*
X18698000Y-10711853D01*
X18648420Y-10693228D01*
X18597878Y-10674909D01*
X18548990Y-10657789D01*
X18504370Y-10642757D01*
X18466631Y-10630707D01*
X18438388Y-10622528D01*
X18422255Y-10619112D01*
X18419717Y-10619313D01*
G36*
X16833950Y-12992452D02*
G01*
X16781129Y-13045273D01*
X16874003Y-13138437D01*
X16906163Y-13170412D01*
X16934102Y-13197653D01*
X16955672Y-13218108D01*
X16968722Y-13229722D01*
X16971520Y-13231600D01*
X16979185Y-13225989D01*
X16995595Y-13211032D01*
X17017712Y-13189542D01*
X17026542Y-13180690D01*
X17076920Y-13129781D01*
X16886771Y-12939632D01*
X16833950Y-12992452D01*
G37*
X16833950Y-12992452D02*
X16781129Y-13045273D01*
X16874003Y-13138437D01*
X16906163Y-13170412D01*
X16934102Y-13197653D01*
X16955672Y-13218108D01*
X16968722Y-13229722D01*
X16971520Y-13231600D01*
X16979185Y-13225989D01*
X16995595Y-13211032D01*
X17017712Y-13189542D01*
X17026542Y-13180690D01*
X17076920Y-13129781D01*
X16886771Y-12939632D01*
X16833950Y-12992452D01*
G36*
X17162032Y-13129962D02*
G01*
X17212877Y-13180808D01*
X17263723Y-13231653D01*
X17454133Y-13040701D01*
X17352181Y-12939813D01*
X17162032Y-13129962D01*
G37*
X17162032Y-13129962D02*
X17212877Y-13180808D01*
X17263723Y-13231653D01*
X17454133Y-13040701D01*
X17352181Y-12939813D01*
X17162032Y-13129962D01*
G36*
X16690017Y-13136386D02*
G01*
X16637196Y-13189207D01*
X16730070Y-13282370D01*
X16762229Y-13314345D01*
X16790169Y-13341587D01*
X16811738Y-13362041D01*
X16824789Y-13373656D01*
X16827587Y-13375533D01*
X16835252Y-13369923D01*
X16851662Y-13354966D01*
X16873778Y-13333475D01*
X16882608Y-13324624D01*
X16932987Y-13273714D01*
X16837912Y-13178639D01*
X16742837Y-13083565D01*
X16690017Y-13136386D01*
G37*
X16690017Y-13136386D02*
X16637196Y-13189207D01*
X16730070Y-13282370D01*
X16762229Y-13314345D01*
X16790169Y-13341587D01*
X16811738Y-13362041D01*
X16824789Y-13373656D01*
X16827587Y-13375533D01*
X16835252Y-13369923D01*
X16851662Y-13354966D01*
X16873778Y-13333475D01*
X16882608Y-13324624D01*
X16932987Y-13273714D01*
X16837912Y-13178639D01*
X16742837Y-13083565D01*
X16690017Y-13136386D01*
G36*
X17401039Y-13178821D02*
G01*
X17305965Y-13273896D01*
X17407656Y-13375587D01*
X17598066Y-13184635D01*
X17547090Y-13134191D01*
X17496114Y-13083746D01*
X17401039Y-13178821D01*
G37*
X17401039Y-13178821D02*
X17305965Y-13273896D01*
X17407656Y-13375587D01*
X17598066Y-13184635D01*
X17547090Y-13134191D01*
X17496114Y-13083746D01*
X17401039Y-13178821D01*
G36*
X16493262Y-13333140D02*
G01*
X16586137Y-13426303D01*
X16618296Y-13458278D01*
X16646235Y-13485520D01*
X16667805Y-13505975D01*
X16680855Y-13517589D01*
X16683654Y-13519467D01*
X16691318Y-13513856D01*
X16707729Y-13498899D01*
X16729845Y-13477408D01*
X16738675Y-13468557D01*
X16789053Y-13417647D01*
X16598904Y-13227498D01*
X16493262Y-13333140D01*
G37*
X16493262Y-13333140D02*
X16586137Y-13426303D01*
X16618296Y-13458278D01*
X16646235Y-13485520D01*
X16667805Y-13505975D01*
X16680855Y-13517589D01*
X16683654Y-13519467D01*
X16691318Y-13513856D01*
X16707729Y-13498899D01*
X16729845Y-13477408D01*
X16738675Y-13468557D01*
X16789053Y-13417647D01*
X16598904Y-13227498D01*
X16493262Y-13333140D01*
G36*
X17449898Y-13417829D02*
G01*
X17500744Y-13468674D01*
X17551589Y-13519520D01*
X17646794Y-13424044D01*
X17742000Y-13328568D01*
X17691023Y-13278124D01*
X17640047Y-13227680D01*
X17449898Y-13417829D01*
G37*
X17449898Y-13417829D02*
X17500744Y-13468674D01*
X17551589Y-13519520D01*
X17646794Y-13424044D01*
X17742000Y-13328568D01*
X17691023Y-13278124D01*
X17640047Y-13227680D01*
X17449898Y-13417829D01*
G36*
X16402150Y-13424252D02*
G01*
X16349329Y-13477073D01*
X16442203Y-13570237D01*
X16474363Y-13602212D01*
X16502302Y-13629453D01*
X16523872Y-13649908D01*
X16536922Y-13661522D01*
X16539720Y-13663400D01*
X16547385Y-13657789D01*
X16563795Y-13642832D01*
X16585912Y-13621342D01*
X16594742Y-13612490D01*
X16645120Y-13561581D01*
X16454971Y-13371432D01*
X16402150Y-13424252D01*
G37*
X16402150Y-13424252D02*
X16349329Y-13477073D01*
X16442203Y-13570237D01*
X16474363Y-13602212D01*
X16502302Y-13629453D01*
X16523872Y-13649908D01*
X16536922Y-13661522D01*
X16539720Y-13663400D01*
X16547385Y-13657789D01*
X16563795Y-13642832D01*
X16585912Y-13621342D01*
X16594742Y-13612490D01*
X16645120Y-13561581D01*
X16454971Y-13371432D01*
X16402150Y-13424252D01*
G36*
X17593832Y-13561762D02*
G01*
X17644677Y-13612608D01*
X17695523Y-13663453D01*
X17885933Y-13472501D01*
X17783981Y-13371613D01*
X17593832Y-13561762D01*
G37*
X17593832Y-13561762D02*
X17644677Y-13612608D01*
X17695523Y-13663453D01*
X17885933Y-13472501D01*
X17783981Y-13371613D01*
X17593832Y-13561762D01*
G36*
X16209346Y-13617056D02*
G01*
X16400298Y-13807466D01*
X16450742Y-13756490D01*
X16501187Y-13705514D01*
X16406112Y-13610439D01*
X16311037Y-13515365D01*
X16209346Y-13617056D01*
G37*
X16209346Y-13617056D02*
X16400298Y-13807466D01*
X16450742Y-13756490D01*
X16501187Y-13705514D01*
X16406112Y-13610439D01*
X16311037Y-13515365D01*
X16209346Y-13617056D01*
G36*
X17832839Y-13610621D02*
G01*
X17737765Y-13705696D01*
X17839456Y-13807387D01*
X18029866Y-13616435D01*
X17978890Y-13565991D01*
X17927914Y-13515546D01*
X17832839Y-13610621D01*
G37*
X17832839Y-13610621D02*
X17737765Y-13705696D01*
X17839456Y-13807387D01*
X18029866Y-13616435D01*
X17978890Y-13565991D01*
X17927914Y-13515546D01*
X17832839Y-13610621D01*
G36*
X16116259Y-13710144D02*
G01*
X16065413Y-13760989D01*
X16160889Y-13856194D01*
X16256365Y-13951400D01*
X16306809Y-13900423D01*
X16357253Y-13849447D01*
X16167104Y-13659298D01*
X16116259Y-13710144D01*
G37*
X16116259Y-13710144D02*
X16065413Y-13760989D01*
X16160889Y-13856194D01*
X16256365Y-13951400D01*
X16306809Y-13900423D01*
X16357253Y-13849447D01*
X16167104Y-13659298D01*
X16116259Y-13710144D01*
G36*
X17881698Y-13849629D02*
G01*
X17932544Y-13900474D01*
X17983389Y-13951320D01*
X18078594Y-13855844D01*
X18173800Y-13760368D01*
X18122823Y-13709924D01*
X18071847Y-13659480D01*
X17881698Y-13849629D01*
G37*
X17881698Y-13849629D02*
X17932544Y-13900474D01*
X17983389Y-13951320D01*
X18078594Y-13855844D01*
X18173800Y-13760368D01*
X18122823Y-13709924D01*
X18071847Y-13659480D01*
X17881698Y-13849629D01*
G36*
X15972325Y-13854077D02*
G01*
X15921480Y-13904923D01*
X16112432Y-14095333D01*
X16213320Y-13993381D01*
X16023171Y-13803232D01*
X15972325Y-13854077D01*
G37*
X15972325Y-13854077D02*
X15921480Y-13904923D01*
X16112432Y-14095333D01*
X16213320Y-13993381D01*
X16023171Y-13803232D01*
X15972325Y-13854077D01*
G36*
X18025632Y-13993562D02*
G01*
X18076477Y-14044408D01*
X18127323Y-14095253D01*
X18317733Y-13904301D01*
X18215781Y-13803413D01*
X18025632Y-13993562D01*
G37*
X18025632Y-13993562D02*
X18076477Y-14044408D01*
X18127323Y-14095253D01*
X18317733Y-13904301D01*
X18215781Y-13803413D01*
X18025632Y-13993562D01*
G36*
X15777546Y-14048856D02*
G01*
X15968498Y-14239266D01*
X16018942Y-14188290D01*
X16069387Y-14137314D01*
X15974312Y-14042239D01*
X15879237Y-13947165D01*
X15777546Y-14048856D01*
G37*
X15777546Y-14048856D02*
X15968498Y-14239266D01*
X16018942Y-14188290D01*
X16069387Y-14137314D01*
X15974312Y-14042239D01*
X15879237Y-13947165D01*
X15777546Y-14048856D01*
G36*
X18346699Y-13956976D02*
G01*
X18328552Y-13972709D01*
X18303124Y-13996378D01*
X18272689Y-14025892D01*
X18256019Y-14042475D01*
X18165093Y-14133683D01*
X18218249Y-14186367D01*
X18271405Y-14239050D01*
X18362236Y-14147937D01*
X18393810Y-14115724D01*
X18420614Y-14087348D01*
X18440562Y-14065099D01*
X18451568Y-14051267D01*
X18453066Y-14048206D01*
X18447289Y-14038108D01*
X18432464Y-14020667D01*
X18412356Y-13999616D01*
X18390728Y-13978685D01*
X18371345Y-13961606D01*
X18357969Y-13952111D01*
X18355289Y-13951266D01*
X18346699Y-13956976D01*
G37*
X18346699Y-13956976D02*
X18328552Y-13972709D01*
X18303124Y-13996378D01*
X18272689Y-14025892D01*
X18256019Y-14042475D01*
X18165093Y-14133683D01*
X18218249Y-14186367D01*
X18271405Y-14239050D01*
X18362236Y-14147937D01*
X18393810Y-14115724D01*
X18420614Y-14087348D01*
X18440562Y-14065099D01*
X18451568Y-14051267D01*
X18453066Y-14048206D01*
X18447289Y-14038108D01*
X18432464Y-14020667D01*
X18412356Y-13999616D01*
X18390728Y-13978685D01*
X18371345Y-13961606D01*
X18357969Y-13952111D01*
X18355289Y-13951266D01*
X18346699Y-13956976D01*
G36*
X15684459Y-14141944D02*
G01*
X15633613Y-14192789D01*
X15729089Y-14287994D01*
X15824565Y-14383200D01*
X15875009Y-14332223D01*
X15925453Y-14281247D01*
X15735304Y-14091098D01*
X15684459Y-14141944D01*
G37*
X15684459Y-14141944D02*
X15633613Y-14192789D01*
X15729089Y-14287994D01*
X15824565Y-14383200D01*
X15875009Y-14332223D01*
X15925453Y-14281247D01*
X15735304Y-14091098D01*
X15684459Y-14141944D01*
G36*
X18490632Y-14100909D02*
G01*
X18472486Y-14116643D01*
X18447058Y-14140312D01*
X18416623Y-14169826D01*
X18399952Y-14186408D01*
X18309027Y-14277617D01*
X18362182Y-14330300D01*
X18415338Y-14382983D01*
X18506169Y-14291870D01*
X18537744Y-14259657D01*
X18564548Y-14231281D01*
X18584496Y-14209032D01*
X18595502Y-14195200D01*
X18597000Y-14192139D01*
X18591222Y-14182041D01*
X18576397Y-14164601D01*
X18556289Y-14143549D01*
X18534661Y-14122619D01*
X18515278Y-14105540D01*
X18501903Y-14096044D01*
X18499223Y-14095200D01*
X18490632Y-14100909D01*
G37*
X18490632Y-14100909D02*
X18472486Y-14116643D01*
X18447058Y-14140312D01*
X18416623Y-14169826D01*
X18399952Y-14186408D01*
X18309027Y-14277617D01*
X18362182Y-14330300D01*
X18415338Y-14382983D01*
X18506169Y-14291870D01*
X18537744Y-14259657D01*
X18564548Y-14231281D01*
X18584496Y-14209032D01*
X18595502Y-14195200D01*
X18597000Y-14192139D01*
X18591222Y-14182041D01*
X18576397Y-14164601D01*
X18556289Y-14143549D01*
X18534661Y-14122619D01*
X18515278Y-14105540D01*
X18501903Y-14096044D01*
X18499223Y-14095200D01*
X18490632Y-14100909D01*
G36*
X15540525Y-14285877D02*
G01*
X15489680Y-14336723D01*
X15680632Y-14527133D01*
X15781520Y-14425181D01*
X15591371Y-14235032D01*
X15540525Y-14285877D01*
G37*
X15540525Y-14285877D02*
X15489680Y-14336723D01*
X15680632Y-14527133D01*
X15781520Y-14425181D01*
X15591371Y-14235032D01*
X15540525Y-14285877D01*
G36*
X18634566Y-14244842D02*
G01*
X18616419Y-14260576D01*
X18590991Y-14284245D01*
X18560556Y-14313759D01*
X18543885Y-14330342D01*
X18452960Y-14421550D01*
X18506116Y-14474233D01*
X18559272Y-14526917D01*
X18650102Y-14435803D01*
X18681677Y-14403590D01*
X18708481Y-14375214D01*
X18728429Y-14352965D01*
X18739435Y-14339133D01*
X18740933Y-14336072D01*
X18735155Y-14325974D01*
X18720330Y-14308534D01*
X18700222Y-14287483D01*
X18678595Y-14266552D01*
X18659212Y-14249473D01*
X18645836Y-14239977D01*
X18643156Y-14239133D01*
X18634566Y-14244842D01*
G37*
X18634566Y-14244842D02*
X18616419Y-14260576D01*
X18590991Y-14284245D01*
X18560556Y-14313759D01*
X18543885Y-14330342D01*
X18452960Y-14421550D01*
X18506116Y-14474233D01*
X18559272Y-14526917D01*
X18650102Y-14435803D01*
X18681677Y-14403590D01*
X18708481Y-14375214D01*
X18728429Y-14352965D01*
X18739435Y-14339133D01*
X18740933Y-14336072D01*
X18735155Y-14325974D01*
X18720330Y-14308534D01*
X18700222Y-14287483D01*
X18678595Y-14266552D01*
X18659212Y-14249473D01*
X18645836Y-14239977D01*
X18643156Y-14239133D01*
X18634566Y-14244842D01*
G36*
X15585236Y-14706659D02*
G01*
X15489840Y-14801784D01*
X15538205Y-14850658D01*
X15561155Y-14873312D01*
X15579469Y-14890390D01*
X15590034Y-14899021D01*
X15591213Y-14899533D01*
X15598476Y-14893846D01*
X15615477Y-14878155D01*
X15640064Y-14854514D01*
X15670087Y-14824978D01*
X15688639Y-14806461D01*
X15781423Y-14713388D01*
X15731027Y-14662461D01*
X15680632Y-14611533D01*
X15585236Y-14706659D01*
G37*
X15585236Y-14706659D02*
X15489840Y-14801784D01*
X15538205Y-14850658D01*
X15561155Y-14873312D01*
X15579469Y-14890390D01*
X15590034Y-14899021D01*
X15591213Y-14899533D01*
X15598476Y-14893846D01*
X15615477Y-14878155D01*
X15640064Y-14854514D01*
X15670087Y-14824978D01*
X15688639Y-14806461D01*
X15781423Y-14713388D01*
X15731027Y-14662461D01*
X15680632Y-14611533D01*
X15585236Y-14706659D01*
G36*
X18453150Y-14717872D02*
G01*
X18544263Y-14808702D01*
X18576476Y-14840277D01*
X18604852Y-14867081D01*
X18627101Y-14887029D01*
X18640933Y-14898035D01*
X18643994Y-14899533D01*
X18653747Y-14893888D01*
X18671521Y-14878991D01*
X18693708Y-14857899D01*
X18696772Y-14854817D01*
X18718180Y-14832087D01*
X18733871Y-14813419D01*
X18740828Y-14802440D01*
X18740933Y-14801756D01*
X18735224Y-14793166D01*
X18719490Y-14775019D01*
X18695821Y-14749591D01*
X18666307Y-14719156D01*
X18649725Y-14702485D01*
X18558516Y-14611560D01*
X18453150Y-14717872D01*
G37*
X18453150Y-14717872D02*
X18544263Y-14808702D01*
X18576476Y-14840277D01*
X18604852Y-14867081D01*
X18627101Y-14887029D01*
X18640933Y-14898035D01*
X18643994Y-14899533D01*
X18653747Y-14893888D01*
X18671521Y-14878991D01*
X18693708Y-14857899D01*
X18696772Y-14854817D01*
X18718180Y-14832087D01*
X18733871Y-14813419D01*
X18740828Y-14802440D01*
X18740933Y-14801756D01*
X18735224Y-14793166D01*
X18719490Y-14775019D01*
X18695821Y-14749591D01*
X18666307Y-14719156D01*
X18649725Y-14702485D01*
X18558516Y-14611560D01*
X18453150Y-14717872D01*
G36*
X15633773Y-14945717D02*
G01*
X15682138Y-14994592D01*
X15705088Y-15017245D01*
X15723403Y-15034324D01*
X15733968Y-15042954D01*
X15735146Y-15043467D01*
X15742409Y-15037779D01*
X15759410Y-15022088D01*
X15783997Y-14998447D01*
X15814020Y-14968911D01*
X15832573Y-14950394D01*
X15925357Y-14857321D01*
X15824565Y-14755467D01*
X15633773Y-14945717D01*
G37*
X15633773Y-14945717D02*
X15682138Y-14994592D01*
X15705088Y-15017245D01*
X15723403Y-15034324D01*
X15733968Y-15042954D01*
X15735146Y-15043467D01*
X15742409Y-15037779D01*
X15759410Y-15022088D01*
X15783997Y-14998447D01*
X15814020Y-14968911D01*
X15832573Y-14950394D01*
X15925357Y-14857321D01*
X15824565Y-14755467D01*
X15633773Y-14945717D01*
G36*
X18361900Y-14808649D02*
G01*
X18309216Y-14861805D01*
X18400330Y-14952636D01*
X18432543Y-14984210D01*
X18460919Y-15011014D01*
X18483168Y-15030962D01*
X18497000Y-15041968D01*
X18500061Y-15043467D01*
X18509814Y-15037822D01*
X18527588Y-15022925D01*
X18549775Y-15001832D01*
X18552839Y-14998750D01*
X18574247Y-14976020D01*
X18589938Y-14957353D01*
X18596894Y-14946374D01*
X18597000Y-14945689D01*
X18591291Y-14937099D01*
X18575557Y-14918952D01*
X18551888Y-14893524D01*
X18522374Y-14863089D01*
X18505791Y-14846419D01*
X18414583Y-14755493D01*
X18361900Y-14808649D01*
G37*
X18361900Y-14808649D02*
X18309216Y-14861805D01*
X18400330Y-14952636D01*
X18432543Y-14984210D01*
X18460919Y-15011014D01*
X18483168Y-15030962D01*
X18497000Y-15041968D01*
X18500061Y-15043467D01*
X18509814Y-15037822D01*
X18527588Y-15022925D01*
X18549775Y-15001832D01*
X18552839Y-14998750D01*
X18574247Y-14976020D01*
X18589938Y-14957353D01*
X18596894Y-14946374D01*
X18597000Y-14945689D01*
X18591291Y-14937099D01*
X18575557Y-14918952D01*
X18551888Y-14893524D01*
X18522374Y-14863089D01*
X18505791Y-14846419D01*
X18414583Y-14755493D01*
X18361900Y-14808649D01*
G36*
X15873103Y-14994525D02*
G01*
X15777707Y-15089650D01*
X15826072Y-15138525D01*
X15849021Y-15161179D01*
X15867336Y-15178257D01*
X15877901Y-15186887D01*
X15879079Y-15187400D01*
X15886343Y-15181713D01*
X15903343Y-15166021D01*
X15927931Y-15142380D01*
X15957953Y-15112844D01*
X15976506Y-15094327D01*
X16069290Y-15001255D01*
X16018894Y-14950327D01*
X15968498Y-14899400D01*
X15873103Y-14994525D01*
G37*
X15873103Y-14994525D02*
X15777707Y-15089650D01*
X15826072Y-15138525D01*
X15849021Y-15161179D01*
X15867336Y-15178257D01*
X15877901Y-15186887D01*
X15879079Y-15187400D01*
X15886343Y-15181713D01*
X15903343Y-15166021D01*
X15927931Y-15142380D01*
X15957953Y-15112844D01*
X15976506Y-15094327D01*
X16069290Y-15001255D01*
X16018894Y-14950327D01*
X15968498Y-14899400D01*
X15873103Y-14994525D01*
G36*
X18217966Y-14952582D02*
G01*
X18165283Y-15005738D01*
X18256396Y-15096569D01*
X18288609Y-15128144D01*
X18316985Y-15154948D01*
X18339234Y-15174896D01*
X18353066Y-15185902D01*
X18356127Y-15187400D01*
X18365881Y-15181755D01*
X18383655Y-15166858D01*
X18405842Y-15145766D01*
X18408906Y-15142684D01*
X18430314Y-15119953D01*
X18446004Y-15101286D01*
X18452961Y-15090307D01*
X18453066Y-15089623D01*
X18447357Y-15081032D01*
X18431624Y-15062886D01*
X18407955Y-15037458D01*
X18378441Y-15007023D01*
X18361858Y-14990352D01*
X18270650Y-14899427D01*
X18217966Y-14952582D01*
G37*
X18217966Y-14952582D02*
X18165283Y-15005738D01*
X18256396Y-15096569D01*
X18288609Y-15128144D01*
X18316985Y-15154948D01*
X18339234Y-15174896D01*
X18353066Y-15185902D01*
X18356127Y-15187400D01*
X18365881Y-15181755D01*
X18383655Y-15166858D01*
X18405842Y-15145766D01*
X18408906Y-15142684D01*
X18430314Y-15119953D01*
X18446004Y-15101286D01*
X18452961Y-15090307D01*
X18453066Y-15089623D01*
X18447357Y-15081032D01*
X18431624Y-15062886D01*
X18407955Y-15037458D01*
X18378441Y-15007023D01*
X18361858Y-14990352D01*
X18270650Y-14899427D01*
X18217966Y-14952582D01*
G36*
X18078611Y-15091935D02*
G01*
X18055865Y-15115437D01*
X18038758Y-15135003D01*
X18030201Y-15147242D01*
X18029733Y-15148890D01*
X18035480Y-15157999D01*
X18050970Y-15176037D01*
X18073575Y-15200373D01*
X18100667Y-15228375D01*
X18129618Y-15257411D01*
X18157802Y-15284851D01*
X18182590Y-15308061D01*
X18201354Y-15324412D01*
X18211467Y-15331271D01*
X18211904Y-15331333D01*
X18221803Y-15325684D01*
X18239690Y-15310778D01*
X18261933Y-15289674D01*
X18264972Y-15286617D01*
X18286374Y-15263930D01*
X18302063Y-15245360D01*
X18309026Y-15234510D01*
X18309133Y-15233839D01*
X18303444Y-15225330D01*
X18287764Y-15207223D01*
X18264179Y-15181793D01*
X18234771Y-15151316D01*
X18218311Y-15134672D01*
X18127489Y-15043567D01*
X18078611Y-15091935D01*
G37*
X18078611Y-15091935D02*
X18055865Y-15115437D01*
X18038758Y-15135003D01*
X18030201Y-15147242D01*
X18029733Y-15148890D01*
X18035480Y-15157999D01*
X18050970Y-15176037D01*
X18073575Y-15200373D01*
X18100667Y-15228375D01*
X18129618Y-15257411D01*
X18157802Y-15284851D01*
X18182590Y-15308061D01*
X18201354Y-15324412D01*
X18211467Y-15331271D01*
X18211904Y-15331333D01*
X18221803Y-15325684D01*
X18239690Y-15310778D01*
X18261933Y-15289674D01*
X18264972Y-15286617D01*
X18286374Y-15263930D01*
X18302063Y-15245360D01*
X18309026Y-15234510D01*
X18309133Y-15233839D01*
X18303444Y-15225330D01*
X18287764Y-15207223D01*
X18264179Y-15181793D01*
X18234771Y-15151316D01*
X18218311Y-15134672D01*
X18127489Y-15043567D01*
X18078611Y-15091935D01*
G36*
X17881976Y-15289121D02*
G01*
X17974760Y-15382194D01*
X18006904Y-15414152D01*
X18034826Y-15441377D01*
X18056377Y-15461812D01*
X18069406Y-15473404D01*
X18072187Y-15475267D01*
X18079884Y-15469663D01*
X18096246Y-15454768D01*
X18118157Y-15433454D01*
X18125195Y-15426392D01*
X18173560Y-15377517D01*
X17982768Y-15187267D01*
X17881976Y-15289121D01*
G37*
X17881976Y-15289121D02*
X17974760Y-15382194D01*
X18006904Y-15414152D01*
X18034826Y-15441377D01*
X18056377Y-15461812D01*
X18069406Y-15473404D01*
X18072187Y-15475267D01*
X18079884Y-15469663D01*
X18096246Y-15454768D01*
X18118157Y-15433454D01*
X18125195Y-15426392D01*
X18173560Y-15377517D01*
X17982768Y-15187267D01*
X17881976Y-15289121D01*
G36*
X17788439Y-15382127D02*
G01*
X17738043Y-15433055D01*
X17830827Y-15526127D01*
X17862970Y-15558086D01*
X17890893Y-15585310D01*
X17912444Y-15605745D01*
X17925473Y-15617337D01*
X17928254Y-15619200D01*
X17935951Y-15613597D01*
X17952312Y-15598702D01*
X17974224Y-15577388D01*
X17981261Y-15570325D01*
X18029626Y-15521450D01*
X17934230Y-15426325D01*
X17838835Y-15331200D01*
X17788439Y-15382127D01*
G37*
X17788439Y-15382127D02*
X17738043Y-15433055D01*
X17830827Y-15526127D01*
X17862970Y-15558086D01*
X17890893Y-15585310D01*
X17912444Y-15605745D01*
X17925473Y-15617337D01*
X17928254Y-15619200D01*
X17935951Y-15613597D01*
X17952312Y-15598702D01*
X17974224Y-15577388D01*
X17981261Y-15570325D01*
X18029626Y-15521450D01*
X17934230Y-15426325D01*
X17838835Y-15331200D01*
X17788439Y-15382127D01*
G36*
X21138920Y-15131817D02*
G01*
X21128656Y-15136534D01*
X21123830Y-15140272D01*
X21121585Y-15146519D01*
X21122523Y-15157326D01*
X21127244Y-15174746D01*
X21136349Y-15200828D01*
X21150440Y-15237623D01*
X21170116Y-15287184D01*
X21180013Y-15311858D01*
X21199890Y-15361647D01*
X21217427Y-15406158D01*
X21231695Y-15442987D01*
X21241767Y-15469733D01*
X21246716Y-15483993D01*
X21247067Y-15485559D01*
X21239945Y-15492510D01*
X21221993Y-15502103D01*
X21212369Y-15506220D01*
X21177672Y-15520103D01*
X21205783Y-15542135D01*
X21226095Y-15558050D01*
X21254253Y-15580105D01*
X21284769Y-15604003D01*
X21290249Y-15608294D01*
X21346605Y-15652421D01*
X21351442Y-15620994D01*
X21354373Y-15597742D01*
X21357861Y-15563925D01*
X21361265Y-15525871D01*
X21362084Y-15515714D01*
X21367891Y-15441862D01*
X21332788Y-15455651D01*
X21311173Y-15463242D01*
X21297335Y-15466407D01*
X21295098Y-15466003D01*
X21291370Y-15457449D01*
X21282412Y-15435482D01*
X21269168Y-15402457D01*
X21252581Y-15360730D01*
X21233592Y-15312655D01*
X21226783Y-15295350D01*
X21206949Y-15245847D01*
X21188727Y-15202162D01*
X21173137Y-15166598D01*
X21161199Y-15141458D01*
X21153934Y-15129045D01*
X21152704Y-15128133D01*
X21138920Y-15131817D01*
G37*
X21138920Y-15131817D02*
X21128656Y-15136534D01*
X21123830Y-15140272D01*
X21121585Y-15146519D01*
X21122523Y-15157326D01*
X21127244Y-15174746D01*
X21136349Y-15200828D01*
X21150440Y-15237623D01*
X21170116Y-15287184D01*
X21180013Y-15311858D01*
X21199890Y-15361647D01*
X21217427Y-15406158D01*
X21231695Y-15442987D01*
X21241767Y-15469733D01*
X21246716Y-15483993D01*
X21247067Y-15485559D01*
X21239945Y-15492510D01*
X21221993Y-15502103D01*
X21212369Y-15506220D01*
X21177672Y-15520103D01*
X21205783Y-15542135D01*
X21226095Y-15558050D01*
X21254253Y-15580105D01*
X21284769Y-15604003D01*
X21290249Y-15608294D01*
X21346605Y-15652421D01*
X21351442Y-15620994D01*
X21354373Y-15597742D01*
X21357861Y-15563925D01*
X21361265Y-15525871D01*
X21362084Y-15515714D01*
X21367891Y-15441862D01*
X21332788Y-15455651D01*
X21311173Y-15463242D01*
X21297335Y-15466407D01*
X21295098Y-15466003D01*
X21291370Y-15457449D01*
X21282412Y-15435482D01*
X21269168Y-15402457D01*
X21252581Y-15360730D01*
X21233592Y-15312655D01*
X21226783Y-15295350D01*
X21206949Y-15245847D01*
X21188727Y-15202162D01*
X21173137Y-15166598D01*
X21161199Y-15141458D01*
X21153934Y-15129045D01*
X21152704Y-15128133D01*
X21138920Y-15131817D01*
G36*
X20923244Y-15219939D02*
G01*
X20910623Y-15227942D01*
X20908400Y-15233059D01*
X20911428Y-15243604D01*
X20919873Y-15267303D01*
X20932781Y-15301624D01*
X20949196Y-15344033D01*
X20968161Y-15391997D01*
X20971900Y-15401345D01*
X20991221Y-15449971D01*
X21008173Y-15493420D01*
X21021804Y-15529182D01*
X21031160Y-15554748D01*
X21035286Y-15567609D01*
X21035400Y-15568409D01*
X21028261Y-15576525D01*
X21010319Y-15586742D01*
X21001494Y-15590570D01*
X20967589Y-15604136D01*
X21045944Y-15666288D01*
X21081389Y-15694204D01*
X21105952Y-15712809D01*
X21121895Y-15723467D01*
X21131481Y-15727542D01*
X21136971Y-15726400D01*
X21139776Y-15722917D01*
X21141984Y-15712195D01*
X21144805Y-15688636D01*
X21147790Y-15656302D01*
X21149348Y-15636133D01*
X21152317Y-15599407D01*
X21155448Y-15567946D01*
X21158253Y-15546387D01*
X21159401Y-15540700D01*
X21160874Y-15531941D01*
X21155899Y-15530053D01*
X21140799Y-15534918D01*
X21128609Y-15539724D01*
X21105370Y-15546911D01*
X21089696Y-15547747D01*
X21086909Y-15546257D01*
X21081882Y-15536387D01*
X21071766Y-15513262D01*
X21057614Y-15479404D01*
X21040479Y-15437340D01*
X21021413Y-15389593D01*
X21018467Y-15382133D01*
X20999294Y-15333879D01*
X20982012Y-15291037D01*
X20967646Y-15256101D01*
X20957226Y-15231564D01*
X20951777Y-15219919D01*
X20951442Y-15219427D01*
X20939692Y-15216201D01*
X20923244Y-15219939D01*
G37*
X20923244Y-15219939D02*
X20910623Y-15227942D01*
X20908400Y-15233059D01*
X20911428Y-15243604D01*
X20919873Y-15267303D01*
X20932781Y-15301624D01*
X20949196Y-15344033D01*
X20968161Y-15391997D01*
X20971900Y-15401345D01*
X20991221Y-15449971D01*
X21008173Y-15493420D01*
X21021804Y-15529182D01*
X21031160Y-15554748D01*
X21035286Y-15567609D01*
X21035400Y-15568409D01*
X21028261Y-15576525D01*
X21010319Y-15586742D01*
X21001494Y-15590570D01*
X20967589Y-15604136D01*
X21045944Y-15666288D01*
X21081389Y-15694204D01*
X21105952Y-15712809D01*
X21121895Y-15723467D01*
X21131481Y-15727542D01*
X21136971Y-15726400D01*
X21139776Y-15722917D01*
X21141984Y-15712195D01*
X21144805Y-15688636D01*
X21147790Y-15656302D01*
X21149348Y-15636133D01*
X21152317Y-15599407D01*
X21155448Y-15567946D01*
X21158253Y-15546387D01*
X21159401Y-15540700D01*
X21160874Y-15531941D01*
X21155899Y-15530053D01*
X21140799Y-15534918D01*
X21128609Y-15539724D01*
X21105370Y-15546911D01*
X21089696Y-15547747D01*
X21086909Y-15546257D01*
X21081882Y-15536387D01*
X21071766Y-15513262D01*
X21057614Y-15479404D01*
X21040479Y-15437340D01*
X21021413Y-15389593D01*
X21018467Y-15382133D01*
X20999294Y-15333879D01*
X20982012Y-15291037D01*
X20967646Y-15256101D01*
X20957226Y-15231564D01*
X20951777Y-15219919D01*
X20951442Y-15219427D01*
X20939692Y-15216201D01*
X20923244Y-15219939D01*
G36*
X17644506Y-15526061D02*
G01*
X17594110Y-15576988D01*
X17686894Y-15670061D01*
X17719037Y-15702019D01*
X17746959Y-15729243D01*
X17768511Y-15749679D01*
X17781540Y-15761270D01*
X17784320Y-15763133D01*
X17792017Y-15757530D01*
X17808379Y-15742635D01*
X17830290Y-15721321D01*
X17837328Y-15714258D01*
X17885693Y-15665384D01*
X17790297Y-15570259D01*
X17694901Y-15475133D01*
X17644506Y-15526061D01*
G37*
X17644506Y-15526061D02*
X17594110Y-15576988D01*
X17686894Y-15670061D01*
X17719037Y-15702019D01*
X17746959Y-15729243D01*
X17768511Y-15749679D01*
X17781540Y-15761270D01*
X17784320Y-15763133D01*
X17792017Y-15757530D01*
X17808379Y-15742635D01*
X17830290Y-15721321D01*
X17837328Y-15714258D01*
X17885693Y-15665384D01*
X17790297Y-15570259D01*
X17694901Y-15475133D01*
X17644506Y-15526061D01*
G36*
X17450176Y-15720921D02*
G01*
X17542960Y-15813994D01*
X17575104Y-15845952D01*
X17603026Y-15873177D01*
X17624577Y-15893612D01*
X17637606Y-15905204D01*
X17640387Y-15907067D01*
X17648084Y-15901463D01*
X17664446Y-15886568D01*
X17686357Y-15865254D01*
X17693395Y-15858192D01*
X17741760Y-15809317D01*
X17550968Y-15619067D01*
X17450176Y-15720921D01*
G37*
X17450176Y-15720921D02*
X17542960Y-15813994D01*
X17575104Y-15845952D01*
X17603026Y-15873177D01*
X17624577Y-15893612D01*
X17637606Y-15905204D01*
X17640387Y-15907067D01*
X17648084Y-15901463D01*
X17664446Y-15886568D01*
X17686357Y-15865254D01*
X17693395Y-15858192D01*
X17741760Y-15809317D01*
X17550968Y-15619067D01*
X17450176Y-15720921D01*
G36*
X17112591Y-13186671D02*
G01*
X17094414Y-13203786D01*
X17065790Y-13231400D01*
X17027474Y-13268767D01*
X16980220Y-13315140D01*
X16924784Y-13369775D01*
X16861921Y-13431924D01*
X16792386Y-13500843D01*
X16716933Y-13575786D01*
X16636318Y-13656006D01*
X16551295Y-13740758D01*
X16462620Y-13829295D01*
X16416833Y-13875066D01*
X15722605Y-14569333D01*
X16416833Y-15263600D01*
X16507061Y-15353761D01*
X16594017Y-15440512D01*
X16676946Y-15523107D01*
X16755092Y-15600800D01*
X16827701Y-15672844D01*
X16894017Y-15738495D01*
X16953287Y-15797007D01*
X17004754Y-15847632D01*
X17047664Y-15889627D01*
X17081262Y-15922244D01*
X17104793Y-15944738D01*
X17117502Y-15956363D01*
X17119566Y-15957867D01*
X17126542Y-15951996D01*
X17144719Y-15934880D01*
X17173343Y-15907266D01*
X17211659Y-15869900D01*
X17258913Y-15823526D01*
X17314349Y-15768892D01*
X17377212Y-15706742D01*
X17446747Y-15637823D01*
X17522200Y-15562880D01*
X17602815Y-15482660D01*
X17687838Y-15397909D01*
X17776513Y-15309371D01*
X17822300Y-15263600D01*
X18516528Y-14569333D01*
X18516516Y-14569320D01*
X18457273Y-14569320D01*
X17119593Y-15907080D01*
X16450727Y-15238213D01*
X15781860Y-14569347D01*
X16450700Y-13900466D01*
X17119540Y-13231586D01*
X17788406Y-13900453D01*
X18457273Y-14569320D01*
X18516516Y-14569320D01*
X17822300Y-13875066D01*
X17732072Y-13784905D01*
X17645116Y-13698154D01*
X17562187Y-13615559D01*
X17484041Y-13537867D01*
X17411432Y-13465822D01*
X17345116Y-13400171D01*
X17285846Y-13341660D01*
X17234379Y-13291034D01*
X17191469Y-13249040D01*
X17157871Y-13216423D01*
X17134340Y-13193929D01*
X17121631Y-13182303D01*
X17119566Y-13180800D01*
X17112591Y-13186671D01*
G37*
X17112591Y-13186671D02*
X17094414Y-13203786D01*
X17065790Y-13231400D01*
X17027474Y-13268767D01*
X16980220Y-13315140D01*
X16924784Y-13369775D01*
X16861921Y-13431924D01*
X16792386Y-13500843D01*
X16716933Y-13575786D01*
X16636318Y-13656006D01*
X16551295Y-13740758D01*
X16462620Y-13829295D01*
X16416833Y-13875066D01*
X15722605Y-14569333D01*
X16416833Y-15263600D01*
X16507061Y-15353761D01*
X16594017Y-15440512D01*
X16676946Y-15523107D01*
X16755092Y-15600800D01*
X16827701Y-15672844D01*
X16894017Y-15738495D01*
X16953287Y-15797007D01*
X17004754Y-15847632D01*
X17047664Y-15889627D01*
X17081262Y-15922244D01*
X17104793Y-15944738D01*
X17117502Y-15956363D01*
X17119566Y-15957867D01*
X17126542Y-15951996D01*
X17144719Y-15934880D01*
X17173343Y-15907266D01*
X17211659Y-15869900D01*
X17258913Y-15823526D01*
X17314349Y-15768892D01*
X17377212Y-15706742D01*
X17446747Y-15637823D01*
X17522200Y-15562880D01*
X17602815Y-15482660D01*
X17687838Y-15397909D01*
X17776513Y-15309371D01*
X17822300Y-15263600D01*
X18516528Y-14569333D01*
X18516516Y-14569320D01*
X18457273Y-14569320D01*
X17119593Y-15907080D01*
X16450727Y-15238213D01*
X15781860Y-14569347D01*
X16450700Y-13900466D01*
X17119540Y-13231586D01*
X17788406Y-13900453D01*
X18457273Y-14569320D01*
X18516516Y-14569320D01*
X17822300Y-13875066D01*
X17732072Y-13784905D01*
X17645116Y-13698154D01*
X17562187Y-13615559D01*
X17484041Y-13537867D01*
X17411432Y-13465822D01*
X17345116Y-13400171D01*
X17285846Y-13341660D01*
X17234379Y-13291034D01*
X17191469Y-13249040D01*
X17157871Y-13216423D01*
X17134340Y-13193929D01*
X17121631Y-13182303D01*
X17119566Y-13180800D01*
X17112591Y-13186671D01*
G36*
X16161167Y-15282194D02*
G01*
X16125401Y-15318130D01*
X16100334Y-15344256D01*
X16084488Y-15362526D01*
X16076380Y-15374894D01*
X16074532Y-15383315D01*
X16077464Y-15389742D01*
X16078648Y-15391131D01*
X16080873Y-15395346D01*
X16080174Y-15401291D01*
X16075551Y-15410039D01*
X16066007Y-15422666D01*
X16050546Y-15440246D01*
X16028168Y-15463852D01*
X15997876Y-15494560D01*
X15958674Y-15533444D01*
X15909562Y-15581577D01*
X15849544Y-15640034D01*
X15828653Y-15660337D01*
X15768680Y-15718258D01*
X15713697Y-15770680D01*
X15664810Y-15816589D01*
X15623125Y-15854972D01*
X15589749Y-15884813D01*
X15565787Y-15905099D01*
X15552344Y-15914817D01*
X15550336Y-15915533D01*
X15528301Y-15922707D01*
X15513126Y-15940834D01*
X15506253Y-15964824D01*
X15509126Y-15989587D01*
X15523186Y-16010032D01*
X15523479Y-16010272D01*
X15549357Y-16023885D01*
X15574106Y-16020918D01*
X15595951Y-16004818D01*
X15610090Y-15987534D01*
X15616672Y-15973289D01*
X15616733Y-15972332D01*
X15622629Y-15964021D01*
X15639436Y-15945344D01*
X15665835Y-15917645D01*
X15700505Y-15882268D01*
X15742126Y-15840557D01*
X15789378Y-15793856D01*
X15840942Y-15743509D01*
X15852025Y-15732764D01*
X15918707Y-15668162D01*
X15974253Y-15614362D01*
X16019728Y-15570427D01*
X16056198Y-15535420D01*
X16084732Y-15508404D01*
X16106396Y-15488442D01*
X16122255Y-15474598D01*
X16133379Y-15465935D01*
X16140832Y-15461515D01*
X16145682Y-15460402D01*
X16148995Y-15461659D01*
X16151839Y-15464349D01*
X16154625Y-15467014D01*
X16161086Y-15470001D01*
X16169781Y-15468044D01*
X16182624Y-15459667D01*
X16201534Y-15443393D01*
X16228428Y-15417747D01*
X16262724Y-15383748D01*
X16357253Y-15289219D01*
X16256365Y-15187267D01*
X16161167Y-15282194D01*
G37*
X16161167Y-15282194D02*
X16125401Y-15318130D01*
X16100334Y-15344256D01*
X16084488Y-15362526D01*
X16076380Y-15374894D01*
X16074532Y-15383315D01*
X16077464Y-15389742D01*
X16078648Y-15391131D01*
X16080873Y-15395346D01*
X16080174Y-15401291D01*
X16075551Y-15410039D01*
X16066007Y-15422666D01*
X16050546Y-15440246D01*
X16028168Y-15463852D01*
X15997876Y-15494560D01*
X15958674Y-15533444D01*
X15909562Y-15581577D01*
X15849544Y-15640034D01*
X15828653Y-15660337D01*
X15768680Y-15718258D01*
X15713697Y-15770680D01*
X15664810Y-15816589D01*
X15623125Y-15854972D01*
X15589749Y-15884813D01*
X15565787Y-15905099D01*
X15552344Y-15914817D01*
X15550336Y-15915533D01*
X15528301Y-15922707D01*
X15513126Y-15940834D01*
X15506253Y-15964824D01*
X15509126Y-15989587D01*
X15523186Y-16010032D01*
X15523479Y-16010272D01*
X15549357Y-16023885D01*
X15574106Y-16020918D01*
X15595951Y-16004818D01*
X15610090Y-15987534D01*
X15616672Y-15973289D01*
X15616733Y-15972332D01*
X15622629Y-15964021D01*
X15639436Y-15945344D01*
X15665835Y-15917645D01*
X15700505Y-15882268D01*
X15742126Y-15840557D01*
X15789378Y-15793856D01*
X15840942Y-15743509D01*
X15852025Y-15732764D01*
X15918707Y-15668162D01*
X15974253Y-15614362D01*
X16019728Y-15570427D01*
X16056198Y-15535420D01*
X16084732Y-15508404D01*
X16106396Y-15488442D01*
X16122255Y-15474598D01*
X16133379Y-15465935D01*
X16140832Y-15461515D01*
X16145682Y-15460402D01*
X16148995Y-15461659D01*
X16151839Y-15464349D01*
X16154625Y-15467014D01*
X16161086Y-15470001D01*
X16169781Y-15468044D01*
X16182624Y-15459667D01*
X16201534Y-15443393D01*
X16228428Y-15417747D01*
X16262724Y-15383748D01*
X16357253Y-15289219D01*
X16256365Y-15187267D01*
X16161167Y-15282194D01*
G36*
X17356639Y-15813927D02*
G01*
X17306243Y-15864855D01*
X17399027Y-15957927D01*
X17431170Y-15989886D01*
X17459093Y-16017110D01*
X17480644Y-16037545D01*
X17493673Y-16049137D01*
X17496454Y-16051000D01*
X17504151Y-16045397D01*
X17520512Y-16030502D01*
X17542424Y-16009188D01*
X17549461Y-16002125D01*
X17597826Y-15953250D01*
X17502430Y-15858125D01*
X17407035Y-15763000D01*
X17356639Y-15813927D01*
G37*
X17356639Y-15813927D02*
X17306243Y-15864855D01*
X17399027Y-15957927D01*
X17431170Y-15989886D01*
X17459093Y-16017110D01*
X17480644Y-16037545D01*
X17493673Y-16049137D01*
X17496454Y-16051000D01*
X17504151Y-16045397D01*
X17520512Y-16030502D01*
X17542424Y-16009188D01*
X17549461Y-16002125D01*
X17597826Y-15953250D01*
X17502430Y-15858125D01*
X17407035Y-15763000D01*
X17356639Y-15813927D01*
G36*
X17162129Y-16008607D02*
G01*
X17255003Y-16101770D01*
X17287163Y-16133745D01*
X17315102Y-16160987D01*
X17336672Y-16181441D01*
X17349722Y-16193056D01*
X17352520Y-16194933D01*
X17360185Y-16189323D01*
X17376595Y-16174366D01*
X17398712Y-16152875D01*
X17407542Y-16144024D01*
X17457920Y-16093114D01*
X17267771Y-15902965D01*
X17162129Y-16008607D01*
G37*
X17162129Y-16008607D02*
X17255003Y-16101770D01*
X17287163Y-16133745D01*
X17315102Y-16160987D01*
X17336672Y-16181441D01*
X17349722Y-16193056D01*
X17352520Y-16194933D01*
X17360185Y-16189323D01*
X17376595Y-16174366D01*
X17398712Y-16152875D01*
X17407542Y-16144024D01*
X17457920Y-16093114D01*
X17267771Y-15902965D01*
X17162129Y-16008607D01*
G36*
X17059434Y-12602178D02*
G01*
X16980696Y-12605977D01*
X16911782Y-12611992D01*
X16878568Y-12616416D01*
X16695223Y-12653272D01*
X16519105Y-12705337D01*
X16350537Y-12772454D01*
X16189839Y-12854463D01*
X16037332Y-12951206D01*
X15893338Y-13062524D01*
X15795587Y-13151152D01*
X15676857Y-13276438D01*
X15569361Y-13411272D01*
X15474514Y-13553530D01*
X15393735Y-13701084D01*
X15328451Y-13851783D01*
X15315256Y-13883999D01*
X15302936Y-13909135D01*
X15293321Y-13923667D01*
X15289926Y-13925866D01*
X15277811Y-13931991D01*
X15262797Y-13946864D01*
X15261748Y-13948175D01*
X15246971Y-13977576D01*
X15246258Y-14006323D01*
X15256867Y-14031898D01*
X15276054Y-14051781D01*
X15301078Y-14063452D01*
X15329194Y-14064392D01*
X15357662Y-14052082D01*
X15366735Y-14044617D01*
X15383832Y-14020010D01*
X15387100Y-13989753D01*
X15378738Y-13956101D01*
X15374916Y-13941145D01*
X15375351Y-13924864D01*
X15380837Y-13902931D01*
X15392169Y-13871018D01*
X15396364Y-13860048D01*
X15458325Y-13720217D01*
X15535257Y-13581763D01*
X15625262Y-13447507D01*
X15726438Y-13320271D01*
X15836887Y-13202875D01*
X15842860Y-13197081D01*
X15978210Y-13077863D01*
X16122130Y-12973226D01*
X16274380Y-12883286D01*
X16434723Y-12808163D01*
X16602921Y-12747973D01*
X16778733Y-12702834D01*
X16881123Y-12684065D01*
X16940066Y-12676987D01*
X17011133Y-12672002D01*
X17090047Y-12669111D01*
X17172531Y-12668314D01*
X17254308Y-12669610D01*
X17331101Y-12673000D01*
X17398633Y-12678482D01*
X17441300Y-12684077D01*
X17621404Y-12721617D01*
X17794393Y-12774176D01*
X17959615Y-12841310D01*
X18116424Y-12922572D01*
X18264170Y-13017519D01*
X18402203Y-13125705D01*
X18529876Y-13246685D01*
X18646540Y-13380013D01*
X18751545Y-13525245D01*
X18812610Y-13624722D01*
X18892920Y-13781266D01*
X18957695Y-13943330D01*
X19006945Y-14109733D01*
X19040686Y-14279290D01*
X19058930Y-14450821D01*
X19061690Y-14623142D01*
X19048981Y-14795071D01*
X19020814Y-14965425D01*
X18977205Y-15133022D01*
X18918165Y-15296679D01*
X18843709Y-15455214D01*
X18790890Y-15548630D01*
X18706287Y-15674950D01*
X18607707Y-15798141D01*
X18498103Y-15915130D01*
X18380430Y-16022846D01*
X18257645Y-16118218D01*
X18214261Y-16147947D01*
X18165956Y-16179895D01*
X17971548Y-16009614D01*
X17922898Y-15967211D01*
X17878208Y-15928661D01*
X17839095Y-15895326D01*
X17807173Y-15868569D01*
X17784059Y-15849750D01*
X17771367Y-15840231D01*
X17769563Y-15839333D01*
X17759875Y-15845514D01*
X17746288Y-15860606D01*
X17744686Y-15862731D01*
X17727387Y-15886129D01*
X17929904Y-16063814D01*
X17980025Y-16107716D01*
X18026554Y-16148332D01*
X18067836Y-16184228D01*
X18102213Y-16213967D01*
X18128029Y-16236115D01*
X18143628Y-16249237D01*
X18147099Y-16251979D01*
X18155655Y-16255483D01*
X18167327Y-16253802D01*
X18185000Y-16245705D01*
X18211561Y-16229959D01*
X18237572Y-16213348D01*
X18374414Y-16115136D01*
X18504305Y-16002942D01*
X18625370Y-15878886D01*
X18735733Y-15745091D01*
X18833519Y-15603678D01*
X18916854Y-15456768D01*
X18930252Y-15429743D01*
X19002025Y-15262615D01*
X19057975Y-15090542D01*
X19097961Y-14914724D01*
X19121841Y-14736363D01*
X19129471Y-14556657D01*
X19120711Y-14376809D01*
X19095417Y-14198018D01*
X19083238Y-14138641D01*
X19035672Y-13962135D01*
X18972798Y-13792793D01*
X18894824Y-13631002D01*
X18801962Y-13477150D01*
X18694419Y-13331623D01*
X18572407Y-13194809D01*
X18572280Y-13194679D01*
X18501314Y-13124404D01*
X18434395Y-13063783D01*
X18366176Y-13008378D01*
X18291315Y-12953752D01*
X18240158Y-12918953D01*
X18093505Y-12831199D01*
X17936565Y-12756061D01*
X17771027Y-12694179D01*
X17598577Y-12646198D01*
X17445231Y-12616416D01*
X17383907Y-12609137D01*
X17310230Y-12604074D01*
X17228636Y-12601227D01*
X17143559Y-12600595D01*
X17059434Y-12602178D01*
G37*
X17059434Y-12602178D02*
X16980696Y-12605977D01*
X16911782Y-12611992D01*
X16878568Y-12616416D01*
X16695223Y-12653272D01*
X16519105Y-12705337D01*
X16350537Y-12772454D01*
X16189839Y-12854463D01*
X16037332Y-12951206D01*
X15893338Y-13062524D01*
X15795587Y-13151152D01*
X15676857Y-13276438D01*
X15569361Y-13411272D01*
X15474514Y-13553530D01*
X15393735Y-13701084D01*
X15328451Y-13851783D01*
X15315256Y-13883999D01*
X15302936Y-13909135D01*
X15293321Y-13923667D01*
X15289926Y-13925866D01*
X15277811Y-13931991D01*
X15262797Y-13946864D01*
X15261748Y-13948175D01*
X15246971Y-13977576D01*
X15246258Y-14006323D01*
X15256867Y-14031898D01*
X15276054Y-14051781D01*
X15301078Y-14063452D01*
X15329194Y-14064392D01*
X15357662Y-14052082D01*
X15366735Y-14044617D01*
X15383832Y-14020010D01*
X15387100Y-13989753D01*
X15378738Y-13956101D01*
X15374916Y-13941145D01*
X15375351Y-13924864D01*
X15380837Y-13902931D01*
X15392169Y-13871018D01*
X15396364Y-13860048D01*
X15458325Y-13720217D01*
X15535257Y-13581763D01*
X15625262Y-13447507D01*
X15726438Y-13320271D01*
X15836887Y-13202875D01*
X15842860Y-13197081D01*
X15978210Y-13077863D01*
X16122130Y-12973226D01*
X16274380Y-12883286D01*
X16434723Y-12808163D01*
X16602921Y-12747973D01*
X16778733Y-12702834D01*
X16881123Y-12684065D01*
X16940066Y-12676987D01*
X17011133Y-12672002D01*
X17090047Y-12669111D01*
X17172531Y-12668314D01*
X17254308Y-12669610D01*
X17331101Y-12673000D01*
X17398633Y-12678482D01*
X17441300Y-12684077D01*
X17621404Y-12721617D01*
X17794393Y-12774176D01*
X17959615Y-12841310D01*
X18116424Y-12922572D01*
X18264170Y-13017519D01*
X18402203Y-13125705D01*
X18529876Y-13246685D01*
X18646540Y-13380013D01*
X18751545Y-13525245D01*
X18812610Y-13624722D01*
X18892920Y-13781266D01*
X18957695Y-13943330D01*
X19006945Y-14109733D01*
X19040686Y-14279290D01*
X19058930Y-14450821D01*
X19061690Y-14623142D01*
X19048981Y-14795071D01*
X19020814Y-14965425D01*
X18977205Y-15133022D01*
X18918165Y-15296679D01*
X18843709Y-15455214D01*
X18790890Y-15548630D01*
X18706287Y-15674950D01*
X18607707Y-15798141D01*
X18498103Y-15915130D01*
X18380430Y-16022846D01*
X18257645Y-16118218D01*
X18214261Y-16147947D01*
X18165956Y-16179895D01*
X17971548Y-16009614D01*
X17922898Y-15967211D01*
X17878208Y-15928661D01*
X17839095Y-15895326D01*
X17807173Y-15868569D01*
X17784059Y-15849750D01*
X17771367Y-15840231D01*
X17769563Y-15839333D01*
X17759875Y-15845514D01*
X17746288Y-15860606D01*
X17744686Y-15862731D01*
X17727387Y-15886129D01*
X17929904Y-16063814D01*
X17980025Y-16107716D01*
X18026554Y-16148332D01*
X18067836Y-16184228D01*
X18102213Y-16213967D01*
X18128029Y-16236115D01*
X18143628Y-16249237D01*
X18147099Y-16251979D01*
X18155655Y-16255483D01*
X18167327Y-16253802D01*
X18185000Y-16245705D01*
X18211561Y-16229959D01*
X18237572Y-16213348D01*
X18374414Y-16115136D01*
X18504305Y-16002942D01*
X18625370Y-15878886D01*
X18735733Y-15745091D01*
X18833519Y-15603678D01*
X18916854Y-15456768D01*
X18930252Y-15429743D01*
X19002025Y-15262615D01*
X19057975Y-15090542D01*
X19097961Y-14914724D01*
X19121841Y-14736363D01*
X19129471Y-14556657D01*
X19120711Y-14376809D01*
X19095417Y-14198018D01*
X19083238Y-14138641D01*
X19035672Y-13962135D01*
X18972798Y-13792793D01*
X18894824Y-13631002D01*
X18801962Y-13477150D01*
X18694419Y-13331623D01*
X18572407Y-13194809D01*
X18572280Y-13194679D01*
X18501314Y-13124404D01*
X18434395Y-13063783D01*
X18366176Y-13008378D01*
X18291315Y-12953752D01*
X18240158Y-12918953D01*
X18093505Y-12831199D01*
X17936565Y-12756061D01*
X17771027Y-12694179D01*
X17598577Y-12646198D01*
X17445231Y-12616416D01*
X17383907Y-12609137D01*
X17310230Y-12604074D01*
X17228636Y-12601227D01*
X17143559Y-12600595D01*
X17059434Y-12602178D01*
G36*
X16962866Y-12267833D02*
G01*
X16771942Y-12292299D01*
X16583928Y-12332396D01*
X16399938Y-12387938D01*
X16221085Y-12458740D01*
X16048483Y-12544619D01*
X15900366Y-12634014D01*
X15738448Y-12750383D01*
X15588805Y-12878212D01*
X15451799Y-13016928D01*
X15327791Y-13165958D01*
X15217143Y-13324729D01*
X15120216Y-13492668D01*
X15037371Y-13669201D01*
X14968970Y-13853756D01*
X14915375Y-14045760D01*
X14876948Y-14244638D01*
X14874616Y-14260300D01*
X14866815Y-14330618D01*
X14861657Y-14413269D01*
X14859114Y-14503864D01*
X14859154Y-14598015D01*
X14861746Y-14691333D01*
X14866860Y-14779432D01*
X14874465Y-14857921D01*
X14879018Y-14891067D01*
X14918532Y-15096716D01*
X14972246Y-15293286D01*
X15040287Y-15481115D01*
X15122785Y-15660543D01*
X15219868Y-15831909D01*
X15255444Y-15887225D01*
X15276737Y-15918779D01*
X15294702Y-15944345D01*
X15307281Y-15961064D01*
X15312246Y-15966189D01*
X15318958Y-15960451D01*
X15336631Y-15943893D01*
X15364165Y-15917580D01*
X15400461Y-15882577D01*
X15444419Y-15839951D01*
X15494939Y-15790767D01*
X15550921Y-15736091D01*
X15611266Y-15676988D01*
X15653650Y-15635383D01*
X15725928Y-15564401D01*
X15787119Y-15504425D01*
X15838203Y-15454579D01*
X15880160Y-15413990D01*
X15913968Y-15381782D01*
X15940607Y-15357080D01*
X15961057Y-15339009D01*
X15976298Y-15326695D01*
X15987307Y-15319263D01*
X15995066Y-15315837D01*
X16000553Y-15315544D01*
X16004747Y-15317507D01*
X16007219Y-15319555D01*
X16013936Y-15324791D01*
X16020888Y-15326350D01*
X16030121Y-15322771D01*
X16043676Y-15312594D01*
X16063599Y-15294361D01*
X16091931Y-15266612D01*
X16118624Y-15239981D01*
X16213320Y-15145286D01*
X16162876Y-15094310D01*
X16112432Y-15043333D01*
X16017314Y-15138182D01*
X15980900Y-15174933D01*
X15955435Y-15201897D01*
X15939505Y-15220859D01*
X15931695Y-15233603D01*
X15930591Y-15241913D01*
X15932401Y-15245326D01*
X15933030Y-15249804D01*
X15929289Y-15257758D01*
X15920312Y-15270098D01*
X15905234Y-15287737D01*
X15883191Y-15311587D01*
X15853318Y-15342560D01*
X15814751Y-15381567D01*
X15766624Y-15429522D01*
X15708073Y-15487335D01*
X15638234Y-15555919D01*
X15633665Y-15560397D01*
X15573669Y-15619000D01*
X15517267Y-15673713D01*
X15465619Y-15723440D01*
X15419881Y-15767083D01*
X15381211Y-15803546D01*
X15350768Y-15831732D01*
X15329709Y-15850544D01*
X15319192Y-15858884D01*
X15318264Y-15859180D01*
X15311813Y-15850794D01*
X15298590Y-15830555D01*
X15280345Y-15801239D01*
X15258832Y-15765625D01*
X15252067Y-15754238D01*
X15159343Y-15581661D01*
X15081921Y-15403807D01*
X15019853Y-15221715D01*
X14973192Y-15036421D01*
X14941991Y-14848961D01*
X14926301Y-14660374D01*
X14926177Y-14471694D01*
X14941670Y-14283961D01*
X14972833Y-14098209D01*
X15019718Y-13915477D01*
X15082379Y-13736801D01*
X15142730Y-13599900D01*
X15218339Y-13455697D01*
X15301497Y-13321813D01*
X15394693Y-13194769D01*
X15500417Y-13071089D01*
X15582459Y-12985405D01*
X15726633Y-12851956D01*
X15877691Y-12733767D01*
X16036087Y-12630610D01*
X16202276Y-12542258D01*
X16376713Y-12468482D01*
X16559854Y-12409054D01*
X16752151Y-12363745D01*
X16858749Y-12345254D01*
X16912536Y-12339038D01*
X16979308Y-12334466D01*
X17055199Y-12331537D01*
X17136340Y-12330250D01*
X17218864Y-12330606D01*
X17298904Y-12332603D01*
X17372593Y-12336242D01*
X17436061Y-12341520D01*
X17466700Y-12345339D01*
X17656144Y-12381150D01*
X17841208Y-12432289D01*
X18020520Y-12498152D01*
X18192712Y-12578132D01*
X18356413Y-12671627D01*
X18510254Y-12778031D01*
X18588533Y-12840466D01*
X18638426Y-12884307D01*
X18694066Y-12936588D01*
X18751940Y-12993733D01*
X18808537Y-13052168D01*
X18860344Y-13108317D01*
X18903850Y-13158606D01*
X18916948Y-13174770D01*
X19030400Y-13331486D01*
X19129239Y-13496178D01*
X19213204Y-13667835D01*
X19282035Y-13845445D01*
X19335470Y-14027998D01*
X19373250Y-14214482D01*
X19395112Y-14403887D01*
X19400796Y-14595201D01*
X19390041Y-14787412D01*
X19370724Y-14933400D01*
X19334925Y-15102630D01*
X19283927Y-15272966D01*
X19218943Y-15441343D01*
X19141184Y-15604696D01*
X19051863Y-15759961D01*
X19030757Y-15792767D01*
X18918606Y-15948469D01*
X18793532Y-16094101D01*
X18656714Y-16228610D01*
X18509330Y-16350944D01*
X18352557Y-16460051D01*
X18187575Y-16554879D01*
X18163961Y-16566920D01*
X18042433Y-16627938D01*
X18014843Y-16613979D01*
X17980902Y-16604643D01*
X17950027Y-16610026D01*
X17925600Y-16628085D01*
X17911006Y-16656776D01*
X17908378Y-16678270D01*
X17915542Y-16708047D01*
X17934207Y-16730082D01*
X17960126Y-16742867D01*
X17989055Y-16744893D01*
X18016749Y-16734651D01*
X18031097Y-16721884D01*
X18045940Y-16709700D01*
X18073594Y-16692037D01*
X18111451Y-16670415D01*
X18156903Y-16646356D01*
X18183505Y-16632977D01*
X18270671Y-16586942D01*
X18362914Y-16532968D01*
X18454980Y-16474401D01*
X18541614Y-16414585D01*
X18617562Y-16356864D01*
X18618583Y-16356039D01*
X18662048Y-16318870D01*
X18712785Y-16272209D01*
X18767402Y-16219467D01*
X18822503Y-16164057D01*
X18874694Y-16109388D01*
X18920582Y-16058873D01*
X18955807Y-16017133D01*
X19073282Y-15857173D01*
X19175512Y-15690669D01*
X19262752Y-15517034D01*
X19335257Y-15335678D01*
X19393281Y-15146013D01*
X19437077Y-14947452D01*
X19449339Y-14874133D01*
X19455014Y-14825413D01*
X19459436Y-14763571D01*
X19462581Y-14692376D01*
X19464423Y-14615593D01*
X19464935Y-14536991D01*
X19464092Y-14460337D01*
X19461867Y-14389399D01*
X19458235Y-14327943D01*
X19453415Y-14281466D01*
X19417237Y-14079385D01*
X19366205Y-13885411D01*
X19300256Y-13699402D01*
X19219323Y-13521218D01*
X19123343Y-13350717D01*
X19012249Y-13187756D01*
X18885978Y-13032194D01*
X18874659Y-13019438D01*
X18744727Y-12886384D01*
X18602243Y-12763450D01*
X18448959Y-12651696D01*
X18286626Y-12552179D01*
X18116996Y-12465958D01*
X17941822Y-12394092D01*
X17762854Y-12337638D01*
X17733400Y-12329959D01*
X17541968Y-12290059D01*
X17348992Y-12266528D01*
X17155587Y-12259180D01*
X16962866Y-12267833D01*
G37*
X16962866Y-12267833D02*
X16771942Y-12292299D01*
X16583928Y-12332396D01*
X16399938Y-12387938D01*
X16221085Y-12458740D01*
X16048483Y-12544619D01*
X15900366Y-12634014D01*
X15738448Y-12750383D01*
X15588805Y-12878212D01*
X15451799Y-13016928D01*
X15327791Y-13165958D01*
X15217143Y-13324729D01*
X15120216Y-13492668D01*
X15037371Y-13669201D01*
X14968970Y-13853756D01*
X14915375Y-14045760D01*
X14876948Y-14244638D01*
X14874616Y-14260300D01*
X14866815Y-14330618D01*
X14861657Y-14413269D01*
X14859114Y-14503864D01*
X14859154Y-14598015D01*
X14861746Y-14691333D01*
X14866860Y-14779432D01*
X14874465Y-14857921D01*
X14879018Y-14891067D01*
X14918532Y-15096716D01*
X14972246Y-15293286D01*
X15040287Y-15481115D01*
X15122785Y-15660543D01*
X15219868Y-15831909D01*
X15255444Y-15887225D01*
X15276737Y-15918779D01*
X15294702Y-15944345D01*
X15307281Y-15961064D01*
X15312246Y-15966189D01*
X15318958Y-15960451D01*
X15336631Y-15943893D01*
X15364165Y-15917580D01*
X15400461Y-15882577D01*
X15444419Y-15839951D01*
X15494939Y-15790767D01*
X15550921Y-15736091D01*
X15611266Y-15676988D01*
X15653650Y-15635383D01*
X15725928Y-15564401D01*
X15787119Y-15504425D01*
X15838203Y-15454579D01*
X15880160Y-15413990D01*
X15913968Y-15381782D01*
X15940607Y-15357080D01*
X15961057Y-15339009D01*
X15976298Y-15326695D01*
X15987307Y-15319263D01*
X15995066Y-15315837D01*
X16000553Y-15315544D01*
X16004747Y-15317507D01*
X16007219Y-15319555D01*
X16013936Y-15324791D01*
X16020888Y-15326350D01*
X16030121Y-15322771D01*
X16043676Y-15312594D01*
X16063599Y-15294361D01*
X16091931Y-15266612D01*
X16118624Y-15239981D01*
X16213320Y-15145286D01*
X16162876Y-15094310D01*
X16112432Y-15043333D01*
X16017314Y-15138182D01*
X15980900Y-15174933D01*
X15955435Y-15201897D01*
X15939505Y-15220859D01*
X15931695Y-15233603D01*
X15930591Y-15241913D01*
X15932401Y-15245326D01*
X15933030Y-15249804D01*
X15929289Y-15257758D01*
X15920312Y-15270098D01*
X15905234Y-15287737D01*
X15883191Y-15311587D01*
X15853318Y-15342560D01*
X15814751Y-15381567D01*
X15766624Y-15429522D01*
X15708073Y-15487335D01*
X15638234Y-15555919D01*
X15633665Y-15560397D01*
X15573669Y-15619000D01*
X15517267Y-15673713D01*
X15465619Y-15723440D01*
X15419881Y-15767083D01*
X15381211Y-15803546D01*
X15350768Y-15831732D01*
X15329709Y-15850544D01*
X15319192Y-15858884D01*
X15318264Y-15859180D01*
X15311813Y-15850794D01*
X15298590Y-15830555D01*
X15280345Y-15801239D01*
X15258832Y-15765625D01*
X15252067Y-15754238D01*
X15159343Y-15581661D01*
X15081921Y-15403807D01*
X15019853Y-15221715D01*
X14973192Y-15036421D01*
X14941991Y-14848961D01*
X14926301Y-14660374D01*
X14926177Y-14471694D01*
X14941670Y-14283961D01*
X14972833Y-14098209D01*
X15019718Y-13915477D01*
X15082379Y-13736801D01*
X15142730Y-13599900D01*
X15218339Y-13455697D01*
X15301497Y-13321813D01*
X15394693Y-13194769D01*
X15500417Y-13071089D01*
X15582459Y-12985405D01*
X15726633Y-12851956D01*
X15877691Y-12733767D01*
X16036087Y-12630610D01*
X16202276Y-12542258D01*
X16376713Y-12468482D01*
X16559854Y-12409054D01*
X16752151Y-12363745D01*
X16858749Y-12345254D01*
X16912536Y-12339038D01*
X16979308Y-12334466D01*
X17055199Y-12331537D01*
X17136340Y-12330250D01*
X17218864Y-12330606D01*
X17298904Y-12332603D01*
X17372593Y-12336242D01*
X17436061Y-12341520D01*
X17466700Y-12345339D01*
X17656144Y-12381150D01*
X17841208Y-12432289D01*
X18020520Y-12498152D01*
X18192712Y-12578132D01*
X18356413Y-12671627D01*
X18510254Y-12778031D01*
X18588533Y-12840466D01*
X18638426Y-12884307D01*
X18694066Y-12936588D01*
X18751940Y-12993733D01*
X18808537Y-13052168D01*
X18860344Y-13108317D01*
X18903850Y-13158606D01*
X18916948Y-13174770D01*
X19030400Y-13331486D01*
X19129239Y-13496178D01*
X19213204Y-13667835D01*
X19282035Y-13845445D01*
X19335470Y-14027998D01*
X19373250Y-14214482D01*
X19395112Y-14403887D01*
X19400796Y-14595201D01*
X19390041Y-14787412D01*
X19370724Y-14933400D01*
X19334925Y-15102630D01*
X19283927Y-15272966D01*
X19218943Y-15441343D01*
X19141184Y-15604696D01*
X19051863Y-15759961D01*
X19030757Y-15792767D01*
X18918606Y-15948469D01*
X18793532Y-16094101D01*
X18656714Y-16228610D01*
X18509330Y-16350944D01*
X18352557Y-16460051D01*
X18187575Y-16554879D01*
X18163961Y-16566920D01*
X18042433Y-16627938D01*
X18014843Y-16613979D01*
X17980902Y-16604643D01*
X17950027Y-16610026D01*
X17925600Y-16628085D01*
X17911006Y-16656776D01*
X17908378Y-16678270D01*
X17915542Y-16708047D01*
X17934207Y-16730082D01*
X17960126Y-16742867D01*
X17989055Y-16744893D01*
X18016749Y-16734651D01*
X18031097Y-16721884D01*
X18045940Y-16709700D01*
X18073594Y-16692037D01*
X18111451Y-16670415D01*
X18156903Y-16646356D01*
X18183505Y-16632977D01*
X18270671Y-16586942D01*
X18362914Y-16532968D01*
X18454980Y-16474401D01*
X18541614Y-16414585D01*
X18617562Y-16356864D01*
X18618583Y-16356039D01*
X18662048Y-16318870D01*
X18712785Y-16272209D01*
X18767402Y-16219467D01*
X18822503Y-16164057D01*
X18874694Y-16109388D01*
X18920582Y-16058873D01*
X18955807Y-16017133D01*
X19073282Y-15857173D01*
X19175512Y-15690669D01*
X19262752Y-15517034D01*
X19335257Y-15335678D01*
X19393281Y-15146013D01*
X19437077Y-14947452D01*
X19449339Y-14874133D01*
X19455014Y-14825413D01*
X19459436Y-14763571D01*
X19462581Y-14692376D01*
X19464423Y-14615593D01*
X19464935Y-14536991D01*
X19464092Y-14460337D01*
X19461867Y-14389399D01*
X19458235Y-14327943D01*
X19453415Y-14281466D01*
X19417237Y-14079385D01*
X19366205Y-13885411D01*
X19300256Y-13699402D01*
X19219323Y-13521218D01*
X19123343Y-13350717D01*
X19012249Y-13187756D01*
X18885978Y-13032194D01*
X18874659Y-13019438D01*
X18744727Y-12886384D01*
X18602243Y-12763450D01*
X18448959Y-12651696D01*
X18286626Y-12552179D01*
X18116996Y-12465958D01*
X17941822Y-12394092D01*
X17762854Y-12337638D01*
X17733400Y-12329959D01*
X17541968Y-12290059D01*
X17348992Y-12266528D01*
X17155587Y-12259180D01*
X16962866Y-12267833D01*
G36*
X16875887Y-15998440D02*
G01*
X16840337Y-16034233D01*
X16815449Y-16060179D01*
X16799757Y-16078246D01*
X16791791Y-16090403D01*
X16790083Y-16098615D01*
X16793165Y-16104851D01*
X16794996Y-16106825D01*
X16798434Y-16111810D01*
X16798351Y-16118183D01*
X16793458Y-16127379D01*
X16782463Y-16140831D01*
X16764078Y-16159971D01*
X16737011Y-16186234D01*
X16699973Y-16221052D01*
X16652731Y-16264880D01*
X16610217Y-16304497D01*
X16572303Y-16340389D01*
X16540629Y-16370959D01*
X16516835Y-16394607D01*
X16502562Y-16409733D01*
X16499109Y-16414648D01*
X16503589Y-16423327D01*
X16514934Y-16444873D01*
X16532046Y-16477210D01*
X16553825Y-16518264D01*
X16579171Y-16565959D01*
X16601287Y-16607520D01*
X16633408Y-16668337D01*
X16657977Y-16716123D01*
X16675766Y-16752592D01*
X16687549Y-16779458D01*
X16694097Y-16798436D01*
X16696185Y-16811240D01*
X16695603Y-16816728D01*
X16696155Y-16843309D01*
X16708780Y-16866065D01*
X16729501Y-16880919D01*
X16754340Y-16883792D01*
X16759733Y-16882484D01*
X16785674Y-16866964D01*
X16799572Y-16843230D01*
X16800342Y-16815961D01*
X16786899Y-16789836D01*
X16782324Y-16785079D01*
X16772707Y-16772338D01*
X16756720Y-16746993D01*
X16735783Y-16711477D01*
X16711313Y-16668223D01*
X16684730Y-16619663D01*
X16672022Y-16595912D01*
X16581463Y-16425392D01*
X16634615Y-16374959D01*
X16662274Y-16348930D01*
X16697775Y-16315829D01*
X16736450Y-16279995D01*
X16772012Y-16247252D01*
X16806001Y-16216303D01*
X16829946Y-16195462D01*
X16846165Y-16183266D01*
X16856974Y-16178248D01*
X16864691Y-16178946D01*
X16871634Y-16183894D01*
X16871893Y-16184127D01*
X16878445Y-16188885D01*
X16885660Y-16189672D01*
X16895581Y-16184998D01*
X16910253Y-16173374D01*
X16931721Y-16153310D01*
X16962029Y-16123316D01*
X16979687Y-16105589D01*
X17071845Y-16012900D01*
X17021185Y-15958351D01*
X16970524Y-15903803D01*
X16875887Y-15998440D01*
G37*
X16875887Y-15998440D02*
X16840337Y-16034233D01*
X16815449Y-16060179D01*
X16799757Y-16078246D01*
X16791791Y-16090403D01*
X16790083Y-16098615D01*
X16793165Y-16104851D01*
X16794996Y-16106825D01*
X16798434Y-16111810D01*
X16798351Y-16118183D01*
X16793458Y-16127379D01*
X16782463Y-16140831D01*
X16764078Y-16159971D01*
X16737011Y-16186234D01*
X16699973Y-16221052D01*
X16652731Y-16264880D01*
X16610217Y-16304497D01*
X16572303Y-16340389D01*
X16540629Y-16370959D01*
X16516835Y-16394607D01*
X16502562Y-16409733D01*
X16499109Y-16414648D01*
X16503589Y-16423327D01*
X16514934Y-16444873D01*
X16532046Y-16477210D01*
X16553825Y-16518264D01*
X16579171Y-16565959D01*
X16601287Y-16607520D01*
X16633408Y-16668337D01*
X16657977Y-16716123D01*
X16675766Y-16752592D01*
X16687549Y-16779458D01*
X16694097Y-16798436D01*
X16696185Y-16811240D01*
X16695603Y-16816728D01*
X16696155Y-16843309D01*
X16708780Y-16866065D01*
X16729501Y-16880919D01*
X16754340Y-16883792D01*
X16759733Y-16882484D01*
X16785674Y-16866964D01*
X16799572Y-16843230D01*
X16800342Y-16815961D01*
X16786899Y-16789836D01*
X16782324Y-16785079D01*
X16772707Y-16772338D01*
X16756720Y-16746993D01*
X16735783Y-16711477D01*
X16711313Y-16668223D01*
X16684730Y-16619663D01*
X16672022Y-16595912D01*
X16581463Y-16425392D01*
X16634615Y-16374959D01*
X16662274Y-16348930D01*
X16697775Y-16315829D01*
X16736450Y-16279995D01*
X16772012Y-16247252D01*
X16806001Y-16216303D01*
X16829946Y-16195462D01*
X16846165Y-16183266D01*
X16856974Y-16178248D01*
X16864691Y-16178946D01*
X16871634Y-16183894D01*
X16871893Y-16184127D01*
X16878445Y-16188885D01*
X16885660Y-16189672D01*
X16895581Y-16184998D01*
X16910253Y-16173374D01*
X16931721Y-16153310D01*
X16962029Y-16123316D01*
X16979687Y-16105589D01*
X17071845Y-16012900D01*
X17021185Y-15958351D01*
X16970524Y-15903803D01*
X16875887Y-15998440D01*
G36*
X16732642Y-15853818D02*
G01*
X16697109Y-15889546D01*
X16672181Y-15915421D01*
X16656384Y-15933457D01*
X16648245Y-15945669D01*
X16646291Y-15954071D01*
X16649048Y-15960678D01*
X16651942Y-15964170D01*
X16655183Y-15968843D01*
X16655872Y-15974521D01*
X16652915Y-15982463D01*
X16645223Y-15993926D01*
X16631702Y-16010169D01*
X16611263Y-16032451D01*
X16582813Y-16062030D01*
X16545260Y-16100165D01*
X16497514Y-16148113D01*
X16458880Y-16186752D01*
X16410347Y-16235420D01*
X16365853Y-16280354D01*
X16326769Y-16320146D01*
X16294464Y-16353388D01*
X16270309Y-16378672D01*
X16255672Y-16394590D01*
X16251733Y-16399671D01*
X16255514Y-16408585D01*
X16266088Y-16430186D01*
X16282304Y-16462207D01*
X16303009Y-16502382D01*
X16327051Y-16548445D01*
X16336400Y-16566219D01*
X16421066Y-16726867D01*
X16421066Y-16899866D01*
X16420814Y-16962179D01*
X16419956Y-17009854D01*
X16418346Y-17045181D01*
X16415835Y-17070450D01*
X16412276Y-17087949D01*
X16408217Y-17098622D01*
X16400982Y-17126225D01*
X16405342Y-17151502D01*
X16420033Y-17169060D01*
X16425344Y-17171678D01*
X16449581Y-17176660D01*
X16474507Y-17175564D01*
X16492605Y-17168949D01*
X16495194Y-17166483D01*
X16509208Y-17138114D01*
X16508290Y-17109393D01*
X16502202Y-17096516D01*
X16497641Y-17087054D01*
X16494211Y-17072970D01*
X16491765Y-17052016D01*
X16490153Y-17021946D01*
X16489227Y-16980513D01*
X16488839Y-16925470D01*
X16488800Y-16893719D01*
X16488800Y-16711375D01*
X16412600Y-16565605D01*
X16389045Y-16520271D01*
X16368448Y-16480106D01*
X16352013Y-16447502D01*
X16340944Y-16424847D01*
X16336442Y-16414533D01*
X16336400Y-16414265D01*
X16342100Y-16407068D01*
X16358257Y-16389285D01*
X16383457Y-16362408D01*
X16416285Y-16327926D01*
X16455328Y-16287329D01*
X16499170Y-16242106D01*
X16523791Y-16216852D01*
X16575821Y-16163656D01*
X16617370Y-16121462D01*
X16649756Y-16089125D01*
X16674295Y-16065499D01*
X16692302Y-16049438D01*
X16705096Y-16039797D01*
X16713992Y-16035431D01*
X16720306Y-16035192D01*
X16725356Y-16037936D01*
X16727389Y-16039677D01*
X16733991Y-16044668D01*
X16741031Y-16045885D01*
X16750541Y-16041862D01*
X16764550Y-16031133D01*
X16785090Y-16012231D01*
X16814193Y-15983691D01*
X16838382Y-15959557D01*
X16933168Y-15864771D01*
X16827429Y-15759032D01*
X16732642Y-15853818D01*
G37*
X16732642Y-15853818D02*
X16697109Y-15889546D01*
X16672181Y-15915421D01*
X16656384Y-15933457D01*
X16648245Y-15945669D01*
X16646291Y-15954071D01*
X16649048Y-15960678D01*
X16651942Y-15964170D01*
X16655183Y-15968843D01*
X16655872Y-15974521D01*
X16652915Y-15982463D01*
X16645223Y-15993926D01*
X16631702Y-16010169D01*
X16611263Y-16032451D01*
X16582813Y-16062030D01*
X16545260Y-16100165D01*
X16497514Y-16148113D01*
X16458880Y-16186752D01*
X16410347Y-16235420D01*
X16365853Y-16280354D01*
X16326769Y-16320146D01*
X16294464Y-16353388D01*
X16270309Y-16378672D01*
X16255672Y-16394590D01*
X16251733Y-16399671D01*
X16255514Y-16408585D01*
X16266088Y-16430186D01*
X16282304Y-16462207D01*
X16303009Y-16502382D01*
X16327051Y-16548445D01*
X16336400Y-16566219D01*
X16421066Y-16726867D01*
X16421066Y-16899866D01*
X16420814Y-16962179D01*
X16419956Y-17009854D01*
X16418346Y-17045181D01*
X16415835Y-17070450D01*
X16412276Y-17087949D01*
X16408217Y-17098622D01*
X16400982Y-17126225D01*
X16405342Y-17151502D01*
X16420033Y-17169060D01*
X16425344Y-17171678D01*
X16449581Y-17176660D01*
X16474507Y-17175564D01*
X16492605Y-17168949D01*
X16495194Y-17166483D01*
X16509208Y-17138114D01*
X16508290Y-17109393D01*
X16502202Y-17096516D01*
X16497641Y-17087054D01*
X16494211Y-17072970D01*
X16491765Y-17052016D01*
X16490153Y-17021946D01*
X16489227Y-16980513D01*
X16488839Y-16925470D01*
X16488800Y-16893719D01*
X16488800Y-16711375D01*
X16412600Y-16565605D01*
X16389045Y-16520271D01*
X16368448Y-16480106D01*
X16352013Y-16447502D01*
X16340944Y-16424847D01*
X16336442Y-16414533D01*
X16336400Y-16414265D01*
X16342100Y-16407068D01*
X16358257Y-16389285D01*
X16383457Y-16362408D01*
X16416285Y-16327926D01*
X16455328Y-16287329D01*
X16499170Y-16242106D01*
X16523791Y-16216852D01*
X16575821Y-16163656D01*
X16617370Y-16121462D01*
X16649756Y-16089125D01*
X16674295Y-16065499D01*
X16692302Y-16049438D01*
X16705096Y-16039797D01*
X16713992Y-16035431D01*
X16720306Y-16035192D01*
X16725356Y-16037936D01*
X16727389Y-16039677D01*
X16733991Y-16044668D01*
X16741031Y-16045885D01*
X16750541Y-16041862D01*
X16764550Y-16031133D01*
X16785090Y-16012231D01*
X16814193Y-15983691D01*
X16838382Y-15959557D01*
X16933168Y-15864771D01*
X16827429Y-15759032D01*
X16732642Y-15853818D01*
G36*
X16588709Y-15709885D02*
G01*
X16553175Y-15745614D01*
X16528247Y-15771489D01*
X16512450Y-15789526D01*
X16504312Y-15801738D01*
X16502358Y-15810140D01*
X16505116Y-15816747D01*
X16508002Y-15820229D01*
X16510860Y-15824428D01*
X16511463Y-15829666D01*
X16508832Y-15837034D01*
X16501989Y-15847624D01*
X16489956Y-15862528D01*
X16471757Y-15882838D01*
X16446411Y-15909648D01*
X16412943Y-15944048D01*
X16370374Y-15987132D01*
X16317726Y-16039990D01*
X16255596Y-16102143D01*
X16183532Y-16174554D01*
X16122761Y-16236434D01*
X16073460Y-16287594D01*
X16035809Y-16327844D01*
X16009985Y-16356995D01*
X15996166Y-16374856D01*
X15993780Y-16380708D01*
X15999564Y-16391405D01*
X16012925Y-16414006D01*
X16032398Y-16446097D01*
X16056516Y-16485266D01*
X16083814Y-16529099D01*
X16086991Y-16534171D01*
X16175533Y-16675425D01*
X16175533Y-16900559D01*
X16175407Y-16970070D01*
X16174949Y-17024772D01*
X16174041Y-17066788D01*
X16172564Y-17098239D01*
X16170398Y-17121248D01*
X16167425Y-17137939D01*
X16163525Y-17150433D01*
X16161232Y-17155682D01*
X16152585Y-17175986D01*
X16152189Y-17189349D01*
X16160493Y-17203856D01*
X16164186Y-17208886D01*
X16185751Y-17227653D01*
X16210931Y-17235027D01*
X16234358Y-17230137D01*
X16244529Y-17221927D01*
X16260610Y-17196666D01*
X16261857Y-17172791D01*
X16255297Y-17155985D01*
X16251594Y-17145530D01*
X16248691Y-17128881D01*
X16246505Y-17104232D01*
X16244952Y-17069779D01*
X16243950Y-17023717D01*
X16243416Y-16964239D01*
X16243266Y-16893879D01*
X16243266Y-16654961D01*
X16167318Y-16534927D01*
X16141294Y-16493636D01*
X16117913Y-16456237D01*
X16098925Y-16425552D01*
X16086080Y-16404405D01*
X16081738Y-16396896D01*
X16080127Y-16391687D01*
X16081181Y-16385029D01*
X16085919Y-16375784D01*
X16095363Y-16362812D01*
X16110530Y-16344975D01*
X16132443Y-16321134D01*
X16162121Y-16290151D01*
X16200583Y-16250888D01*
X16248851Y-16202205D01*
X16307944Y-16142963D01*
X16320325Y-16130574D01*
X16381403Y-16069530D01*
X16431684Y-16019492D01*
X16472305Y-15979450D01*
X16504401Y-15948397D01*
X16529109Y-15925324D01*
X16547565Y-15909221D01*
X16560904Y-15899080D01*
X16570262Y-15893892D01*
X16576776Y-15892648D01*
X16581582Y-15894339D01*
X16584103Y-15896330D01*
X16590575Y-15900997D01*
X16597770Y-15901739D01*
X16607699Y-15897082D01*
X16622379Y-15885552D01*
X16643824Y-15865676D01*
X16674048Y-15835980D01*
X16694448Y-15815624D01*
X16789235Y-15720837D01*
X16736365Y-15667968D01*
X16683496Y-15615098D01*
X16588709Y-15709885D01*
G37*
X16588709Y-15709885D02*
X16553175Y-15745614D01*
X16528247Y-15771489D01*
X16512450Y-15789526D01*
X16504312Y-15801738D01*
X16502358Y-15810140D01*
X16505116Y-15816747D01*
X16508002Y-15820229D01*
X16510860Y-15824428D01*
X16511463Y-15829666D01*
X16508832Y-15837034D01*
X16501989Y-15847624D01*
X16489956Y-15862528D01*
X16471757Y-15882838D01*
X16446411Y-15909648D01*
X16412943Y-15944048D01*
X16370374Y-15987132D01*
X16317726Y-16039990D01*
X16255596Y-16102143D01*
X16183532Y-16174554D01*
X16122761Y-16236434D01*
X16073460Y-16287594D01*
X16035809Y-16327844D01*
X16009985Y-16356995D01*
X15996166Y-16374856D01*
X15993780Y-16380708D01*
X15999564Y-16391405D01*
X16012925Y-16414006D01*
X16032398Y-16446097D01*
X16056516Y-16485266D01*
X16083814Y-16529099D01*
X16086991Y-16534171D01*
X16175533Y-16675425D01*
X16175533Y-16900559D01*
X16175407Y-16970070D01*
X16174949Y-17024772D01*
X16174041Y-17066788D01*
X16172564Y-17098239D01*
X16170398Y-17121248D01*
X16167425Y-17137939D01*
X16163525Y-17150433D01*
X16161232Y-17155682D01*
X16152585Y-17175986D01*
X16152189Y-17189349D01*
X16160493Y-17203856D01*
X16164186Y-17208886D01*
X16185751Y-17227653D01*
X16210931Y-17235027D01*
X16234358Y-17230137D01*
X16244529Y-17221927D01*
X16260610Y-17196666D01*
X16261857Y-17172791D01*
X16255297Y-17155985D01*
X16251594Y-17145530D01*
X16248691Y-17128881D01*
X16246505Y-17104232D01*
X16244952Y-17069779D01*
X16243950Y-17023717D01*
X16243416Y-16964239D01*
X16243266Y-16893879D01*
X16243266Y-16654961D01*
X16167318Y-16534927D01*
X16141294Y-16493636D01*
X16117913Y-16456237D01*
X16098925Y-16425552D01*
X16086080Y-16404405D01*
X16081738Y-16396896D01*
X16080127Y-16391687D01*
X16081181Y-16385029D01*
X16085919Y-16375784D01*
X16095363Y-16362812D01*
X16110530Y-16344975D01*
X16132443Y-16321134D01*
X16162121Y-16290151D01*
X16200583Y-16250888D01*
X16248851Y-16202205D01*
X16307944Y-16142963D01*
X16320325Y-16130574D01*
X16381403Y-16069530D01*
X16431684Y-16019492D01*
X16472305Y-15979450D01*
X16504401Y-15948397D01*
X16529109Y-15925324D01*
X16547565Y-15909221D01*
X16560904Y-15899080D01*
X16570262Y-15893892D01*
X16576776Y-15892648D01*
X16581582Y-15894339D01*
X16584103Y-15896330D01*
X16590575Y-15900997D01*
X16597770Y-15901739D01*
X16607699Y-15897082D01*
X16622379Y-15885552D01*
X16643824Y-15865676D01*
X16674048Y-15835980D01*
X16694448Y-15815624D01*
X16789235Y-15720837D01*
X16736365Y-15667968D01*
X16683496Y-15615098D01*
X16588709Y-15709885D01*
G36*
X19642702Y-11871970D02*
G01*
X19577370Y-11885864D01*
X19515750Y-11912629D01*
X19460080Y-11951800D01*
X19412598Y-12002913D01*
X19377078Y-12062184D01*
X19366691Y-12086323D01*
X19360102Y-12108548D01*
X19356479Y-12133954D01*
X19354988Y-12167638D01*
X19354767Y-12198666D01*
X19355265Y-12241117D01*
X19357316Y-12271745D01*
X19361753Y-12295645D01*
X19369409Y-12317913D01*
X19377078Y-12335149D01*
X19415468Y-12398290D01*
X19464953Y-12450045D01*
X19523356Y-12489412D01*
X19588502Y-12515387D01*
X19658215Y-12526967D01*
X19730320Y-12523150D01*
X19767192Y-12514986D01*
X19793633Y-12508175D01*
X19812582Y-12504440D01*
X19819281Y-12504403D01*
X19838646Y-12530360D01*
X19864657Y-12567479D01*
X19895136Y-12612471D01*
X19927905Y-12662046D01*
X19960785Y-12712912D01*
X19991599Y-12761781D01*
X20014843Y-12799800D01*
X20117000Y-12983845D01*
X20208313Y-13176499D01*
X20287796Y-13375010D01*
X20354463Y-13576630D01*
X20407325Y-13778605D01*
X20445396Y-13978187D01*
X20450758Y-14014766D01*
X20455757Y-14049331D01*
X20460419Y-14079370D01*
X20463870Y-14099304D01*
X20464330Y-14101550D01*
X20468456Y-14120600D01*
X20189963Y-14120600D01*
X20388109Y-14452916D01*
X20586255Y-14785233D01*
X20370561Y-14787493D01*
X20154866Y-14789752D01*
X20154866Y-14924933D01*
X20311500Y-14924933D01*
X20360885Y-14925259D01*
X20403866Y-14926163D01*
X20437808Y-14927541D01*
X20460078Y-14929285D01*
X20468043Y-14931283D01*
X20466426Y-14947752D01*
X20462209Y-14977456D01*
X20455973Y-15016997D01*
X20448301Y-15062979D01*
X20439775Y-15112004D01*
X20430977Y-15160677D01*
X20422488Y-15205599D01*
X20414891Y-15243374D01*
X20413287Y-15250895D01*
X20354934Y-15481136D01*
X20281014Y-15705384D01*
X20192040Y-15922946D01*
X20088525Y-16133133D01*
X19970985Y-16335253D01*
X19839932Y-16528615D01*
X19695881Y-16712528D01*
X19539346Y-16886301D01*
X19370839Y-17049243D01*
X19190877Y-17200663D01*
X18999971Y-17339870D01*
X18798636Y-17466173D01*
X18742055Y-17498249D01*
X18662743Y-17542216D01*
X18644663Y-17525230D01*
X18627431Y-17512693D01*
X18600883Y-17497245D01*
X18575808Y-17484647D01*
X18520115Y-17466110D01*
X18457435Y-17457220D01*
X18394541Y-17458426D01*
X18341388Y-17469129D01*
X18274716Y-17498778D01*
X18217903Y-17540808D01*
X18172064Y-17593103D01*
X18138312Y-17653542D01*
X18117761Y-17720010D01*
X18111525Y-17790387D01*
X18120717Y-17862556D01*
X18125360Y-17879966D01*
X18153058Y-17945535D01*
X18193601Y-18002071D01*
X18244771Y-18048279D01*
X18304349Y-18082864D01*
X18370119Y-18104530D01*
X18439863Y-18111981D01*
X18509510Y-18104338D01*
X18546143Y-18095264D01*
X18574727Y-18084913D01*
X18602117Y-18070169D01*
X18635168Y-18047917D01*
X18637920Y-18045963D01*
X18685533Y-18002318D01*
X18724013Y-17947429D01*
X18751226Y-17885470D01*
X18765038Y-17820614D01*
X18766333Y-17794729D01*
X18766333Y-17746176D01*
X18869984Y-17688104D01*
X19055250Y-17576093D01*
X19237098Y-17450045D01*
X19413008Y-17312091D01*
X19580456Y-17164363D01*
X19736923Y-17008992D01*
X19879885Y-16848109D01*
X19915418Y-16804533D01*
X20065975Y-16603058D01*
X20201406Y-16394028D01*
X20321575Y-16177763D01*
X20426348Y-15954580D01*
X20515590Y-15724799D01*
X20589166Y-15488737D01*
X20646940Y-15246713D01*
X20688779Y-14999045D01*
X20692669Y-14969383D01*
X20698322Y-14924933D01*
X20993066Y-14924933D01*
X20993066Y-14789824D01*
X20828595Y-14787529D01*
X20664123Y-14785233D01*
X20982915Y-14124833D01*
X20840170Y-14122518D01*
X20697426Y-14120203D01*
X20693038Y-14092885D01*
X20689929Y-14073010D01*
X20685077Y-14041391D01*
X20679244Y-14003027D01*
X20675264Y-13976666D01*
X20632645Y-13748087D01*
X20574091Y-13520456D01*
X20500382Y-13295698D01*
X20412297Y-13075737D01*
X20310615Y-12862496D01*
X20196117Y-12657900D01*
X20069581Y-12463871D01*
X20052651Y-12440030D01*
X20023812Y-12399500D01*
X20003735Y-12370103D01*
X19991133Y-12349341D01*
X19984721Y-12334717D01*
X19983212Y-12323733D01*
X19985320Y-12313892D01*
X19986307Y-12311198D01*
X20003038Y-12244935D01*
X20004526Y-12176112D01*
X19991528Y-12107724D01*
X19964797Y-12042764D01*
X19925089Y-11984229D01*
X19896401Y-11954394D01*
X19838597Y-11912159D01*
X19775553Y-11884653D01*
X19709509Y-11871412D01*
X19642702Y-11871970D01*
G37*
X19642702Y-11871970D02*
X19577370Y-11885864D01*
X19515750Y-11912629D01*
X19460080Y-11951800D01*
X19412598Y-12002913D01*
X19377078Y-12062184D01*
X19366691Y-12086323D01*
X19360102Y-12108548D01*
X19356479Y-12133954D01*
X19354988Y-12167638D01*
X19354767Y-12198666D01*
X19355265Y-12241117D01*
X19357316Y-12271745D01*
X19361753Y-12295645D01*
X19369409Y-12317913D01*
X19377078Y-12335149D01*
X19415468Y-12398290D01*
X19464953Y-12450045D01*
X19523356Y-12489412D01*
X19588502Y-12515387D01*
X19658215Y-12526967D01*
X19730320Y-12523150D01*
X19767192Y-12514986D01*
X19793633Y-12508175D01*
X19812582Y-12504440D01*
X19819281Y-12504403D01*
X19838646Y-12530360D01*
X19864657Y-12567479D01*
X19895136Y-12612471D01*
X19927905Y-12662046D01*
X19960785Y-12712912D01*
X19991599Y-12761781D01*
X20014843Y-12799800D01*
X20117000Y-12983845D01*
X20208313Y-13176499D01*
X20287796Y-13375010D01*
X20354463Y-13576630D01*
X20407325Y-13778605D01*
X20445396Y-13978187D01*
X20450758Y-14014766D01*
X20455757Y-14049331D01*
X20460419Y-14079370D01*
X20463870Y-14099304D01*
X20464330Y-14101550D01*
X20468456Y-14120600D01*
X20189963Y-14120600D01*
X20388109Y-14452916D01*
X20586255Y-14785233D01*
X20370561Y-14787493D01*
X20154866Y-14789752D01*
X20154866Y-14924933D01*
X20311500Y-14924933D01*
X20360885Y-14925259D01*
X20403866Y-14926163D01*
X20437808Y-14927541D01*
X20460078Y-14929285D01*
X20468043Y-14931283D01*
X20466426Y-14947752D01*
X20462209Y-14977456D01*
X20455973Y-15016997D01*
X20448301Y-15062979D01*
X20439775Y-15112004D01*
X20430977Y-15160677D01*
X20422488Y-15205599D01*
X20414891Y-15243374D01*
X20413287Y-15250895D01*
X20354934Y-15481136D01*
X20281014Y-15705384D01*
X20192040Y-15922946D01*
X20088525Y-16133133D01*
X19970985Y-16335253D01*
X19839932Y-16528615D01*
X19695881Y-16712528D01*
X19539346Y-16886301D01*
X19370839Y-17049243D01*
X19190877Y-17200663D01*
X18999971Y-17339870D01*
X18798636Y-17466173D01*
X18742055Y-17498249D01*
X18662743Y-17542216D01*
X18644663Y-17525230D01*
X18627431Y-17512693D01*
X18600883Y-17497245D01*
X18575808Y-17484647D01*
X18520115Y-17466110D01*
X18457435Y-17457220D01*
X18394541Y-17458426D01*
X18341388Y-17469129D01*
X18274716Y-17498778D01*
X18217903Y-17540808D01*
X18172064Y-17593103D01*
X18138312Y-17653542D01*
X18117761Y-17720010D01*
X18111525Y-17790387D01*
X18120717Y-17862556D01*
X18125360Y-17879966D01*
X18153058Y-17945535D01*
X18193601Y-18002071D01*
X18244771Y-18048279D01*
X18304349Y-18082864D01*
X18370119Y-18104530D01*
X18439863Y-18111981D01*
X18509510Y-18104338D01*
X18546143Y-18095264D01*
X18574727Y-18084913D01*
X18602117Y-18070169D01*
X18635168Y-18047917D01*
X18637920Y-18045963D01*
X18685533Y-18002318D01*
X18724013Y-17947429D01*
X18751226Y-17885470D01*
X18765038Y-17820614D01*
X18766333Y-17794729D01*
X18766333Y-17746176D01*
X18869984Y-17688104D01*
X19055250Y-17576093D01*
X19237098Y-17450045D01*
X19413008Y-17312091D01*
X19580456Y-17164363D01*
X19736923Y-17008992D01*
X19879885Y-16848109D01*
X19915418Y-16804533D01*
X20065975Y-16603058D01*
X20201406Y-16394028D01*
X20321575Y-16177763D01*
X20426348Y-15954580D01*
X20515590Y-15724799D01*
X20589166Y-15488737D01*
X20646940Y-15246713D01*
X20688779Y-14999045D01*
X20692669Y-14969383D01*
X20698322Y-14924933D01*
X20993066Y-14924933D01*
X20993066Y-14789824D01*
X20828595Y-14787529D01*
X20664123Y-14785233D01*
X20982915Y-14124833D01*
X20840170Y-14122518D01*
X20697426Y-14120203D01*
X20693038Y-14092885D01*
X20689929Y-14073010D01*
X20685077Y-14041391D01*
X20679244Y-14003027D01*
X20675264Y-13976666D01*
X20632645Y-13748087D01*
X20574091Y-13520456D01*
X20500382Y-13295698D01*
X20412297Y-13075737D01*
X20310615Y-12862496D01*
X20196117Y-12657900D01*
X20069581Y-12463871D01*
X20052651Y-12440030D01*
X20023812Y-12399500D01*
X20003735Y-12370103D01*
X19991133Y-12349341D01*
X19984721Y-12334717D01*
X19983212Y-12323733D01*
X19985320Y-12313892D01*
X19986307Y-12311198D01*
X20003038Y-12244935D01*
X20004526Y-12176112D01*
X19991528Y-12107724D01*
X19964797Y-12042764D01*
X19925089Y-11984229D01*
X19896401Y-11954394D01*
X19838597Y-11912159D01*
X19775553Y-11884653D01*
X19709509Y-11871412D01*
X19642702Y-11871970D01*
G36*
X15788910Y-10542333D02*
G01*
X15790271Y-10566122D01*
X15792629Y-10603600D01*
X15795878Y-10653167D01*
X15799909Y-10713221D01*
X15804618Y-10782163D01*
X15809898Y-10858392D01*
X15815641Y-10940308D01*
X15817111Y-10961122D01*
X15822903Y-11044298D01*
X15828157Y-11122274D01*
X15832777Y-11193434D01*
X15836667Y-11256165D01*
X15839730Y-11308852D01*
X15841870Y-11349882D01*
X15842990Y-11377639D01*
X15842993Y-11390510D01*
X15842817Y-11391205D01*
X15834901Y-11387876D01*
X15813793Y-11376682D01*
X15780860Y-11358404D01*
X15737469Y-11333824D01*
X15684987Y-11303723D01*
X15624782Y-11268883D01*
X15558220Y-11230086D01*
X15486668Y-11188113D01*
X15456944Y-11170602D01*
X15383787Y-11127485D01*
X15315125Y-11087080D01*
X15252320Y-11050184D01*
X15196735Y-11017596D01*
X15149735Y-10990113D01*
X15112681Y-10968533D01*
X15086937Y-10953654D01*
X15073867Y-10946274D01*
X15072493Y-10945600D01*
X15073328Y-10953677D01*
X15076841Y-10976867D01*
X15082771Y-11013606D01*
X15090855Y-11062331D01*
X15100830Y-11121478D01*
X15112435Y-11189484D01*
X15125407Y-11264785D01*
X15139484Y-11345819D01*
X15143824Y-11370678D01*
X15158196Y-11453206D01*
X15171559Y-11530545D01*
X15183647Y-11601119D01*
X15194196Y-11663352D01*
X15202940Y-11715668D01*
X15209616Y-11756493D01*
X15213958Y-11784251D01*
X15215701Y-11797366D01*
X15215683Y-11798206D01*
X15207672Y-11795428D01*
X15185574Y-11786540D01*
X15150844Y-11772153D01*
X15104934Y-11752883D01*
X15049298Y-11729343D01*
X14985391Y-11702147D01*
X14914665Y-11671908D01*
X14838576Y-11639241D01*
X14808877Y-11626456D01*
X14731102Y-11593057D01*
X14658091Y-11561912D01*
X14591306Y-11533629D01*
X14532206Y-11508818D01*
X14482252Y-11488086D01*
X14442904Y-11472042D01*
X14415622Y-11461294D01*
X14401867Y-11456452D01*
X14400495Y-11456282D01*
X14402439Y-11464794D01*
X14409450Y-11487898D01*
X14421059Y-11524182D01*
X14436797Y-11572236D01*
X14456197Y-11630648D01*
X14478790Y-11698008D01*
X14504107Y-11772902D01*
X14531680Y-11853922D01*
X14558400Y-11931966D01*
X14587637Y-12017291D01*
X14615089Y-12097726D01*
X14640285Y-12171869D01*
X14662751Y-12238313D01*
X14682016Y-12295654D01*
X14697608Y-12342487D01*
X14709054Y-12377406D01*
X14715882Y-12399008D01*
X14717682Y-12405909D01*
X14708948Y-12405424D01*
X14685519Y-12402947D01*
X14649484Y-12398729D01*
X14602931Y-12393024D01*
X14547951Y-12386085D01*
X14486630Y-12378164D01*
X14465321Y-12375373D01*
X14215610Y-12342551D01*
X14200751Y-12361625D01*
X14191184Y-12374764D01*
X14174011Y-12399188D01*
X14151126Y-12432168D01*
X14124428Y-12470973D01*
X14102217Y-12503466D01*
X13989090Y-12679766D01*
X13888893Y-12858453D01*
X13799051Y-13044394D01*
X13734307Y-13198089D01*
X13714000Y-13251242D01*
X13692244Y-13311605D01*
X13670080Y-13375958D01*
X13648547Y-13441081D01*
X13628685Y-13503755D01*
X13611532Y-13560760D01*
X13598129Y-13608877D01*
X13589514Y-13644884D01*
X13588658Y-13649259D01*
X13582529Y-13670904D01*
X13574917Y-13684001D01*
X13573081Y-13685182D01*
X13561681Y-13685078D01*
X13536900Y-13682395D01*
X13502020Y-13677561D01*
X13460322Y-13671007D01*
X13445033Y-13668439D01*
X13402545Y-13661310D01*
X13366547Y-13655513D01*
X13340061Y-13651514D01*
X13326109Y-13649782D01*
X13324727Y-13649811D01*
X13327199Y-13657820D01*
X13334997Y-13680021D01*
X13347511Y-13714746D01*
X13364132Y-13760327D01*
X13384250Y-13815097D01*
X13407257Y-13877387D01*
X13432543Y-13945531D01*
X13444267Y-13977029D01*
X13470702Y-14048057D01*
X13495438Y-14114665D01*
X13517815Y-14175063D01*
X13537171Y-14227462D01*
X13552847Y-14270074D01*
X13564181Y-14301109D01*
X13570514Y-14318777D01*
X13571494Y-14321683D01*
X13577408Y-14340733D01*
X13301100Y-14340253D01*
X13222022Y-14217726D01*
X13142944Y-14095200D01*
X13083733Y-14095200D01*
X13055039Y-14096111D01*
X13034882Y-14098512D01*
X13027277Y-14101900D01*
X13027344Y-14102234D01*
X13032600Y-14111038D01*
X13045818Y-14131931D01*
X13065668Y-14162847D01*
X13090821Y-14201720D01*
X13119945Y-14246483D01*
X13138981Y-14275628D01*
X13247796Y-14441988D01*
X13416239Y-14444277D01*
X13584683Y-14446566D01*
X13416373Y-14789467D01*
X13381759Y-14860062D01*
X13349592Y-14925812D01*
X13320612Y-14985196D01*
X13295557Y-15036693D01*
X13275167Y-15078781D01*
X13260180Y-15109938D01*
X13251336Y-15128645D01*
X13249181Y-15133623D01*
X13257472Y-15132840D01*
X13279634Y-15129859D01*
X13312808Y-15125089D01*
X13354134Y-15118937D01*
X13381533Y-15114770D01*
X13426741Y-15107876D01*
X13465864Y-15101976D01*
X13495929Y-15097512D01*
X13513962Y-15094927D01*
X13517741Y-15094463D01*
X13521199Y-15102141D01*
X13526521Y-15122986D01*
X13532870Y-15153449D01*
X13537167Y-15176817D01*
X13584637Y-15400676D01*
X13648232Y-15623906D01*
X13727178Y-15844814D01*
X13820702Y-16061707D01*
X13928030Y-16272893D01*
X14048386Y-16476679D01*
X14180997Y-16671374D01*
X14279860Y-16800300D01*
X14435666Y-16980918D01*
X14604174Y-17151900D01*
X14783824Y-17311957D01*
X14973057Y-17459800D01*
X15170313Y-17594140D01*
X15374032Y-17713687D01*
X15405632Y-17730570D01*
X15510278Y-17785757D01*
X15511855Y-17851828D01*
X15521405Y-17927314D01*
X15545570Y-17995921D01*
X15583238Y-18056083D01*
X15633295Y-18106233D01*
X15694630Y-18144805D01*
X15730612Y-18159767D01*
X15771130Y-18169612D01*
X15819301Y-18174765D01*
X15868763Y-18175100D01*
X15913154Y-18170493D01*
X15938929Y-18163852D01*
X16010173Y-18129483D01*
X16069618Y-18083468D01*
X16116540Y-18026451D01*
X16139131Y-17985633D01*
X16150401Y-17959527D01*
X16157438Y-17936300D01*
X16161204Y-17910445D01*
X16162664Y-17876452D01*
X16162833Y-17850166D01*
X16162354Y-17809389D01*
X16160219Y-17779944D01*
X16155378Y-17756239D01*
X16146784Y-17732683D01*
X16136633Y-17710466D01*
X16117461Y-17676102D01*
X16094092Y-17642361D01*
X16075249Y-17620446D01*
X16040066Y-17585459D01*
X16040066Y-16671536D01*
X15912807Y-16524552D01*
X15785547Y-16377569D01*
X16105085Y-16057948D01*
X16175134Y-15987925D01*
X16234228Y-15929007D01*
X16283357Y-15880291D01*
X16323508Y-15840878D01*
X16355669Y-15809866D01*
X16380828Y-15786353D01*
X16399975Y-15769440D01*
X16414095Y-15758225D01*
X16424179Y-15751806D01*
X16431214Y-15749284D01*
X16436187Y-15749757D01*
X16440088Y-15752323D01*
X16440175Y-15752402D01*
X16446650Y-15757068D01*
X16453848Y-15757805D01*
X16463784Y-15753138D01*
X16478476Y-15741594D01*
X16499938Y-15721698D01*
X16530185Y-15691977D01*
X16550424Y-15671781D01*
X16645120Y-15577086D01*
X16594676Y-15526110D01*
X16544232Y-15475133D01*
X16448865Y-15570230D01*
X16413000Y-15606292D01*
X16387885Y-15632534D01*
X16372057Y-15650865D01*
X16364054Y-15663193D01*
X16362414Y-15671429D01*
X16365672Y-15677481D01*
X16366247Y-15678076D01*
X16367986Y-15681787D01*
X16366749Y-15687653D01*
X16361681Y-15696597D01*
X16351929Y-15709542D01*
X16336636Y-15727411D01*
X16314947Y-15751126D01*
X16286008Y-15781611D01*
X16248964Y-15819787D01*
X16202959Y-15866579D01*
X16147138Y-15922908D01*
X16080646Y-15989698D01*
X16036552Y-16033896D01*
X15694106Y-16376967D01*
X15833220Y-16536881D01*
X15972333Y-16696796D01*
X15972333Y-17547619D01*
X15939926Y-17536454D01*
X15911730Y-17529117D01*
X15877329Y-17523287D01*
X15861609Y-17521609D01*
X15815700Y-17517930D01*
X15813501Y-17124802D01*
X15811301Y-16731675D01*
X15663372Y-16554321D01*
X15624514Y-16507572D01*
X15589462Y-16465094D01*
X15559617Y-16428607D01*
X15536376Y-16399832D01*
X15521140Y-16380490D01*
X15515308Y-16372302D01*
X15515288Y-16372206D01*
X15521050Y-16365514D01*
X15537729Y-16347808D01*
X15564329Y-16320108D01*
X15599856Y-16283435D01*
X15643314Y-16238810D01*
X15693708Y-16187255D01*
X15750044Y-16129790D01*
X15811327Y-16067436D01*
X15876561Y-16001214D01*
X15897209Y-15980284D01*
X15974030Y-15902469D01*
X16039864Y-15835890D01*
X16095605Y-15779711D01*
X16142143Y-15733100D01*
X16180370Y-15695222D01*
X16211178Y-15665244D01*
X16235460Y-15642332D01*
X16254105Y-15625652D01*
X16268008Y-15614370D01*
X16278058Y-15607652D01*
X16285148Y-15604666D01*
X16290170Y-15604576D01*
X16294015Y-15606548D01*
X16295540Y-15607833D01*
X16302156Y-15612850D01*
X16309188Y-15614101D01*
X16318671Y-15610120D01*
X16332639Y-15599440D01*
X16353124Y-15580597D01*
X16382160Y-15552123D01*
X16406491Y-15527848D01*
X16501187Y-15433152D01*
X16450742Y-15382176D01*
X16400298Y-15331200D01*
X16304992Y-15426236D01*
X16264812Y-15467336D01*
X16236707Y-15498429D01*
X16220942Y-15519199D01*
X16217786Y-15529328D01*
X16218009Y-15529596D01*
X16225771Y-15542431D01*
X16226333Y-15545853D01*
X16220510Y-15553048D01*
X16203691Y-15571216D01*
X16176856Y-15599355D01*
X16140981Y-15636465D01*
X16097045Y-15681543D01*
X16046025Y-15733587D01*
X15988900Y-15791597D01*
X15926646Y-15854571D01*
X15860243Y-15921506D01*
X15824166Y-15957778D01*
X15755969Y-16026418D01*
X15691412Y-16091653D01*
X15631472Y-16152479D01*
X15577130Y-16207889D01*
X15529362Y-16256878D01*
X15489147Y-16298443D01*
X15457464Y-16331576D01*
X15435291Y-16355274D01*
X15423606Y-16368531D01*
X15422000Y-16370967D01*
X15427289Y-16379529D01*
X15442243Y-16399245D01*
X15465494Y-16428426D01*
X15495671Y-16465381D01*
X15531404Y-16508421D01*
X15571326Y-16555856D01*
X15582533Y-16569066D01*
X15743066Y-16757967D01*
X15743400Y-17145203D01*
X15743733Y-17532439D01*
X15713609Y-17545026D01*
X15685530Y-17558849D01*
X15659221Y-17574894D01*
X15658452Y-17575437D01*
X15633420Y-17593262D01*
X15550993Y-17549162D01*
X15384052Y-17455446D01*
X15230721Y-17359766D01*
X15087682Y-17259684D01*
X14951620Y-17152758D01*
X14819216Y-17036551D01*
X14706143Y-16927724D01*
X14543794Y-16754774D01*
X14396530Y-16575420D01*
X14263582Y-16388451D01*
X14144176Y-16192659D01*
X14037541Y-15986836D01*
X13942907Y-15769773D01*
X13906722Y-15675422D01*
X13887946Y-15621599D01*
X13868157Y-15559692D01*
X13848028Y-15492318D01*
X13828233Y-15422098D01*
X13809446Y-15351649D01*
X13792341Y-15283591D01*
X13777591Y-15220542D01*
X13765871Y-15165122D01*
X13757854Y-15119950D01*
X13754214Y-15087643D01*
X13754067Y-15082115D01*
X13754553Y-15073348D01*
X13757582Y-15066649D01*
X13765509Y-15061290D01*
X13780687Y-15056546D01*
X13805472Y-15051691D01*
X13842218Y-15045997D01*
X13893280Y-15038740D01*
X13895883Y-15038375D01*
X13935392Y-15032436D01*
X13967971Y-15026786D01*
X13990420Y-15022036D01*
X13999542Y-15018795D01*
X13999600Y-15018611D01*
X13995101Y-15010630D01*
X13982262Y-14990046D01*
X13962072Y-14958390D01*
X13935518Y-14917194D01*
X13903588Y-14867988D01*
X13867270Y-14812302D01*
X13827553Y-14751667D01*
X13813310Y-14729984D01*
X13627021Y-14446566D01*
X13806527Y-14444277D01*
X13869650Y-14443710D01*
X13917605Y-14443883D01*
X13952142Y-14444875D01*
X13975013Y-14446766D01*
X13987971Y-14449636D01*
X13992408Y-14452743D01*
X13999601Y-14462650D01*
X14015531Y-14483356D01*
X14038326Y-14512463D01*
X14066111Y-14547576D01*
X14090209Y-14577800D01*
X14181633Y-14692100D01*
X14243851Y-14694604D01*
X14277868Y-14694910D01*
X14298063Y-14692678D01*
X14303118Y-14688556D01*
X14297263Y-14679820D01*
X14282324Y-14659693D01*
X14259740Y-14630052D01*
X14230949Y-14592772D01*
X14197391Y-14549730D01*
X14166471Y-14510368D01*
X14032776Y-14340733D01*
X13838388Y-14340733D01*
X13783075Y-14340470D01*
X13733912Y-14339730D01*
X13693258Y-14338592D01*
X13663475Y-14337133D01*
X13646922Y-14335430D01*
X13644312Y-14334383D01*
X13649294Y-14326445D01*
X13663387Y-14306443D01*
X13685517Y-14275839D01*
X13714611Y-14236099D01*
X13749593Y-14188686D01*
X13789392Y-14135064D01*
X13832933Y-14076696D01*
X13850769Y-14052866D01*
X13895364Y-13993225D01*
X13936549Y-13937923D01*
X13973267Y-13888397D01*
X14004460Y-13846081D01*
X14029073Y-13812412D01*
X14046046Y-13788827D01*
X14054325Y-13776760D01*
X14054964Y-13775479D01*
X14046391Y-13773311D01*
X14024120Y-13768843D01*
X13991142Y-13762646D01*
X13950447Y-13755289D01*
X13931512Y-13751945D01*
X13888260Y-13744163D01*
X13851286Y-13737141D01*
X13823639Y-13731485D01*
X13808364Y-13727805D01*
X13806374Y-13726996D01*
X13806770Y-13717196D01*
X13811858Y-13693893D01*
X13820870Y-13659615D01*
X13833036Y-13616886D01*
X13847587Y-13568234D01*
X13863754Y-13516183D01*
X13880766Y-13463261D01*
X13897856Y-13411993D01*
X13914252Y-13364905D01*
X13928079Y-13327409D01*
X13986976Y-13184674D01*
X14055371Y-13038279D01*
X14130480Y-12893643D01*
X14209518Y-12756188D01*
X14273152Y-12655867D01*
X14292109Y-12627453D01*
X14307259Y-12604876D01*
X14316350Y-12591488D01*
X14317885Y-12589326D01*
X14326524Y-12589754D01*
X14350231Y-12592205D01*
X14387286Y-12596471D01*
X14435974Y-12602343D01*
X14494575Y-12609611D01*
X14561372Y-12618065D01*
X14634647Y-12627497D01*
X14685918Y-12634181D01*
X14762517Y-12644156D01*
X14833757Y-12653313D01*
X14897923Y-12661442D01*
X14953299Y-12668330D01*
X14998171Y-12673766D01*
X15030825Y-12677538D01*
X15049545Y-12679435D01*
X15053436Y-12679555D01*
X15051148Y-12671300D01*
X15043835Y-12648594D01*
X15032022Y-12612986D01*
X15016230Y-12566024D01*
X14996983Y-12509255D01*
X14974804Y-12444228D01*
X14950217Y-12372491D01*
X14923744Y-12295592D01*
X14920975Y-12287566D01*
X14894080Y-12209548D01*
X14868783Y-12135984D01*
X14845642Y-12068507D01*
X14825213Y-12008754D01*
X14808056Y-11958359D01*
X14794728Y-11918958D01*
X14785786Y-11892186D01*
X14781789Y-11879678D01*
X14781716Y-11879405D01*
X14782166Y-11875707D01*
X14786801Y-11874461D01*
X14796850Y-11876141D01*
X14813540Y-11881220D01*
X14838098Y-11890170D01*
X14871751Y-11903465D01*
X14915727Y-11921578D01*
X14971253Y-11944980D01*
X15039558Y-11974146D01*
X15121867Y-12009549D01*
X15141958Y-12018213D01*
X15215746Y-12049938D01*
X15284695Y-12079374D01*
X15347268Y-12105879D01*
X15401929Y-12128812D01*
X15447142Y-12147533D01*
X15481370Y-12161400D01*
X15503076Y-12169773D01*
X15510707Y-12172049D01*
X15510041Y-12163222D01*
X15506691Y-12139387D01*
X15500929Y-12102208D01*
X15493027Y-12053350D01*
X15483259Y-11994478D01*
X15471897Y-11927257D01*
X15459213Y-11853351D01*
X15447162Y-11784037D01*
X15433525Y-11705655D01*
X15420935Y-11632523D01*
X15409668Y-11566300D01*
X15400000Y-11508647D01*
X15392208Y-11461224D01*
X15386568Y-11425690D01*
X15383355Y-11403707D01*
X15382757Y-11396887D01*
X15390377Y-11400498D01*
X15411161Y-11411926D01*
X15443707Y-11430363D01*
X15486609Y-11454996D01*
X15538463Y-11485015D01*
X15597865Y-11519610D01*
X15663409Y-11557970D01*
X15733691Y-11599285D01*
X15744235Y-11605498D01*
X15815061Y-11647192D01*
X15881314Y-11686089D01*
X15941594Y-11721375D01*
X15994501Y-11752236D01*
X16038636Y-11777857D01*
X16072599Y-11797423D01*
X16094989Y-11810120D01*
X16104407Y-11815134D01*
X16104613Y-11815174D01*
X16104376Y-11806645D01*
X16103032Y-11782883D01*
X16100691Y-11745546D01*
X16097463Y-11696289D01*
X16093459Y-11636770D01*
X16088788Y-11568645D01*
X16083560Y-11493571D01*
X16078055Y-11415577D01*
X16072421Y-11335280D01*
X16067296Y-11260271D01*
X16062783Y-11192214D01*
X16058986Y-11132774D01*
X16056009Y-11083616D01*
X16053956Y-11046405D01*
X16052931Y-11022805D01*
X16053016Y-11014495D01*
X16060462Y-11018323D01*
X16079473Y-11030849D01*
X16108025Y-11050662D01*
X16144098Y-11076351D01*
X16185671Y-11106506D01*
X16202003Y-11118484D01*
X16245584Y-11149989D01*
X16284996Y-11177439D01*
X16318089Y-11199420D01*
X16342717Y-11214521D01*
X16356729Y-11221330D01*
X16358730Y-11221492D01*
X16374338Y-11217333D01*
X16403306Y-11211245D01*
X16442251Y-11203826D01*
X16487788Y-11195677D01*
X16536534Y-11187395D01*
X16585106Y-11179581D01*
X16630120Y-11172835D01*
X16645433Y-11170697D01*
X16816538Y-11152555D01*
X16994617Y-11143317D01*
X17175808Y-11142841D01*
X17356251Y-11150983D01*
X17532086Y-11167602D01*
X17699454Y-11192554D01*
X17803250Y-11213484D01*
X17833376Y-11220760D01*
X17850515Y-11227076D01*
X17858298Y-11234724D01*
X17860355Y-11245995D01*
X17860400Y-11249570D01*
X17867204Y-11294878D01*
X17886133Y-11344784D01*
X17914958Y-11394900D01*
X17951452Y-11440838D01*
X17963865Y-11453438D01*
X18014019Y-11493188D01*
X18069051Y-11519421D01*
X18132550Y-11533608D01*
X18166633Y-11536548D01*
X18233987Y-11535454D01*
X18291893Y-11523753D01*
X18345123Y-11500032D01*
X18388232Y-11470927D01*
X18440869Y-11420902D01*
X18479399Y-11362101D01*
X18504568Y-11293312D01*
X18508753Y-11274939D01*
X18515271Y-11239273D01*
X18517481Y-11211953D01*
X18515380Y-11184950D01*
X18508967Y-11150233D01*
X18508710Y-11149001D01*
X18485785Y-11075814D01*
X18449671Y-11013239D01*
X18400224Y-10961089D01*
X18337303Y-10919180D01*
X18326382Y-10913613D01*
X18303675Y-10903232D01*
X18283143Y-10896521D01*
X18260025Y-10892695D01*
X18229561Y-10890971D01*
X18186991Y-10890567D01*
X18186366Y-10890567D01*
X18143588Y-10890963D01*
X18112982Y-10892671D01*
X18089797Y-10896470D01*
X18069281Y-10903138D01*
X18046681Y-10913456D01*
X18046649Y-10913472D01*
X18013148Y-10933071D01*
X17979310Y-10957686D01*
X17963815Y-10971209D01*
X17927564Y-11006042D01*
X17794499Y-10980143D01*
X17576794Y-10944854D01*
X17355042Y-10922586D01*
X17132035Y-10913348D01*
X16910565Y-10917151D01*
X16693423Y-10934002D01*
X16483401Y-10963911D01*
X16420933Y-10975684D01*
X16413697Y-10975235D01*
X16402571Y-10971097D01*
X16386390Y-10962488D01*
X16363994Y-10948623D01*
X16334219Y-10928720D01*
X16295903Y-10901995D01*
X16247884Y-10867666D01*
X16188999Y-10824949D01*
X16118085Y-10773061D01*
X16094967Y-10756085D01*
X16031922Y-10709824D01*
X15973211Y-10666860D01*
X15920210Y-10628192D01*
X15874292Y-10594817D01*
X15836833Y-10567733D01*
X15809207Y-10547937D01*
X15792789Y-10536426D01*
X15788653Y-10533834D01*
X15788910Y-10542333D01*
G37*
X15788910Y-10542333D02*
X15790271Y-10566122D01*
X15792629Y-10603600D01*
X15795878Y-10653167D01*
X15799909Y-10713221D01*
X15804618Y-10782163D01*
X15809898Y-10858392D01*
X15815641Y-10940308D01*
X15817111Y-10961122D01*
X15822903Y-11044298D01*
X15828157Y-11122274D01*
X15832777Y-11193434D01*
X15836667Y-11256165D01*
X15839730Y-11308852D01*
X15841870Y-11349882D01*
X15842990Y-11377639D01*
X15842993Y-11390510D01*
X15842817Y-11391205D01*
X15834901Y-11387876D01*
X15813793Y-11376682D01*
X15780860Y-11358404D01*
X15737469Y-11333824D01*
X15684987Y-11303723D01*
X15624782Y-11268883D01*
X15558220Y-11230086D01*
X15486668Y-11188113D01*
X15456944Y-11170602D01*
X15383787Y-11127485D01*
X15315125Y-11087080D01*
X15252320Y-11050184D01*
X15196735Y-11017596D01*
X15149735Y-10990113D01*
X15112681Y-10968533D01*
X15086937Y-10953654D01*
X15073867Y-10946274D01*
X15072493Y-10945600D01*
X15073328Y-10953677D01*
X15076841Y-10976867D01*
X15082771Y-11013606D01*
X15090855Y-11062331D01*
X15100830Y-11121478D01*
X15112435Y-11189484D01*
X15125407Y-11264785D01*
X15139484Y-11345819D01*
X15143824Y-11370678D01*
X15158196Y-11453206D01*
X15171559Y-11530545D01*
X15183647Y-11601119D01*
X15194196Y-11663352D01*
X15202940Y-11715668D01*
X15209616Y-11756493D01*
X15213958Y-11784251D01*
X15215701Y-11797366D01*
X15215683Y-11798206D01*
X15207672Y-11795428D01*
X15185574Y-11786540D01*
X15150844Y-11772153D01*
X15104934Y-11752883D01*
X15049298Y-11729343D01*
X14985391Y-11702147D01*
X14914665Y-11671908D01*
X14838576Y-11639241D01*
X14808877Y-11626456D01*
X14731102Y-11593057D01*
X14658091Y-11561912D01*
X14591306Y-11533629D01*
X14532206Y-11508818D01*
X14482252Y-11488086D01*
X14442904Y-11472042D01*
X14415622Y-11461294D01*
X14401867Y-11456452D01*
X14400495Y-11456282D01*
X14402439Y-11464794D01*
X14409450Y-11487898D01*
X14421059Y-11524182D01*
X14436797Y-11572236D01*
X14456197Y-11630648D01*
X14478790Y-11698008D01*
X14504107Y-11772902D01*
X14531680Y-11853922D01*
X14558400Y-11931966D01*
X14587637Y-12017291D01*
X14615089Y-12097726D01*
X14640285Y-12171869D01*
X14662751Y-12238313D01*
X14682016Y-12295654D01*
X14697608Y-12342487D01*
X14709054Y-12377406D01*
X14715882Y-12399008D01*
X14717682Y-12405909D01*
X14708948Y-12405424D01*
X14685519Y-12402947D01*
X14649484Y-12398729D01*
X14602931Y-12393024D01*
X14547951Y-12386085D01*
X14486630Y-12378164D01*
X14465321Y-12375373D01*
X14215610Y-12342551D01*
X14200751Y-12361625D01*
X14191184Y-12374764D01*
X14174011Y-12399188D01*
X14151126Y-12432168D01*
X14124428Y-12470973D01*
X14102217Y-12503466D01*
X13989090Y-12679766D01*
X13888893Y-12858453D01*
X13799051Y-13044394D01*
X13734307Y-13198089D01*
X13714000Y-13251242D01*
X13692244Y-13311605D01*
X13670080Y-13375958D01*
X13648547Y-13441081D01*
X13628685Y-13503755D01*
X13611532Y-13560760D01*
X13598129Y-13608877D01*
X13589514Y-13644884D01*
X13588658Y-13649259D01*
X13582529Y-13670904D01*
X13574917Y-13684001D01*
X13573081Y-13685182D01*
X13561681Y-13685078D01*
X13536900Y-13682395D01*
X13502020Y-13677561D01*
X13460322Y-13671007D01*
X13445033Y-13668439D01*
X13402545Y-13661310D01*
X13366547Y-13655513D01*
X13340061Y-13651514D01*
X13326109Y-13649782D01*
X13324727Y-13649811D01*
X13327199Y-13657820D01*
X13334997Y-13680021D01*
X13347511Y-13714746D01*
X13364132Y-13760327D01*
X13384250Y-13815097D01*
X13407257Y-13877387D01*
X13432543Y-13945531D01*
X13444267Y-13977029D01*
X13470702Y-14048057D01*
X13495438Y-14114665D01*
X13517815Y-14175063D01*
X13537171Y-14227462D01*
X13552847Y-14270074D01*
X13564181Y-14301109D01*
X13570514Y-14318777D01*
X13571494Y-14321683D01*
X13577408Y-14340733D01*
X13301100Y-14340253D01*
X13222022Y-14217726D01*
X13142944Y-14095200D01*
X13083733Y-14095200D01*
X13055039Y-14096111D01*
X13034882Y-14098512D01*
X13027277Y-14101900D01*
X13027344Y-14102234D01*
X13032600Y-14111038D01*
X13045818Y-14131931D01*
X13065668Y-14162847D01*
X13090821Y-14201720D01*
X13119945Y-14246483D01*
X13138981Y-14275628D01*
X13247796Y-14441988D01*
X13416239Y-14444277D01*
X13584683Y-14446566D01*
X13416373Y-14789467D01*
X13381759Y-14860062D01*
X13349592Y-14925812D01*
X13320612Y-14985196D01*
X13295557Y-15036693D01*
X13275167Y-15078781D01*
X13260180Y-15109938D01*
X13251336Y-15128645D01*
X13249181Y-15133623D01*
X13257472Y-15132840D01*
X13279634Y-15129859D01*
X13312808Y-15125089D01*
X13354134Y-15118937D01*
X13381533Y-15114770D01*
X13426741Y-15107876D01*
X13465864Y-15101976D01*
X13495929Y-15097512D01*
X13513962Y-15094927D01*
X13517741Y-15094463D01*
X13521199Y-15102141D01*
X13526521Y-15122986D01*
X13532870Y-15153449D01*
X13537167Y-15176817D01*
X13584637Y-15400676D01*
X13648232Y-15623906D01*
X13727178Y-15844814D01*
X13820702Y-16061707D01*
X13928030Y-16272893D01*
X14048386Y-16476679D01*
X14180997Y-16671374D01*
X14279860Y-16800300D01*
X14435666Y-16980918D01*
X14604174Y-17151900D01*
X14783824Y-17311957D01*
X14973057Y-17459800D01*
X15170313Y-17594140D01*
X15374032Y-17713687D01*
X15405632Y-17730570D01*
X15510278Y-17785757D01*
X15511855Y-17851828D01*
X15521405Y-17927314D01*
X15545570Y-17995921D01*
X15583238Y-18056083D01*
X15633295Y-18106233D01*
X15694630Y-18144805D01*
X15730612Y-18159767D01*
X15771130Y-18169612D01*
X15819301Y-18174765D01*
X15868763Y-18175100D01*
X15913154Y-18170493D01*
X15938929Y-18163852D01*
X16010173Y-18129483D01*
X16069618Y-18083468D01*
X16116540Y-18026451D01*
X16139131Y-17985633D01*
X16150401Y-17959527D01*
X16157438Y-17936300D01*
X16161204Y-17910445D01*
X16162664Y-17876452D01*
X16162833Y-17850166D01*
X16162354Y-17809389D01*
X16160219Y-17779944D01*
X16155378Y-17756239D01*
X16146784Y-17732683D01*
X16136633Y-17710466D01*
X16117461Y-17676102D01*
X16094092Y-17642361D01*
X16075249Y-17620446D01*
X16040066Y-17585459D01*
X16040066Y-16671536D01*
X15912807Y-16524552D01*
X15785547Y-16377569D01*
X16105085Y-16057948D01*
X16175134Y-15987925D01*
X16234228Y-15929007D01*
X16283357Y-15880291D01*
X16323508Y-15840878D01*
X16355669Y-15809866D01*
X16380828Y-15786353D01*
X16399975Y-15769440D01*
X16414095Y-15758225D01*
X16424179Y-15751806D01*
X16431214Y-15749284D01*
X16436187Y-15749757D01*
X16440088Y-15752323D01*
X16440175Y-15752402D01*
X16446650Y-15757068D01*
X16453848Y-15757805D01*
X16463784Y-15753138D01*
X16478476Y-15741594D01*
X16499938Y-15721698D01*
X16530185Y-15691977D01*
X16550424Y-15671781D01*
X16645120Y-15577086D01*
X16594676Y-15526110D01*
X16544232Y-15475133D01*
X16448865Y-15570230D01*
X16413000Y-15606292D01*
X16387885Y-15632534D01*
X16372057Y-15650865D01*
X16364054Y-15663193D01*
X16362414Y-15671429D01*
X16365672Y-15677481D01*
X16366247Y-15678076D01*
X16367986Y-15681787D01*
X16366749Y-15687653D01*
X16361681Y-15696597D01*
X16351929Y-15709542D01*
X16336636Y-15727411D01*
X16314947Y-15751126D01*
X16286008Y-15781611D01*
X16248964Y-15819787D01*
X16202959Y-15866579D01*
X16147138Y-15922908D01*
X16080646Y-15989698D01*
X16036552Y-16033896D01*
X15694106Y-16376967D01*
X15833220Y-16536881D01*
X15972333Y-16696796D01*
X15972333Y-17547619D01*
X15939926Y-17536454D01*
X15911730Y-17529117D01*
X15877329Y-17523287D01*
X15861609Y-17521609D01*
X15815700Y-17517930D01*
X15813501Y-17124802D01*
X15811301Y-16731675D01*
X15663372Y-16554321D01*
X15624514Y-16507572D01*
X15589462Y-16465094D01*
X15559617Y-16428607D01*
X15536376Y-16399832D01*
X15521140Y-16380490D01*
X15515308Y-16372302D01*
X15515288Y-16372206D01*
X15521050Y-16365514D01*
X15537729Y-16347808D01*
X15564329Y-16320108D01*
X15599856Y-16283435D01*
X15643314Y-16238810D01*
X15693708Y-16187255D01*
X15750044Y-16129790D01*
X15811327Y-16067436D01*
X15876561Y-16001214D01*
X15897209Y-15980284D01*
X15974030Y-15902469D01*
X16039864Y-15835890D01*
X16095605Y-15779711D01*
X16142143Y-15733100D01*
X16180370Y-15695222D01*
X16211178Y-15665244D01*
X16235460Y-15642332D01*
X16254105Y-15625652D01*
X16268008Y-15614370D01*
X16278058Y-15607652D01*
X16285148Y-15604666D01*
X16290170Y-15604576D01*
X16294015Y-15606548D01*
X16295540Y-15607833D01*
X16302156Y-15612850D01*
X16309188Y-15614101D01*
X16318671Y-15610120D01*
X16332639Y-15599440D01*
X16353124Y-15580597D01*
X16382160Y-15552123D01*
X16406491Y-15527848D01*
X16501187Y-15433152D01*
X16450742Y-15382176D01*
X16400298Y-15331200D01*
X16304992Y-15426236D01*
X16264812Y-15467336D01*
X16236707Y-15498429D01*
X16220942Y-15519199D01*
X16217786Y-15529328D01*
X16218009Y-15529596D01*
X16225771Y-15542431D01*
X16226333Y-15545853D01*
X16220510Y-15553048D01*
X16203691Y-15571216D01*
X16176856Y-15599355D01*
X16140981Y-15636465D01*
X16097045Y-15681543D01*
X16046025Y-15733587D01*
X15988900Y-15791597D01*
X15926646Y-15854571D01*
X15860243Y-15921506D01*
X15824166Y-15957778D01*
X15755969Y-16026418D01*
X15691412Y-16091653D01*
X15631472Y-16152479D01*
X15577130Y-16207889D01*
X15529362Y-16256878D01*
X15489147Y-16298443D01*
X15457464Y-16331576D01*
X15435291Y-16355274D01*
X15423606Y-16368531D01*
X15422000Y-16370967D01*
X15427289Y-16379529D01*
X15442243Y-16399245D01*
X15465494Y-16428426D01*
X15495671Y-16465381D01*
X15531404Y-16508421D01*
X15571326Y-16555856D01*
X15582533Y-16569066D01*
X15743066Y-16757967D01*
X15743400Y-17145203D01*
X15743733Y-17532439D01*
X15713609Y-17545026D01*
X15685530Y-17558849D01*
X15659221Y-17574894D01*
X15658452Y-17575437D01*
X15633420Y-17593262D01*
X15550993Y-17549162D01*
X15384052Y-17455446D01*
X15230721Y-17359766D01*
X15087682Y-17259684D01*
X14951620Y-17152758D01*
X14819216Y-17036551D01*
X14706143Y-16927724D01*
X14543794Y-16754774D01*
X14396530Y-16575420D01*
X14263582Y-16388451D01*
X14144176Y-16192659D01*
X14037541Y-15986836D01*
X13942907Y-15769773D01*
X13906722Y-15675422D01*
X13887946Y-15621599D01*
X13868157Y-15559692D01*
X13848028Y-15492318D01*
X13828233Y-15422098D01*
X13809446Y-15351649D01*
X13792341Y-15283591D01*
X13777591Y-15220542D01*
X13765871Y-15165122D01*
X13757854Y-15119950D01*
X13754214Y-15087643D01*
X13754067Y-15082115D01*
X13754553Y-15073348D01*
X13757582Y-15066649D01*
X13765509Y-15061290D01*
X13780687Y-15056546D01*
X13805472Y-15051691D01*
X13842218Y-15045997D01*
X13893280Y-15038740D01*
X13895883Y-15038375D01*
X13935392Y-15032436D01*
X13967971Y-15026786D01*
X13990420Y-15022036D01*
X13999542Y-15018795D01*
X13999600Y-15018611D01*
X13995101Y-15010630D01*
X13982262Y-14990046D01*
X13962072Y-14958390D01*
X13935518Y-14917194D01*
X13903588Y-14867988D01*
X13867270Y-14812302D01*
X13827553Y-14751667D01*
X13813310Y-14729984D01*
X13627021Y-14446566D01*
X13806527Y-14444277D01*
X13869650Y-14443710D01*
X13917605Y-14443883D01*
X13952142Y-14444875D01*
X13975013Y-14446766D01*
X13987971Y-14449636D01*
X13992408Y-14452743D01*
X13999601Y-14462650D01*
X14015531Y-14483356D01*
X14038326Y-14512463D01*
X14066111Y-14547576D01*
X14090209Y-14577800D01*
X14181633Y-14692100D01*
X14243851Y-14694604D01*
X14277868Y-14694910D01*
X14298063Y-14692678D01*
X14303118Y-14688556D01*
X14297263Y-14679820D01*
X14282324Y-14659693D01*
X14259740Y-14630052D01*
X14230949Y-14592772D01*
X14197391Y-14549730D01*
X14166471Y-14510368D01*
X14032776Y-14340733D01*
X13838388Y-14340733D01*
X13783075Y-14340470D01*
X13733912Y-14339730D01*
X13693258Y-14338592D01*
X13663475Y-14337133D01*
X13646922Y-14335430D01*
X13644312Y-14334383D01*
X13649294Y-14326445D01*
X13663387Y-14306443D01*
X13685517Y-14275839D01*
X13714611Y-14236099D01*
X13749593Y-14188686D01*
X13789392Y-14135064D01*
X13832933Y-14076696D01*
X13850769Y-14052866D01*
X13895364Y-13993225D01*
X13936549Y-13937923D01*
X13973267Y-13888397D01*
X14004460Y-13846081D01*
X14029073Y-13812412D01*
X14046046Y-13788827D01*
X14054325Y-13776760D01*
X14054964Y-13775479D01*
X14046391Y-13773311D01*
X14024120Y-13768843D01*
X13991142Y-13762646D01*
X13950447Y-13755289D01*
X13931512Y-13751945D01*
X13888260Y-13744163D01*
X13851286Y-13737141D01*
X13823639Y-13731485D01*
X13808364Y-13727805D01*
X13806374Y-13726996D01*
X13806770Y-13717196D01*
X13811858Y-13693893D01*
X13820870Y-13659615D01*
X13833036Y-13616886D01*
X13847587Y-13568234D01*
X13863754Y-13516183D01*
X13880766Y-13463261D01*
X13897856Y-13411993D01*
X13914252Y-13364905D01*
X13928079Y-13327409D01*
X13986976Y-13184674D01*
X14055371Y-13038279D01*
X14130480Y-12893643D01*
X14209518Y-12756188D01*
X14273152Y-12655867D01*
X14292109Y-12627453D01*
X14307259Y-12604876D01*
X14316350Y-12591488D01*
X14317885Y-12589326D01*
X14326524Y-12589754D01*
X14350231Y-12592205D01*
X14387286Y-12596471D01*
X14435974Y-12602343D01*
X14494575Y-12609611D01*
X14561372Y-12618065D01*
X14634647Y-12627497D01*
X14685918Y-12634181D01*
X14762517Y-12644156D01*
X14833757Y-12653313D01*
X14897923Y-12661442D01*
X14953299Y-12668330D01*
X14998171Y-12673766D01*
X15030825Y-12677538D01*
X15049545Y-12679435D01*
X15053436Y-12679555D01*
X15051148Y-12671300D01*
X15043835Y-12648594D01*
X15032022Y-12612986D01*
X15016230Y-12566024D01*
X14996983Y-12509255D01*
X14974804Y-12444228D01*
X14950217Y-12372491D01*
X14923744Y-12295592D01*
X14920975Y-12287566D01*
X14894080Y-12209548D01*
X14868783Y-12135984D01*
X14845642Y-12068507D01*
X14825213Y-12008754D01*
X14808056Y-11958359D01*
X14794728Y-11918958D01*
X14785786Y-11892186D01*
X14781789Y-11879678D01*
X14781716Y-11879405D01*
X14782166Y-11875707D01*
X14786801Y-11874461D01*
X14796850Y-11876141D01*
X14813540Y-11881220D01*
X14838098Y-11890170D01*
X14871751Y-11903465D01*
X14915727Y-11921578D01*
X14971253Y-11944980D01*
X15039558Y-11974146D01*
X15121867Y-12009549D01*
X15141958Y-12018213D01*
X15215746Y-12049938D01*
X15284695Y-12079374D01*
X15347268Y-12105879D01*
X15401929Y-12128812D01*
X15447142Y-12147533D01*
X15481370Y-12161400D01*
X15503076Y-12169773D01*
X15510707Y-12172049D01*
X15510041Y-12163222D01*
X15506691Y-12139387D01*
X15500929Y-12102208D01*
X15493027Y-12053350D01*
X15483259Y-11994478D01*
X15471897Y-11927257D01*
X15459213Y-11853351D01*
X15447162Y-11784037D01*
X15433525Y-11705655D01*
X15420935Y-11632523D01*
X15409668Y-11566300D01*
X15400000Y-11508647D01*
X15392208Y-11461224D01*
X15386568Y-11425690D01*
X15383355Y-11403707D01*
X15382757Y-11396887D01*
X15390377Y-11400498D01*
X15411161Y-11411926D01*
X15443707Y-11430363D01*
X15486609Y-11454996D01*
X15538463Y-11485015D01*
X15597865Y-11519610D01*
X15663409Y-11557970D01*
X15733691Y-11599285D01*
X15744235Y-11605498D01*
X15815061Y-11647192D01*
X15881314Y-11686089D01*
X15941594Y-11721375D01*
X15994501Y-11752236D01*
X16038636Y-11777857D01*
X16072599Y-11797423D01*
X16094989Y-11810120D01*
X16104407Y-11815134D01*
X16104613Y-11815174D01*
X16104376Y-11806645D01*
X16103032Y-11782883D01*
X16100691Y-11745546D01*
X16097463Y-11696289D01*
X16093459Y-11636770D01*
X16088788Y-11568645D01*
X16083560Y-11493571D01*
X16078055Y-11415577D01*
X16072421Y-11335280D01*
X16067296Y-11260271D01*
X16062783Y-11192214D01*
X16058986Y-11132774D01*
X16056009Y-11083616D01*
X16053956Y-11046405D01*
X16052931Y-11022805D01*
X16053016Y-11014495D01*
X16060462Y-11018323D01*
X16079473Y-11030849D01*
X16108025Y-11050662D01*
X16144098Y-11076351D01*
X16185671Y-11106506D01*
X16202003Y-11118484D01*
X16245584Y-11149989D01*
X16284996Y-11177439D01*
X16318089Y-11199420D01*
X16342717Y-11214521D01*
X16356729Y-11221330D01*
X16358730Y-11221492D01*
X16374338Y-11217333D01*
X16403306Y-11211245D01*
X16442251Y-11203826D01*
X16487788Y-11195677D01*
X16536534Y-11187395D01*
X16585106Y-11179581D01*
X16630120Y-11172835D01*
X16645433Y-11170697D01*
X16816538Y-11152555D01*
X16994617Y-11143317D01*
X17175808Y-11142841D01*
X17356251Y-11150983D01*
X17532086Y-11167602D01*
X17699454Y-11192554D01*
X17803250Y-11213484D01*
X17833376Y-11220760D01*
X17850515Y-11227076D01*
X17858298Y-11234724D01*
X17860355Y-11245995D01*
X17860400Y-11249570D01*
X17867204Y-11294878D01*
X17886133Y-11344784D01*
X17914958Y-11394900D01*
X17951452Y-11440838D01*
X17963865Y-11453438D01*
X18014019Y-11493188D01*
X18069051Y-11519421D01*
X18132550Y-11533608D01*
X18166633Y-11536548D01*
X18233987Y-11535454D01*
X18291893Y-11523753D01*
X18345123Y-11500032D01*
X18388232Y-11470927D01*
X18440869Y-11420902D01*
X18479399Y-11362101D01*
X18504568Y-11293312D01*
X18508753Y-11274939D01*
X18515271Y-11239273D01*
X18517481Y-11211953D01*
X18515380Y-11184950D01*
X18508967Y-11150233D01*
X18508710Y-11149001D01*
X18485785Y-11075814D01*
X18449671Y-11013239D01*
X18400224Y-10961089D01*
X18337303Y-10919180D01*
X18326382Y-10913613D01*
X18303675Y-10903232D01*
X18283143Y-10896521D01*
X18260025Y-10892695D01*
X18229561Y-10890971D01*
X18186991Y-10890567D01*
X18186366Y-10890567D01*
X18143588Y-10890963D01*
X18112982Y-10892671D01*
X18089797Y-10896470D01*
X18069281Y-10903138D01*
X18046681Y-10913456D01*
X18046649Y-10913472D01*
X18013148Y-10933071D01*
X17979310Y-10957686D01*
X17963815Y-10971209D01*
X17927564Y-11006042D01*
X17794499Y-10980143D01*
X17576794Y-10944854D01*
X17355042Y-10922586D01*
X17132035Y-10913348D01*
X16910565Y-10917151D01*
X16693423Y-10934002D01*
X16483401Y-10963911D01*
X16420933Y-10975684D01*
X16413697Y-10975235D01*
X16402571Y-10971097D01*
X16386390Y-10962488D01*
X16363994Y-10948623D01*
X16334219Y-10928720D01*
X16295903Y-10901995D01*
X16247884Y-10867666D01*
X16188999Y-10824949D01*
X16118085Y-10773061D01*
X16094967Y-10756085D01*
X16031922Y-10709824D01*
X15973211Y-10666860D01*
X15920210Y-10628192D01*
X15874292Y-10594817D01*
X15836833Y-10567733D01*
X15809207Y-10547937D01*
X15792789Y-10536426D01*
X15788653Y-10533834D01*
X15788910Y-10542333D01*
G36*
X17470552Y-17672131D02*
G01*
X17401823Y-17687451D01*
X17335701Y-17716449D01*
X17271032Y-17759823D01*
X17206659Y-17818266D01*
X17141426Y-17892474D01*
X17113883Y-17927991D01*
X17062645Y-17989743D01*
X17013093Y-18035886D01*
X16963977Y-18067489D01*
X16937375Y-18078822D01*
X16879488Y-18090905D01*
X16822530Y-18087464D01*
X16769032Y-18069829D01*
X16721528Y-18039335D01*
X16682548Y-17997313D01*
X16654626Y-17945095D01*
X16648558Y-17926861D01*
X16645885Y-17900186D01*
X16653151Y-17867599D01*
X16655414Y-17861047D01*
X16664854Y-17816614D01*
X16659078Y-17778965D01*
X16638213Y-17748614D01*
X16625131Y-17738268D01*
X16598002Y-17723450D01*
X16573479Y-17720032D01*
X16544461Y-17727470D01*
X16534760Y-17731341D01*
X16514897Y-17742913D01*
X16499064Y-17761379D01*
X16483214Y-17791476D01*
X16482999Y-17791945D01*
X16464125Y-17852516D01*
X16460377Y-17915715D01*
X16470587Y-17979558D01*
X16493590Y-18042063D01*
X16528216Y-18101245D01*
X16573299Y-18155123D01*
X16627671Y-18201713D01*
X16690164Y-18239031D01*
X16759613Y-18265096D01*
X16761900Y-18265712D01*
X16804679Y-18273159D01*
X16856003Y-18276325D01*
X16908006Y-18275104D01*
X16952823Y-18269391D01*
X16957697Y-18268317D01*
X17028116Y-18243687D01*
X17098052Y-18203624D01*
X17165541Y-18149564D01*
X17228617Y-18082941D01*
X17251968Y-18053366D01*
X17305564Y-17986917D01*
X17356794Y-17933394D01*
X17404521Y-17893888D01*
X17439981Y-17872842D01*
X17488259Y-17857504D01*
X17536238Y-17855300D01*
X17581229Y-17864925D01*
X17620540Y-17885072D01*
X17651478Y-17914436D01*
X17671352Y-17951711D01*
X17677526Y-17988106D01*
X17676645Y-18017816D01*
X17673427Y-18044351D01*
X17671892Y-18051102D01*
X17669700Y-18061964D01*
X17671886Y-18070725D01*
X17680972Y-18079608D01*
X17699480Y-18090835D01*
X17729932Y-18106626D01*
X17741573Y-18112486D01*
X17774468Y-18128631D01*
X17801922Y-18141407D01*
X17820307Y-18149164D01*
X17825684Y-18150733D01*
X17835025Y-18142897D01*
X17844307Y-18121869D01*
X17852634Y-18091370D01*
X17859110Y-18055120D01*
X17862839Y-18016841D01*
X17863383Y-17994100D01*
X17855221Y-17919302D01*
X17832256Y-17852687D01*
X17794641Y-17794488D01*
X17742525Y-17744937D01*
X17677067Y-17704766D01*
X17640080Y-17687785D01*
X17609073Y-17677640D01*
X17575809Y-17672180D01*
X17543044Y-17669795D01*
X17470552Y-17672131D01*
G37*
X17470552Y-17672131D02*
X17401823Y-17687451D01*
X17335701Y-17716449D01*
X17271032Y-17759823D01*
X17206659Y-17818266D01*
X17141426Y-17892474D01*
X17113883Y-17927991D01*
X17062645Y-17989743D01*
X17013093Y-18035886D01*
X16963977Y-18067489D01*
X16937375Y-18078822D01*
X16879488Y-18090905D01*
X16822530Y-18087464D01*
X16769032Y-18069829D01*
X16721528Y-18039335D01*
X16682548Y-17997313D01*
X16654626Y-17945095D01*
X16648558Y-17926861D01*
X16645885Y-17900186D01*
X16653151Y-17867599D01*
X16655414Y-17861047D01*
X16664854Y-17816614D01*
X16659078Y-17778965D01*
X16638213Y-17748614D01*
X16625131Y-17738268D01*
X16598002Y-17723450D01*
X16573479Y-17720032D01*
X16544461Y-17727470D01*
X16534760Y-17731341D01*
X16514897Y-17742913D01*
X16499064Y-17761379D01*
X16483214Y-17791476D01*
X16482999Y-17791945D01*
X16464125Y-17852516D01*
X16460377Y-17915715D01*
X16470587Y-17979558D01*
X16493590Y-18042063D01*
X16528216Y-18101245D01*
X16573299Y-18155123D01*
X16627671Y-18201713D01*
X16690164Y-18239031D01*
X16759613Y-18265096D01*
X16761900Y-18265712D01*
X16804679Y-18273159D01*
X16856003Y-18276325D01*
X16908006Y-18275104D01*
X16952823Y-18269391D01*
X16957697Y-18268317D01*
X17028116Y-18243687D01*
X17098052Y-18203624D01*
X17165541Y-18149564D01*
X17228617Y-18082941D01*
X17251968Y-18053366D01*
X17305564Y-17986917D01*
X17356794Y-17933394D01*
X17404521Y-17893888D01*
X17439981Y-17872842D01*
X17488259Y-17857504D01*
X17536238Y-17855300D01*
X17581229Y-17864925D01*
X17620540Y-17885072D01*
X17651478Y-17914436D01*
X17671352Y-17951711D01*
X17677526Y-17988106D01*
X17676645Y-18017816D01*
X17673427Y-18044351D01*
X17671892Y-18051102D01*
X17669700Y-18061964D01*
X17671886Y-18070725D01*
X17680972Y-18079608D01*
X17699480Y-18090835D01*
X17729932Y-18106626D01*
X17741573Y-18112486D01*
X17774468Y-18128631D01*
X17801922Y-18141407D01*
X17820307Y-18149164D01*
X17825684Y-18150733D01*
X17835025Y-18142897D01*
X17844307Y-18121869D01*
X17852634Y-18091370D01*
X17859110Y-18055120D01*
X17862839Y-18016841D01*
X17863383Y-17994100D01*
X17855221Y-17919302D01*
X17832256Y-17852687D01*
X17794641Y-17794488D01*
X17742525Y-17744937D01*
X17677067Y-17704766D01*
X17640080Y-17687785D01*
X17609073Y-17677640D01*
X17575809Y-17672180D01*
X17543044Y-17669795D01*
X17470552Y-17672131D01*
D11*
%TO.C,U6*%
X13610000Y-18600000D02*
X13610000Y-20400000D01*
X10390000Y-20400000D02*
X10390000Y-17450000D01*
%TO.C,U1*%
X20260000Y-26720000D02*
X20260000Y-27650000D01*
X20260000Y-29880000D02*
X20260000Y-28950000D01*
X20260000Y-29880000D02*
X18100000Y-29880000D01*
X20260000Y-26720000D02*
X18800000Y-26720000D01*
%TO.C,Q2*%
X23560000Y-23220000D02*
X23560000Y-24150000D01*
X23560000Y-26380000D02*
X23560000Y-25450000D01*
X23560000Y-26380000D02*
X21400000Y-26380000D01*
X23560000Y-23220000D02*
X22100000Y-23220000D01*
%TO.C,Q1*%
X27060000Y-26620000D02*
X27060000Y-27550000D01*
X27060000Y-29780000D02*
X27060000Y-28850000D01*
X27060000Y-29780000D02*
X24900000Y-29780000D01*
X27060000Y-26620000D02*
X25600000Y-26620000D01*
D12*
%TO.C,D8*%
X19660000Y-21500000D02*
G75*
G03*
X19660000Y-21500000I-50000J0D01*
G01*
%TO.C,D7*%
X21840000Y-20500000D02*
G75*
G03*
X21840000Y-20500000I-50000J0D01*
G01*
%TO.C,D1*%
X33445000Y-10600000D02*
G75*
G03*
X33445000Y-10600000I-50000J0D01*
G01*
D11*
%TO.C,C11*%
X12110000Y-13102064D02*
X12110000Y-11897936D01*
X10290000Y-13102064D02*
X10290000Y-11897936D01*
%TD*%
M02*
